<?xml version="1.0" encoding="UTF-8"?>
<svg version="1.1" xmlns="http://www.w3.org/2000/svg" width="512" height="512">
<path d="M0 0 C1.80540191 -0.00712085 3.61080162 -0.01482257 5.41619873 -0.02307129 C9.18491924 -0.0364476 12.95343051 -0.03811638 16.72216797 -0.03222656 C21.50733395 -0.02634312 26.29148093 -0.05689816 31.07645035 -0.09734344 C34.80185171 -0.12343192 38.52701472 -0.12607878 42.25249481 -0.12245178 C44.01442774 -0.12412395 45.77637404 -0.1335787 47.53821564 -0.15159607 C68.00033293 -0.33783296 85.07686503 5.07609137 100.234375 19.46875 C110.17413187 15.73039094 119.93356238 11.65741943 129.66015625 7.3984375 C140.5685497 2.70665537 150.12498904 -0.05418371 162.046875 0.03125 C163.02462891 0.01126953 164.00238281 -0.00871094 165.00976562 -0.02929688 C181.79225298 -0.01834939 197.03163254 7.91403109 212.171875 14.34375 C215.33880383 15.68027874 218.50668347 17.01453275 221.67471313 18.34844971 C223.71235474 19.20653341 225.74961483 20.06552371 227.78646851 20.92547607 C235.5646971 24.20456256 243.37754115 27.38272744 251.234375 30.46875 C251.64776123 29.94724365 252.06114746 29.4257373 252.48706055 28.88842773 C265.00924457 13.35667266 285.64327932 3.17851495 305.234375 0.46875 C308.37710444 0.29664366 311.51708141 0.2575181 314.6640625 0.23046875 C315.57205597 0.222397 316.48004944 0.21432526 317.41555786 0.20600891 C319.33691529 0.19221454 321.25829674 0.18147173 323.1796875 0.17358398 C325.11498364 0.16213348 327.05024996 0.14179343 328.98535156 0.11206055 C344.41292217 -0.12445325 358.81909352 0.76155069 372.671875 8.34375 C373.33670898 8.69397217 374.00154297 9.04419434 374.68652344 9.4050293 C376.55089215 10.40171443 378.39568728 11.42560223 380.234375 12.46875 C381.08644531 12.95214844 381.93851562 13.43554688 382.81640625 13.93359375 C402.84196793 26.38191588 415.59794723 46.8911947 421.234375 69.46875 C421.962456 72.73365262 422.37223732 75.78538248 422.42724609 79.12866211 C422.45134048 80.47177711 422.45134048 80.47177711 422.47592163 81.84202576 C422.52100196 85.94716172 422.56148059 90.05214394 422.58447266 94.1574707 C422.60095156 96.30732102 422.62813335 98.45711841 422.66650391 100.60668945 C423.05063375 122.28330352 423.05063375 122.28330352 418.21118164 132.77001953 C417.0898851 135.86794804 417.27211775 137.32012546 418.296875 140.40625 C418.74740234 141.34791016 418.74740234 141.34791016 419.20703125 142.30859375 C421.95480082 148.0862233 422.64806039 153.73942932 422.671875 160.03125 C422.67791748 160.81556396 422.68395996 161.59987793 422.69018555 162.40795898 C422.57253815 169.18403643 420.72875907 174.15621741 418.15625 180.4140625 C416.95792472 184.38478442 417.44765798 186.63127709 419.20703125 190.30859375 C424.02064928 200.43000353 423.88616769 214.32796319 420.734375 224.96875 C418.21153477 231.3979235 414.0730127 238.43968281 408.5859375 242.76953125 C406.32850464 245.60763326 406.18274604 249.09798075 405.671875 252.59375 C405.43200812 254.13968477 405.18984303 255.6852648 404.9453125 257.23046875 C404.82897461 257.9682959 404.71263672 258.70612305 404.59277344 259.46630859 C404.16794463 261.83990935 403.50258151 264.1023258 402.796875 266.40625 C401.95705642 269.9402066 402.58387326 271.7646279 404.109375 275.03125 C407.49847823 282.40888968 407.5214473 291.38553747 405.5390625 299.21484375 C404.60857175 301.47069738 403.55469066 303.4185704 402.234375 305.46875 C401.79867188 306.17515625 401.36296875 306.8815625 400.9140625 307.609375 C396.37287614 314.30948602 390.15943492 318.63989002 382.234375 320.46875 C378.23982061 320.91030743 374.24536387 321.22211962 370.234375 321.46875 C370.08742188 322.12359375 369.94046875 322.7784375 369.7890625 323.453125 C365.88876259 339.32331083 357.38373894 352.7766451 343.234375 361.46875 C341.25284016 362.18844724 339.25499762 362.86747746 337.234375 363.46875 C337.62888791 368.41877048 338.57644717 372.24090592 341.234375 376.46875 C345.44464551 379.18213717 350.37623098 380.34776534 355.125 381.8046875 C367.24927219 385.53488244 377.95763405 392.96390126 387.234375 401.46875 C388.15863281 402.31179688 389.08289063 403.15484375 390.03515625 404.0234375 C408.10439063 421.26793504 417.82521854 443.21838947 422.234375 467.46875 C422.234375 477.03875 422.234375 486.60875 422.234375 496.46875 C258.554375 496.46875 94.874375 496.46875 -73.765625 496.46875 C-73.765625 463.11308834 -70.46914526 437.10603331 -48.765625 411.46875 C-50.30622975 408.07151902 -52.32044842 405.30506192 -54.578125 402.34375 C-63.765625 389.87619536 -63.765625 389.87619536 -63.765625 384.46875 C-69.705625 384.46875 -75.645625 384.46875 -81.765625 384.46875 C-81.85837585 366.90928936 -81.92968252 349.34992714 -81.97287369 331.79027748 C-81.99346464 323.63630437 -82.02151853 315.48248664 -82.06738281 307.32861328 C-82.1073572 300.2184467 -82.133083 293.10839269 -82.14197898 285.99811685 C-82.14717589 282.23616808 -82.15931718 278.47454126 -82.18854523 274.71269608 C-82.21588251 271.16515296 -82.22403355 267.61806158 -82.21805573 264.07042313 C-82.21966496 262.16145283 -82.24109138 260.25253069 -82.26330566 258.34368896 C-82.21683398 248.55629283 -80.29186211 240.30555438 -73.46875 233 C-67.12359723 227.29518375 -60.3050142 224.54916356 -51.80273438 223.83764648 C-39.52036671 222.80718136 -30.46040539 220.02136661 -21.9453125 210.6953125 C-18.63530401 207.31412103 -14.80066929 204.90122351 -10.765625 202.46875 C-13.26616396 199.86402192 -15.89352259 197.49286585 -18.640625 195.15625 C-31.34861683 183.97509637 -37.29361509 170.20317849 -38.765625 153.46875 C-39.45527344 153.44296875 -40.14492188 153.4171875 -40.85546875 153.390625 C-51.01971084 152.77714537 -59.3106718 149.56560501 -66.765625 142.46875 C-71.98328343 135.84735605 -74.15566583 129.08914224 -74.140625 120.65625 C-74.14263916 119.94774902 -74.14465332 119.23924805 -74.14672852 118.50927734 C-74.04745406 113.38342612 -72.95912858 109.96323193 -70.6015625 105.515625 C-68.61017438 100.63951578 -70.33259973 95.27302196 -71.515625 90.34375 C-76.26390927 69.88960238 -75.64615384 49.77825921 -64.890625 31.46875 C-54.68582083 16.05702527 -40.59808861 5.54999303 -22.47593689 1.12117004 C-15.04165228 -0.18607216 -7.52818618 -0.00364649 0 0 Z M82.234375 153.46875 C81.93263972 155.42256063 81.66879226 157.38225771 81.421875 159.34375 C79.47103223 172.29282232 74.12542549 182.13123401 66.234375 192.46875 C67.38292969 192.62730469 68.53148437 192.78585938 69.71484375 192.94921875 C87.99126976 195.62728593 103.58611677 201.48601995 117.078125 214.55078125 C119.07391429 216.32602136 120.79550106 217.42114278 123.234375 218.46875 C124.82213049 217.07794892 126.40438439 215.68086596 127.984375 214.28125 C128.86609375 213.50394531 129.7478125 212.72664063 130.65625 211.92578125 C133.12528714 209.57271404 135.24356525 207.23634767 137.234375 204.46875 C137.234375 203.80875 137.234375 203.14875 137.234375 202.46875 C135.60923426 201.3634153 133.93138765 200.33521119 132.234375 199.34375 C119.5629288 191.40989956 111.09418961 179.68292108 107.68359375 165.01953125 C107.00763715 161.18127334 106.60971732 157.34728726 106.234375 153.46875 C104.58043383 151.81480883 102.63122087 152.33875317 100.359375 152.3359375 C99.37453125 152.33464844 98.3896875 152.33335937 97.375 152.33203125 C95.82039063 152.33783203 95.82039063 152.33783203 94.234375 152.34375 C93.19796875 152.33988281 92.1615625 152.33601562 91.09375 152.33203125 C90.10890625 152.33332031 89.1240625 152.33460938 88.109375 152.3359375 C87.19929688 152.33706543 86.28921875 152.33819336 85.3515625 152.33935547 C83.2490902 152.23314991 83.2490902 152.23314991 82.234375 153.46875 Z M211.234375 202.46875 C212.50378997 206.38277949 213.74605194 208.25947873 217.234375 210.46875 C216.244375 207.49875 215.254375 204.52875 214.234375 201.46875 C213.0107682 201.3942144 213.0107682 201.3942144 211.234375 202.46875 Z M156.234375 384.46875 C153.594375 389.41875 150.954375 394.36875 148.234375 399.46875 C144.234375 404.65625 144.234375 404.65625 142.484375 406.63671875 C140.85863496 408.64980308 140.85863496 408.64980308 141.234375 412.46875 C142.94816333 415.26205002 142.94816333 415.26205002 145.234375 418.21875 C158.74807179 436.94364599 164.75742504 457.57602563 166.234375 480.46875 C171.514375 480.46875 176.794375 480.46875 182.234375 480.46875 C182.32074219 479.30601562 182.40710938 478.14328125 182.49609375 476.9453125 C184.00982153 458.85111806 188.30518623 443.30542442 197.234375 427.46875 C197.77835937 426.48390625 198.32234375 425.4990625 198.8828125 424.484375 C209.05207813 407.32063886 224.82785295 394.68699688 242.234375 385.46875 C242.234375 385.13875 242.234375 384.80875 242.234375 384.46875 C213.854375 384.46875 185.474375 384.46875 156.234375 384.46875 Z " fill="#010101" transform="translate(81.765625,7.53125)"/>
<path d="M0 0 C1.09593979 -0.0099852 2.19187958 -0.0199704 3.32102966 -0.03025818 C5.62780013 -0.04535279 7.93463527 -0.05248668 10.24145508 -0.05200195 C13.71354225 -0.05853252 17.18271765 -0.11302689 20.65429688 -0.16992188 C42.0854786 -0.33123226 59.78942399 4.02116395 75.796875 19.0234375 C89.32197153 33.07979805 94.65987622 49.35274419 94.53315353 68.54436874 C94.51916161 70.87003398 94.52600227 73.19486927 94.53799438 75.52053833 C94.56858093 82.12540487 94.56433129 88.7300683 94.54394531 95.33496094 C94.48213681 120.42181815 95.15527655 144.40736398 108.453125 166.625 C109.4876781 169.28606973 109.01390645 170.79618701 108.18359375 173.50390625 C105.10296691 180.30737529 101.26610456 186.05835896 96.18359375 191.50390625 C93.13104875 190.10018118 90.40153842 188.3544315 87.61621094 186.48291016 C78.32449457 180.27196712 68.49131726 174.58305305 57.49609375 172.12890625 C54.70415771 171.3708309 53.53805903 170.97785421 51.79296875 168.64453125 C50.70722531 166.29478799 49.92527051 163.98266806 49.18359375 161.50390625 C48.87679687 160.69566406 48.57 159.88742187 48.25390625 159.0546875 C45.64499555 152.07065663 45.64499555 152.07065663 47.18359375 148.50390625 C49.1875 146.53125 49.1875 146.53125 51.74609375 144.44140625 C63.81899231 133.86259329 72.26631091 119.17485352 75.37109375 103.421875 C75.62490814 102.13805939 75.62490814 102.13805939 75.8838501 100.82830811 C77.78601589 90.35589811 77.85785923 79.86730678 77.93359375 69.25390625 C77.96185092 67.22523616 77.99179129 65.1965888 78.0234375 63.16796875 C78.0961246 58.27999061 78.14639544 53.39227791 78.18359375 48.50390625 C72.90359375 48.50390625 67.62359375 48.50390625 62.18359375 48.50390625 C62.20977783 49.73729736 62.23596191 50.97068848 62.26293945 52.24145508 C62.35494222 56.91378901 62.41137584 61.58604717 62.45825195 66.2590332 C62.48306049 68.26340287 62.51691895 70.26768548 62.56079102 72.27172852 C63.02780037 94.18820275 59.97431622 113.76280834 44.49804688 130.28662109 C35.46923915 139.51342898 26.79868741 144.49048858 13.87109375 145.00390625 C-0.09566576 144.62755644 -8.58559532 138.18956873 -17.81640625 128.50390625 C-30.33253797 114.84160862 -34.53022341 97.54195848 -34.33789062 79.47192383 C-34.31621279 77.04474534 -34.33792026 74.62045518 -34.36328125 72.19335938 C-34.36064138 70.63150396 -34.35552346 69.06965033 -34.34765625 67.5078125 C-34.35575317 66.79210587 -34.3638501 66.07639923 -34.37219238 65.33900452 C-34.2553492 59.05294417 -31.84192671 55.52942671 -27.50390625 51.19140625 C-24.81640625 49.50390625 -24.81640625 49.50390625 -17.81640625 48.50390625 C-17.81640625 43.22390625 -17.81640625 37.94390625 -17.81640625 32.50390625 C-27.78849733 34.16592143 -36.87347421 36.89050964 -43.2265625 45.390625 C-47.57493012 52.04628973 -49.13170283 58.02201652 -49.1875 65.98828125 C-49.19652847 66.80274719 -49.20555695 67.61721313 -49.21485901 68.45635986 C-49.22932658 70.18099322 -49.23823954 71.90568103 -49.24194336 73.63037109 C-49.25368377 76.20511576 -49.30276386 78.77733409 -49.35351562 81.3515625 C-49.57339341 103.68848808 -42.48614685 125.17466478 -26.81640625 141.50390625 C-23.90188652 144.28111578 -20.92152606 146.94199889 -17.81640625 149.50390625 C-18.41248959 152.53399657 -19.08006285 155.50685943 -19.81640625 158.50390625 C-20.02652344 159.46296875 -20.23664063 160.42203125 -20.453125 161.41015625 C-22.4511134 168.6613922 -22.4511134 168.6613922 -26.1015625 170.9140625 C-28.97854283 171.93652889 -31.86323101 172.73054585 -34.81640625 173.50390625 C-45.58917167 177.25872905 -57.83155571 183.10628082 -65.81640625 191.50390625 C-72.47154545 188.84768841 -76.00771629 181.22287232 -79.31640625 175.19140625 C-80.94042262 171.19903268 -80.98959931 170.45480641 -79.81640625 166.50390625 C-78.77283825 164.27650574 -77.68389417 162.07015429 -76.56640625 159.87890625 C-72.28308894 151.14200038 -69.92304689 141.97152825 -67.81640625 132.50390625 C-67.64481491 131.78147232 -67.47322357 131.05903839 -67.2964325 130.31471252 C-66.7282724 126.98783618 -66.68400698 123.83328986 -66.67456055 120.45727539 C-66.67108612 119.76702271 -66.66761169 119.07677002 -66.66403198 118.36560059 C-66.65670339 116.87169759 -66.65134264 115.3777839 -66.64774132 113.88386726 C-66.64052522 111.50618526 -66.62481704 109.12870366 -66.60639954 106.75108337 C-66.55419854 99.99220681 -66.50607413 93.23343867 -66.49047852 86.47436523 C-66.48029646 82.33160212 -66.45071338 78.18934364 -66.40915871 74.04678154 C-66.39698278 72.48142788 -66.39170245 70.91600249 -66.39395714 69.3506031 C-66.41531248 49.66949991 -60.89520669 33.0545084 -47.015625 18.609375 C-34.09426211 6.23883397 -17.75967364 0.05788949 0 0 Z " fill="#F9D56F" transform="translate(113.81640625,215.49609375)"/>
<path d="M0 0 C0.02578125 1.19496094 0.0515625 2.38992188 0.078125 3.62109375 C0.25967498 17.38703914 0.25967498 17.38703914 6.8671875 29.015625 C13.38013911 35.06161027 18.63054624 36.31347835 27.32421875 36.3359375 C28.67638237 36.3459227 28.67638237 36.3459227 30.05586243 36.35610962 C31.96129321 36.36621626 33.86675924 36.37092726 35.7722168 36.37060547 C38.66060183 36.37495945 41.54743384 36.41124646 44.43554688 36.44921875 C59.16553596 36.86185978 59.16553596 36.86185978 71.87963867 30.30810547 C77.99573157 23.94568192 79.44725197 17.0810087 79.6875 8.5625 C79.72166016 7.73556641 79.75582031 6.90863281 79.79101562 6.05664062 C79.87268621 4.03821056 79.93803724 2.01913116 80 0 C85.18229039 0.57133947 89.16636826 2.23421906 93.75 4.5625 C94.45374756 4.91747559 95.15749512 5.27245117 95.88256836 5.63818359 C101.87418596 8.75594081 106.94056703 12.52799184 112 17 C112.58523437 17.4434375 113.17046875 17.886875 113.7734375 18.34375 C130.23049891 31.01491465 139.25374113 52.10693206 143.62890625 71.8359375 C144.14025022 76.1958177 144 80.610236 144 85 C133.44 85 122.88 85 112 85 C112 74.44 112 63.88 112 53 C106.72 53 101.44 53 96 53 C96 63.56 96 74.12 96 85 C59.04 85 22.08 85 -16 85 C-16 74.44 -16 63.88 -16 53 C-21.28 53 -26.56 53 -32 53 C-32 63.56 -32 74.12 -32 85 C-42.56 85 -53.12 85 -64 85 C-64 78.35166126 -63.97879182 73.11885866 -62.4375 66.875 C-62.26114014 66.15344727 -62.08478027 65.43189453 -61.90307617 64.68847656 C-56.00174697 41.97318006 -41.91797947 21.65955734 -22 9 C-16.80317553 6.05353255 -11.42027835 3.50418167 -6 1 C-4 0 -4 0 0 0 Z " fill="#FD816D" transform="translate(88,403)"/>
<path d="M0 0 C1.71337833 4.23407987 3.42225627 8.46993692 5.12695312 12.70751953 C5.70774363 14.14942616 6.28977 15.59083563 6.87304688 17.03173828 C7.71027311 19.10059835 8.54306709 21.17119419 9.375 23.2421875 C9.63748535 23.88807831 9.8999707 24.53396912 10.17041016 25.19943237 C12 29.77225659 12 29.77225659 12 32 C12.78807541 31.67720314 12.78807541 31.67720314 13.59207153 31.34788513 C19.06830988 29.10817723 24.55260118 26.8891543 30.04199219 24.68188477 C32.08872162 23.85576979 34.13334969 23.02442845 36.17578125 22.18774414 C39.11439913 20.98499757 42.06009711 19.80133792 45.0078125 18.62109375 C45.9174173 18.24407822 46.82702209 17.86706268 47.76419067 17.47862244 C55.36675402 14.47070743 59.69178145 15.30166404 67.25390625 18.328125 C68.43919922 18.79863281 69.62449219 19.26914062 70.84570312 19.75390625 C72.08472418 20.2523836 73.32365624 20.7510822 74.5625 21.25 C76.9802873 22.21399687 79.39825533 23.17754061 81.81640625 24.140625 C82.9986377 24.61306641 84.18086914 25.08550781 85.39892578 25.57226562 C90.91555989 27.7594708 96.45566864 29.88401106 102 32 C102.16218018 31.41299316 102.32436035 30.82598633 102.49145508 30.22119141 C104.4476607 23.4015022 106.95002839 16.91524318 109.6875 10.375 C110.10322266 9.37082031 110.51894531 8.36664063 110.94726562 7.33203125 C111.96054096 4.88619424 112.97816796 2.4422715 114 0 C119.84880593 2.69200008 124.55037207 5.68843277 129.375 9.9375 C130.023479 10.50815186 130.67195801 11.07880371 131.34008789 11.66674805 C147.45620383 26.2278177 158.75530087 47.23823268 161 69 C161 71.97 161 74.94 161 78 C150.44 78 139.88 78 129 78 C129 67.44 129 56.88 129 46 C123.72 46 118.44 46 113 46 C113 56.56 113 67.12 113 78 C76.04 78 39.08 78 1 78 C1 67.44 1 56.88 1 46 C-4.28 46 -9.56 46 -15 46 C-15 56.56 -15 67.12 -15 78 C-25.56 78 -36.12 78 -47 78 C-47 71.35166126 -46.97879182 66.11885866 -45.4375 59.875 C-45.26114014 59.15344727 -45.08478027 58.43189453 -44.90307617 57.68847656 C-41.43349643 44.33342895 -35.42075288 32.8792594 -27 22 C-26.38640625 21.20207031 -25.7728125 20.40414063 -25.140625 19.58203125 C-20.42636371 13.89066879 -7.70588034 0 0 0 Z " fill="#74B0F0" transform="translate(327,410)"/>
<path d="M0 0 C2.05570673 1.33064133 3.71076947 2.81636189 5.47729492 4.51147461 C15.7146177 13.6281999 26.98873174 15.49165224 40.27416992 15.43725586 C42.45516584 15.45265966 44.63615556 15.46896209 46.81713867 15.48608398 C50.2230405 15.50259356 53.62848486 15.51142058 57.03442383 15.50439453 C60.34402448 15.50178031 63.65225261 15.52983003 66.96166992 15.56225586 C68.48833282 15.54694572 68.48833282 15.54694572 70.0458374 15.53132629 C74.46510911 15.59257125 77.16509299 15.79877496 81.03295898 18.05126953 C83.76469855 22.77756023 83.25979549 26.86565792 82.85229492 32.19897461 C82.7953949 33.14312225 82.73849487 34.0872699 82.67987061 35.06002808 C82.25613283 41.43549074 81.63980885 47.79767487 81.0456543 54.15917969 C80.83366438 56.47464927 80.63213831 58.79110104 80.44116211 61.10839844 C79.10233281 77.33422735 77.7783302 91.75751368 64.85229492 103.19897461 C53.46693502 111.62759687 42.24631922 112.7370375 28.52172852 112.69995117 C25.98883192 112.69897904 23.45897482 112.74069843 20.92651367 112.78491211 C8.16284002 112.87904861 -2.03455618 110.61378467 -12.11254883 102.21850586 C-21.11332244 93.28683607 -24.4446566 83.90742734 -25.53442383 71.59741211 C-25.64115921 70.48395416 -25.74789459 69.37049622 -25.85786438 68.22329712 C-26.08081252 65.87211603 -26.29816108 63.52039805 -26.51025391 61.16821289 C-26.83235906 57.60545397 -27.17309371 54.04485935 -27.5168457 50.48413086 C-27.73215051 48.18866198 -27.94637738 45.89309169 -28.15942383 43.59741211 C-28.30936043 42.02484146 -28.30936043 42.02484146 -28.46232605 40.42050171 C-30.23337166 20.49093739 -30.23337166 20.49093739 -27.46020508 14.63647461 C-22.6397457 9.55544986 -17.26773834 6.45765571 -11.08520508 3.32397461 C-9.88154297 2.68202148 -9.88154297 2.68202148 -8.65356445 2.02709961 C-7.8769043 1.63264648 -7.10024414 1.23819336 -6.30004883 0.83178711 C-5.59871826 0.46972168 -4.8973877 0.10765625 -4.17480469 -0.26538086 C-2.14770508 -0.80102539 -2.14770508 -0.80102539 0 0 Z " fill="#EECEB2" transform="translate(357.147705078125,247.801025390625)"/>
<path d="M0 0 C1.20135841 0.5127951 1.20135841 0.5127951 2.42698669 1.03594971 C4.11354802 1.75876317 5.79858915 2.48513292 7.48217773 3.21484375 C10.04822789 4.32364586 12.62223134 5.41225516 15.19726562 6.5 C16.84036846 7.20711533 18.4829644 7.91540992 20.125 8.625 C20.88970108 8.94603699 21.65440216 9.26707397 22.442276 9.59783936 C28.37239742 12.20278406 32.9412153 15.3914588 35.49609375 21.578125 C36.18827393 28.3958211 35.29000299 35.4615878 34.69140625 42.265625 C34.60736542 43.24877686 34.52332458 44.23192871 34.43673706 45.24487305 C34.2589758 47.30894369 34.07902549 49.37282689 33.89697266 51.43652344 C33.62188835 54.56907644 33.35741451 57.7024051 33.09375 60.8359375 C32.91861007 62.85422242 32.74284947 64.8724536 32.56640625 66.890625 C32.4892337 67.81383545 32.41206116 68.7370459 32.33255005 69.68823242 C31.08399482 83.55778233 28.21942412 95.87705764 17.49609375 105.578125 C8.07963643 112.56913119 -1.76152885 115.15866671 -13.37890625 115.078125 C-14.34272217 115.07240479 -15.30653809 115.06668457 -16.29956055 115.06079102 C-27.87970715 114.7708236 -37.23311218 110.78541969 -45.50390625 102.578125 C-52.2230062 94.44447769 -55.75687358 86.87827694 -56.63671875 76.4453125 C-56.71888641 75.57278839 -56.80105408 74.70026428 -56.88571167 73.80130005 C-57.0573613 71.95445857 -57.22344365 70.10709215 -57.38427734 68.25927734 C-57.62405233 65.50880463 -57.88066627 62.76034904 -58.140625 60.01171875 C-58.64816521 54.53763155 -59.09012752 49.06003275 -59.50390625 43.578125 C-59.61575256 42.14466736 -59.61575256 42.14466736 -59.7298584 40.68225098 C-59.94342048 37.83861639 -60.13024735 34.9944768 -60.30859375 32.1484375 C-60.37426544 31.2901535 -60.43993713 30.43186951 -60.50759888 29.5475769 C-60.81347371 24.03026818 -60.27546319 20.41020118 -57.50390625 15.578125 C-51.04100847 9.65157767 -41.00479953 6.49269251 -32.97998047 3.08911133 C-30.73713178 2.13347773 -28.50556576 1.1541976 -26.2734375 0.17382812 C-24.83526022 -0.44156639 -23.39647845 -1.05555056 -21.95703125 -1.66796875 C-21.29753479 -1.96054062 -20.63803833 -2.25311249 -19.95855713 -2.55455017 C-12.4249552 -5.68577823 -7.02380862 -3.03113121 0 0 Z " fill="#EECEB2" transform="translate(116.50390625,85.421875)"/>
<path d="M0 0 C3.03603225 1.41770102 5.64251627 3.09273971 8.3359375 5.08203125 C9.15320313 5.68466797 9.97046875 6.28730469 10.8125 6.90820312 C12.0809375 7.85083008 12.0809375 7.85083008 13.375 8.8125 C14.21289062 9.42931641 15.05078125 10.04613281 15.9140625 10.68164062 C20.39409028 13.99587501 24.76439373 17.37834969 29 21 C28.55409479 23.60111375 28.055284 25.87449037 26.98828125 28.296875 C24.33301197 35.55950877 25.39248829 43.38844531 28.1875 50.4375 C32.38006741 59.33792242 37.82785294 64.19447861 46.75 68.25 C51.77624639 69.40990301 56.86005 69.68395129 62 70 C62.3403125 71.17175781 62.680625 72.34351563 63.03125 73.55078125 C65.98644205 83.29450718 69.15754806 91.24342874 76 99 C76.54269531 99.65097656 77.08539063 100.30195313 77.64453125 100.97265625 C82.4998363 106.34775065 88.68473105 109.58830298 95 113 C94.67 114.65 94.34 116.3 94 118 C56.71 118 19.42 118 -19 118 C-25.91297787 104.17404427 -25.91297787 104.17404427 -27.8125 97.0625 C-28.11704102 95.99032227 -28.11704102 95.99032227 -28.42773438 94.89648438 C-30.0193559 89.21812506 -31.11045116 83.96400234 -31.28808594 78.06738281 C-31.32351501 76.89556458 -31.35894409 75.72374634 -31.39544678 74.51641846 C-31.50372403 69.87342731 -31.59179266 65.23041295 -31.65206528 60.58656693 C-31.69824129 57.06907192 -31.76568479 53.55490878 -31.88476562 50.0390625 C-32.02207311 45.96833666 -32.06826937 41.90097168 -32.109375 37.828125 C-32.18983063 35.95269012 -32.18983063 35.95269012 -32.27191162 34.03936768 C-32.2612314 28.76163468 -32.18500533 25.37683069 -28.65835571 21.27929688 C-25.86754543 18.97259866 -23.03603669 16.96875835 -20 15 C-18.26084474 13.70779637 -16.52781836 12.40724581 -14.8046875 11.09375 C-13.16369498 9.89277124 -11.52048754 8.69481261 -9.875 7.5 C-8.20523156 6.28193184 -6.53593364 5.06321833 -4.8671875 3.84375 C-4.14644043 3.31974609 -3.42569336 2.79574219 -2.68310547 2.25585938 C-1.05857834 1.10653194 -1.05857834 1.10653194 0 0 Z " fill="#B3DC7E" transform="translate(255,258)"/>
<path d="M0 0 C0.98242676 0.01844971 1.96485352 0.03689941 2.97705078 0.0559082 C31.51599291 0.85637459 59.65099366 5.06651228 86.9375 13.5 C87.80955078 13.76570801 88.68160156 14.03141602 89.58007812 14.30517578 C110.24381854 20.66185348 110.24381854 20.66185348 117.9375 26.5 C118.98550781 27.26376953 118.98550781 27.26376953 120.0546875 28.04296875 C128.5883327 34.82158126 133.59457165 43.96619413 135.9375 54.5 C136.164375 55.469375 136.39125 56.43875 136.625 57.4375 C137.47834207 65.80025233 137.36232172 74.38732485 134.9375 82.5 C132.9375 83.5 132.9375 83.5 130.3125 82.625 C129.19875 82.25375 128.085 81.8825 126.9375 81.5 C125.54277513 81.39981182 124.14671847 81.31687786 122.75 81.25 C120.8628125 80.87875 120.8628125 80.87875 118.9375 80.5 C117.25 77.75 117.25 77.75 115.9375 74.5 C111.94266588 69.97952981 107.91909157 66.69353626 101.9375 65.5 C100.28039427 65.40740773 98.62012641 65.36481522 96.96044922 65.3581543 C95.97196991 65.35111984 94.9834906 65.34408539 93.96505737 65.33683777 C92.90151031 65.33267349 91.83796326 65.32850922 90.7421875 65.32421875 C88.4765533 65.30101135 86.21092828 65.27689365 83.9453125 65.25195312 C80.3840529 65.21692836 76.82312917 65.1875402 73.26171875 65.17407227 C69.81729627 65.15850723 66.37384916 65.11823425 62.9296875 65.07421875 C61.87828583 65.07612717 60.82688416 65.07803558 59.74362183 65.08000183 C49.40631632 64.91078091 41.41807446 61.93428142 33.9140625 54.76171875 C27.97846414 47.96979889 26.05579015 40.27941223 24.9375 31.5 C24.28523438 31.644375 23.63296875 31.78875 22.9609375 31.9375 C18.21129823 32.94627294 13.82340812 33.75715306 8.9375 33.5 C9.1540625 34.22445312 9.370625 34.94890625 9.59375 35.6953125 C9.8721875 36.66210938 10.150625 37.62890625 10.4375 38.625 C10.7159375 39.57632813 10.994375 40.52765625 11.28125 41.5078125 C11.95896084 44.59785121 12.04977205 47.34702648 11.9375 50.5 C11.09155273 50.89940796 11.09155273 50.89940796 10.22851562 51.30688477 C7.62496352 52.5454911 5.03139599 53.80380469 2.4375 55.0625 C1.550625 55.48080078 0.66375 55.89910156 -0.25 56.33007812 C-7.99978552 60.11949531 -15.38761371 64.57392284 -19 72.75 C-19.38027344 73.58015625 -19.76054687 74.4103125 -20.15234375 75.265625 C-20.85301651 76.98573151 -21.47515779 78.73797337 -22.0625 80.5 C-28.0025 81.49 -28.0025 81.49 -34.0625 82.5 C-37.70541754 77.49098838 -39.90018022 73.94825174 -39.46875 67.66015625 C-37.96907147 59.68590404 -32.36315446 55.86697343 -26.0625 51.5 C-22.08951567 48.79093025 -18.09165556 46.12474601 -14.0625 43.5 C-15.28270181 39.48812436 -16.83270602 35.83387661 -18.72949219 32.09594727 C-24.83302094 19.93710827 -24.83302094 19.93710827 -23.0625 13.5 C-18.89299982 3.09520181 -10.66115523 -0.35952382 0 0 Z " fill="#646C77" transform="translate(335.0625,183.5)"/>
<path d="M0 0 C0.7365834 -0.00570007 1.47316681 -0.01140015 2.23207092 -0.01727295 C3.79117411 -0.02669494 5.35029696 -0.03324577 6.90942383 -0.03710938 C9.24663248 -0.04671665 11.58292293 -0.07772376 13.91992188 -0.109375 C36.46547059 -0.27036008 54.90604778 6.27394323 71.53515625 21.890625 C87.18321475 38.06111471 91.90330403 57.21106885 91.84863281 78.96630859 C91.84765784 81.69865547 91.88945893 84.42821065 91.93359375 87.16015625 C91.99293277 96.14373735 91.77270339 103.56798023 87.48486328 111.71289062 C85.34079057 116.40794037 85.49910705 121.19015742 86.34765625 126.203125 C87.11304952 128.23009752 87.94914947 130.23154441 88.84765625 132.203125 C91.64977825 138.35178128 92.48124323 143.50624191 91.34765625 150.203125 C90.18806325 153.27404715 88.84138882 156.21687753 87.48046875 159.203125 C85.20223864 165.23650681 85.1767109 171.13847837 87.48046875 177.16796875 C88.3921164 179.15015122 89.30748576 181.13062622 90.2265625 183.109375 C92.73379453 190.02828709 92.40377065 197.53858637 89.34765625 204.203125 C88.68765625 204.203125 88.02765625 204.203125 87.34765625 204.203125 C86.67283203 202.67945313 86.67283203 202.67945313 85.984375 201.125 C80.0269749 188.18469395 72.44168629 178.10409591 60.34765625 170.203125 C61.62340397 166.86971966 63.08302203 163.7744609 64.78515625 160.640625 C69.48606741 151.26219256 70.80334516 141.33141947 71.515625 130.97265625 C71.64243401 129.29885139 71.64243401 129.29885139 71.77180481 127.5912323 C71.94705171 125.25299401 72.11738299 122.91438245 72.28295898 120.57543945 C72.53529922 117.01360694 72.80244922 113.45312543 73.07226562 109.89257812 C73.24174494 107.6068344 73.41039334 105.32102888 73.578125 103.03515625 C73.65620895 101.98181595 73.73429291 100.92847565 73.81474304 99.84321594 C75.01831249 85.29713886 75.01831249 85.29713886 69.34765625 72.203125 C64.62082992 67.59473851 58.98441221 64.9766293 52.35546875 64.9296875 C50.93802368 64.90334229 50.93802368 64.90334229 49.49194336 64.87646484 C48.49557861 64.8605127 47.49921387 64.84456055 46.47265625 64.828125 C31.53097589 64.35326612 18.15305745 61.27336753 5.34765625 53.203125 C4.05069824 52.46545898 4.05069824 52.46545898 2.72753906 51.71289062 C-1.54310527 48.91618549 -4.24000907 46.93913841 -5.45141602 41.83886719 C-5.63661061 37.91488154 -5.52690086 34.12309127 -5.27734375 30.203125 C-5.22709847 28.84261244 -5.18148576 27.48192049 -5.140625 26.12109375 C-5.02332307 22.81317925 -4.84396733 19.50756723 -4.65234375 16.203125 C-9.93234375 16.203125 -15.21234375 16.203125 -20.65234375 16.203125 C-20.52472656 18.11996094 -20.39710938 20.03679688 -20.265625 22.01171875 C-19.26478542 43.39830356 -19.26478542 43.39830356 -22.9609375 47.9609375 C-25.78224871 50.17152663 -28.40122113 51.71832458 -31.65234375 53.203125 C-32.75835937 54.03650391 -32.75835937 54.03650391 -33.88671875 54.88671875 C-35.65234375 56.203125 -35.65234375 56.203125 -37.65234375 56.203125 C-37.78769531 55.25953125 -37.92304688 54.3159375 -38.0625 53.34375 C-39.78304743 43.08228147 -42.68115635 33.49384519 -50.65234375 26.203125 C-46.33297725 16.00206796 -34.18646734 9.8493021 -24.65234375 5.203125 C-16.44005798 1.92578835 -8.84606156 0.05402644 0 0 Z " fill="#B07745" transform="translate(396.65234375,23.796875)"/>
<path d="M0 0 C5.94 0 11.88 0 18 0 C20.26470038 8.30390139 22.48387388 16.52166314 24 25 C24.90363281 24.7834375 25.80726562 24.566875 26.73828125 24.34375 C27.91777344 24.0653125 29.09726563 23.786875 30.3125 23.5 C32.07013672 23.08234375 32.07013672 23.08234375 33.86328125 22.65625 C37 22 37 22 40 22 C39.45859375 20.12054688 39.45859375 20.12054688 38.90625 18.203125 C38.43722617 16.5521611 37.96849125 14.90111511 37.5 13.25 C37.26152344 12.425 37.02304688 11.6 36.77734375 10.75 C36.55175781 9.95078125 36.32617188 9.1515625 36.09375 8.328125 C35.88427734 7.5949707 35.67480469 6.86181641 35.45898438 6.10644531 C35 4 35 4 35 0 C39.95 0 44.9 0 50 0 C52.26470038 8.30390139 54.48387388 16.52166314 56 25 C56.90363281 24.7834375 57.80726563 24.566875 58.73828125 24.34375 C59.91777344 24.0653125 61.09726563 23.786875 62.3125 23.5 C63.48425781 23.2215625 64.65601563 22.943125 65.86328125 22.65625 C69 22 69 22 72 22 C71.6390625 20.74703125 71.278125 19.4940625 70.90625 18.203125 C70.43722617 16.5521611 69.96849125 14.90111511 69.5 13.25 C69.14228516 12.0125 69.14228516 12.0125 68.77734375 10.75 C68.55175781 9.95078125 68.32617188 9.1515625 68.09375 8.328125 C67.88427734 7.5949707 67.67480469 6.86181641 67.45898438 6.10644531 C67 4 67 4 67 0 C68.40142781 0.37554602 69.79601628 0.77663776 71.1875 1.1875 C71.96480469 1.40792969 72.74210937 1.62835938 73.54296875 1.85546875 C76.94959652 3.44233987 78.66133856 5.02647314 81 8 C81.67744106 11.16147918 81.56276568 14.22572004 81.4453125 17.4453125 C81.42790009 18.36980194 81.41048767 19.29429138 81.39254761 20.24679565 C81.34904208 22.20895476 81.29274458 24.17086592 81.22460938 26.13232422 C81.12694731 29.06649487 81.07971552 31.99814856 81.0390625 34.93359375 C80.55846273 56.48891524 76.32510859 75.46480816 60.8671875 91.26171875 C52.03250293 99.69920361 43.9205414 104.01416638 31.6875 104.5 C17.72074049 104.12365019 9.23081093 97.68566248 0 88 C-12.51613172 74.33770237 -16.71381716 57.03805223 -16.52148438 38.96801758 C-16.49980654 36.54083909 -16.52151401 34.11654893 -16.546875 31.68945312 C-16.54423513 30.12759771 -16.53911721 28.56574408 -16.53125 27.00390625 C-16.53934692 26.28819962 -16.54744385 25.57249298 -16.55578613 24.83509827 C-16.43894295 18.54903792 -14.02552046 15.02552046 -9.6875 10.6875 C-6.4404827 8.64867518 -3.78940134 8.29720795 0 8 C0 5.36 0 2.72 0 0 Z " fill="#EDCDB2" transform="translate(96,256)"/>
<path d="M0 0 C0.69331924 -0.0049649 1.38663849 -0.00992981 2.10096741 -0.01504517 C4.39154057 -0.02962946 6.6820443 -0.03646542 8.97265625 -0.04199219 C10.15275269 -0.04623325 10.15275269 -0.04623325 11.35668945 -0.05056 C15.52669611 -0.06554405 19.6966683 -0.07477619 23.86669922 -0.07910156 C28.14553182 -0.0845599 32.42404195 -0.10853383 36.70277405 -0.13707352 C40.01622386 -0.1558395 43.3295985 -0.16091303 46.64309692 -0.16243744 C48.2185338 -0.16543725 49.79397022 -0.17337376 51.36935425 -0.18662262 C68.79901551 -0.32264414 83.19826669 2.71867282 96.03515625 15.16113281 C95.8753125 15.88816406 95.71546875 16.61519531 95.55078125 17.36425781 C94.10696174 25.19588484 95.05816579 31.82497774 98.03515625 39.16113281 C97.38289062 39.58523437 96.730625 40.00933594 96.05859375 40.44628906 C87.91087414 45.91415399 82.44671084 50.87412311 79.03515625 60.16113281 C72.93598104 58.24071388 67.10307739 55.98892776 61.2734375 53.36816406 C59.64405979 52.64835637 58.01449703 51.92896745 56.38476562 51.20996094 C53.8548683 50.08876484 51.32662776 48.96420639 48.80151367 47.83227539 C46.33806981 46.7301896 43.86885282 45.64201431 41.3984375 44.55566406 C40.64830887 44.21509476 39.89818024 43.87452545 39.12532043 43.52363586 C32.96584154 40.83345066 28.82638274 40.34875944 22.44189453 42.81005859 C20.65801572 43.56362931 18.87945108 44.32986361 17.10546875 45.10644531 C16.15630585 45.51394012 15.20714294 45.92143494 14.22921753 46.34127808 C12.22487324 47.20522916 10.22288863 48.07467258 8.22314453 48.94921875 C5.18413308 50.27566755 2.13591257 51.57887551 -0.9140625 52.87988281 C-2.86648564 53.72485142 -4.81832823 54.571163 -6.76953125 55.41894531 C-8.12303177 55.99589645 -8.12303177 55.99589645 -9.50387573 56.58450317 C-16.42485599 59.63878878 -22.97403745 63.07791825 -27.27734375 69.47363281 C-30.82653671 73.02282578 -33.37290162 72.91193227 -38.24609375 73.05566406 C-40.92322328 73.15951823 -43.35636695 73.57044513 -45.96484375 74.16113281 C-51.74831726 58.46313329 -51.68777983 42.48851858 -44.90234375 27.16113281 C-38.66502052 15.44986024 -28.24389018 6.2075348 -15.52734375 2.28613281 C-14.01147153 1.89155652 -12.49079305 1.5147396 -10.96484375 1.16113281 C-10.12252197 0.90290741 -10.12252197 0.90290741 -9.26318359 0.63946533 C-6.15075744 -0.00829555 -3.17933552 0.01734239 0 0 Z " fill="#B07845" transform="translate(73.96484375,23.8388671875)"/>
<path d="M0 0 C3.08002723 1.18329598 5.68259668 3.0938988 8.39477539 4.93945312 C21.64280396 13.67644192 35.79796012 19.57842108 51.84008789 19.89257812 C52.69731445 19.91191406 53.55454102 19.93125 54.43774414 19.95117188 C56.20834489 19.98517159 57.97931888 20.00326651 59.75024414 20.00585938 C63.94250989 20.12599972 66.41903407 20.4308969 70.07446289 22.61132812 C75.53657794 31.722408 71.10379363 48.50685958 70.15063477 58.7121582 C69.93864485 61.02762779 69.73711878 63.34407956 69.54614258 65.66137695 C67.38257855 91.88250902 67.38257855 91.88250902 59.49194336 101.54663086 C57.95727539 102.75195312 57.95727539 102.75195312 54.39477539 102.62695312 C49.50557472 101.79996937 44.55421929 100.62478212 39.95727539 98.75195312 C39.62727539 98.09195313 39.29727539 97.43195313 38.95727539 96.75195312 C39.71911133 96.22408203 39.71911133 96.22408203 40.49633789 95.68554688 C46.63584142 91.28212019 51.72170636 86.67667564 54.95727539 79.75195312 C54.15290039 79.50445312 53.34852539 79.25695312 52.51977539 79.00195312 C48.21403396 77.49116666 44.10363532 75.65006456 39.95727539 73.75195312 C39.73040039 74.49445313 39.50352539 75.23695313 39.26977539 76.00195312 C37.13504517 80.47472121 33.42501583 82.83720722 28.95727539 84.75195312 C22.56410416 85.78486344 17.85097768 84.87753779 12.58618164 81.12304688 C10.66104167 79.50260532 9.17714067 77.96295895 7.95727539 75.75195312 C7.95727539 75.09195313 7.95727539 74.43195313 7.95727539 73.75195312 C7.04204102 74.18507813 6.12680664 74.61820312 5.18383789 75.06445312 C3.99532227 75.62132812 2.80680664 76.17820312 1.58227539 76.75195312 C0.39891602 77.30882812 -0.78444336 77.86570312 -2.00366211 78.43945312 C-5.04272461 79.75195312 -5.04272461 79.75195312 -7.04272461 79.75195312 C-4.56772461 84.20695312 -4.56772461 84.20695312 -2.04272461 88.75195312 C-4.12635551 88.61043484 -6.20962399 88.46357376 -8.29272461 88.31445312 C-10.03295898 88.19263672 -10.03295898 88.19263672 -11.80834961 88.06835938 C-14.36840345 87.81791933 -16.57737832 87.41047243 -19.04272461 86.75195312 C-20.06082876 77.08710472 -21.059472 67.4203982 -22.04272461 57.75195312 C-22.15438965 56.66060059 -22.26605469 55.56924805 -22.38110352 54.44482422 C-23.01124267 48.21880813 -23.57204807 41.99204299 -24.04272461 35.75195312 C-24.10153809 35.04989746 -24.16035156 34.3478418 -24.22094727 33.62451172 C-24.78246276 26.37472278 -24.65232183 20.4026747 -20.42553711 14.28710938 C-16.0139745 9.59349604 -10.92778108 5.70459009 -5.72241211 1.92773438 C-5.11123535 1.48341064 -4.50005859 1.03908691 -3.87036133 0.58129883 C-2.04272461 -0.24804688 -2.04272461 -0.24804688 0 0 Z " fill="#EECEB2" transform="translate(384.042724609375,83.248046875)"/>
<path d="M0 0 C1.0209375 -0.00515625 2.041875 -0.0103125 3.09375 -0.015625 C11.79973855 0.66328236 19.50386442 3.58692832 27.5625 6.8125 C29.32944214 7.51584473 29.32944214 7.51584473 31.13208008 8.23339844 C35.26269722 9.88612743 39.38187548 11.56642993 43.5 13.25 C44.31778931 13.58352478 45.13557861 13.91704956 45.97814941 14.26068115 C51.33247948 16.44686641 56.67733437 18.65457103 62.01339722 20.88497925 C63.7811895 21.62209567 65.55080249 22.35486225 67.32229614 23.08303833 C80.85322407 28.6567604 91.86353396 33.43715204 98.5 47.25 C102.24782347 56.44920307 101.15066576 65.32079905 97.5 74.25 C94.57896173 74.04865271 91.66665824 73.81524723 88.75 73.5625 C87.925 73.50900391 87.1 73.45550781 86.25 73.40039062 C82.00769296 73.00695086 80.09403973 72.81613787 76.921875 69.79296875 C75.5 67.25 75.5 67.25 75.5 65.25 C74.943125 64.97285156 74.38625 64.69570312 73.8125 64.41015625 C72.22499827 63.61372379 70.6418596 62.80855278 69.0625 61.99609375 C68.216875 61.56425781 67.37125 61.13242188 66.5 60.6875 C65.654375 60.25308594 64.80875 59.81867188 63.9375 59.37109375 C59.66479862 57.40592501 56.1377183 57.11335138 51.4375 57.125 C49.87322266 57.12113281 49.87322266 57.12113281 48.27734375 57.1171875 C45.41319372 57.12862843 45.41319372 57.12862843 42.5 58.25 C33.46069801 58.93282497 25.90824767 54.52543807 18.83984375 49.2734375 C12.17020727 43.16437081 5.86423018 33.33918361 4.5 24.25 C4.5 21.61 4.5 18.97 4.5 16.25 C-0.78 16.25 -6.06 16.25 -11.5 16.25 C-10.42080668 23.80435322 -8.88711233 30.6697825 -6.3046875 37.8515625 C-5.5 40.25 -5.5 40.25 -5.5 42.25 C-8.75082532 44.62496484 -12.23209076 46.63514368 -15.68676758 48.69970703 C-17.40737684 49.73192862 -19.11498475 50.78572342 -20.82226562 51.83984375 C-26.38947136 55.18996286 -31.23922536 57.85515872 -37.67895508 58.90771484 C-40.12152135 59.36682168 -41.85906071 60.38773278 -43.875 61.8125 C-46.20036024 63.42494116 -47.76424292 64.33808097 -50.5 65.25 C-51.60836423 67.13316159 -51.60836423 67.13316159 -52.5 69.25 C-53.16 70.24 -53.82 71.23 -54.5 72.25 C-57.109375 72.7265625 -57.109375 72.7265625 -60.25 72.875 C-64.40257799 73.11956289 -68.40846783 73.4544243 -72.5 74.25 C-75.54043372 71.20956628 -75.86993807 68.5780768 -75.99609375 64.34765625 C-74.76949448 59.16116956 -70.34051459 56.2036621 -66.078125 53.48046875 C-65.05332031 52.81982422 -64.02851563 52.15917969 -62.97265625 51.47851562 C-61.90917969 50.80498047 -60.84570312 50.13144531 -59.75 49.4375 C-58.67105469 48.74462891 -57.59210938 48.05175781 -56.48046875 47.33789062 C-53.82510402 45.63422741 -51.16494408 43.93862396 -48.5 42.25 C-50.08286141 38.86793377 -51.765897 36.92957273 -54.5625 34.4375 C-57.3450139 31.70076787 -58.47935369 30.30536965 -59.875 26.5625 C-59.5 23.25 -59.5 23.25 -57.01293945 20.7878418 C-53.29593067 17.88292732 -49.25700864 16.11878796 -44.91796875 14.33203125 C-43.69754631 13.8170533 -43.69754631 13.8170533 -42.45246887 13.29167175 C-40.73923449 12.57161821 -39.02382684 11.85671594 -37.30639648 11.14672852 C-34.70029027 10.0677952 -32.10283678 8.96983814 -29.50585938 7.86914062 C-27.83121015 7.16812071 -26.15609437 6.46821409 -24.48046875 5.76953125 C-23.71453903 5.44555862 -22.94860931 5.121586 -22.1594696 4.78779602 C-14.94499604 1.82656965 -7.84208871 -0.03960651 0 0 Z " fill="#646B76" transform="translate(243.5,23.75)"/>
<path d="M0 0 C5.94 0 11.88 0 18 0 C18.886875 1.711875 19.77375 3.42375 20.6875 5.1875 C24.88076157 12.83922264 30.62786407 18.84221687 38.8203125 22.1328125 C46.22297033 24.15171918 54.50381466 23.39463913 62 22 C62.66032958 38.65497952 61.45064599 53.91697715 50.75 67.375 C42.63523924 75.95346137 32.14552666 79.94075574 20.52684021 80.41059875 C17.24047037 80.49042511 13.95669771 80.50985935 10.66943359 80.50097656 C8.13653699 80.50000443 5.6066799 80.54172382 3.07421875 80.5859375 C-9.6894549 80.680074 -19.8868511 78.41481006 -29.96484375 70.01953125 C-37.82731205 62.21742739 -42.17191688 53.20195497 -43.1875 42.25 C-43.26790527 41.46447754 -43.34831055 40.67895508 -43.43115234 39.86962891 C-44.00552503 33.90668517 -44.23749192 27.99007408 -44 22 C-42.906875 22.165 -41.81375 22.33 -40.6875 22.5 C-29.22248844 23.82986074 -20.09876434 22.97645335 -10.34765625 16.140625 C-7.90173907 13.91040434 -6.44319931 11.86793229 -4.8125 9 C-4.32394531 8.154375 -3.83539063 7.30875 -3.33203125 6.4375 C-2.17334458 4.31720533 -1.08057432 2.16114863 0 0 Z " fill="#EDCDB2" transform="translate(247,120)"/>
<path d="M0 0 C4.73127925 10.772109 6.58152784 20.51127276 6.5625 32.3125 C6.56443359 33.48659424 6.56636719 34.66068848 6.56835938 35.87036133 C6.38408567 45.49936064 6.38408567 45.49936064 3 50 C-0.7696881 51.2565627 -4.31717743 51.18175362 -8.24609375 51.203125 C-9.45737694 51.21167511 -9.45737694 51.21167511 -10.69313049 51.22039795 C-12.40030612 51.22983834 -14.10749989 51.23637812 -15.81469727 51.24023438 C-18.42431375 51.2499509 -21.03314607 51.2809869 -23.64257812 51.3125 C-25.30207866 51.31902933 -26.96158482 51.32428007 -28.62109375 51.328125 C-29.40036728 51.3404718 -30.17964081 51.3528186 -30.98252869 51.36553955 C-34.22277164 51.35223287 -36.58383795 51.22539875 -39.46118164 49.66699219 C-45.06735225 43.59386306 -42.58234957 29.08425686 -42.30029297 21.40673828 C-41.65590459 14.09633551 -39.11920763 7.58189944 -36 1 C-34.845 1.165 -33.69 1.33 -32.5 1.5 C-21.11530682 2.74491891 -10.9634602 0 0 0 Z " fill="#EECEB2" transform="translate(146,373)"/>
<path d="M0 0 C1.50433594 0.01353516 1.50433594 0.01353516 3.0390625 0.02734375 C3.80992188 0.03894531 4.58078125 0.05054688 5.375 0.0625 C4.73621046 3.56069415 3.85316151 6.94430158 2.89165306 10.36622906 C0.41999956 19.41216421 -0.1989249 27.90552943 -0.1640625 37.26171875 C-0.17401377 38.75471915 -0.18597138 40.24770735 -0.19979858 41.74067688 C-0.23175089 45.62355885 -0.24251479 49.50615973 -0.24664307 53.38916016 C-0.25548876 59.61009566 -0.29149555 65.83080518 -0.3388176 72.05155373 C-0.35117448 74.1944295 -0.35066602 76.33700092 -0.34854126 78.47990417 C-0.40124985 96.35761641 -3.92676362 112.33164697 -12.625 128.0625 C-13.945 128.0625 -15.265 128.0625 -16.625 128.0625 C-16.71850501 112.91128882 -16.78900938 97.76009096 -16.83224869 82.60865593 C-16.85286052 75.57331564 -16.8809544 68.53815479 -16.92675781 61.50292969 C-16.97093469 54.71428857 -16.99413415 47.92583406 -17.00450897 41.13705826 C-17.01190311 38.54627675 -17.02634194 35.95550551 -17.04792023 33.36480331 C-17.07693169 29.7376063 -17.08095677 26.11118098 -17.07910156 22.48388672 C-17.09348267 21.41142197 -17.10786377 20.33895721 -17.12268066 19.23399353 C-17.08910841 13.1730032 -16.67510343 9.67206658 -12.625 5.0625 C-8.17197224 1.13959459 -5.89336299 -0.06852748 0 0 Z " fill="#74AFF0" transform="translate(32.625,247.9375)"/>
<path d="M0 0 C5.28 0 10.56 0 16 0 C15.69711773 9.08646817 12.61338644 18.02942662 5.875 24.4375 C-5.54716475 32.45986437 -16.34652333 32.64482797 -29.75 32.3125 C-31.52600998 32.28736472 -33.30205455 32.26456086 -35.078125 32.24414062 C-39.38699125 32.19389732 -43.69095304 32.09599362 -48 32 C-48 26.72 -48 21.44 -48 16 C-45.47085937 15.96261719 -42.94171875 15.92523438 -40.3359375 15.88671875 C-37.8734496 15.84044365 -35.41111011 15.7892319 -32.94873047 15.73754883 C-31.24374488 15.70439364 -29.53865202 15.67633263 -27.83349609 15.65356445 C-25.37551366 15.61984432 -22.91850594 15.56752206 -20.4609375 15.51171875 C-19.32620499 15.50213387 -19.32620499 15.50213387 -18.16854858 15.49235535 C-12.28460412 15.33066061 -8.034924 14.034924 -3.75 9.75 C-1.49782812 6.49870605 -1.49782812 6.49870605 0 0 Z " fill="#010101" transform="translate(408,312)"/>
<path d="M0 0 C0.5775 0.9075 1.155 1.815 1.75 2.75 C4.32151591 6.46441188 6.76368677 8.55561892 11 10 C16.3721878 10.93772283 20.68609003 10.5725102 25.4375 7.8125 C28.51264439 5.63815548 30.41215082 3.47342007 32 0 C35.85025879 0.60355408 38.86101159 1.76772603 42.3125 3.5625 C43.19550781 4.01753906 44.07851562 4.47257812 44.98828125 4.94140625 C45.65214844 5.29074219 46.31601563 5.64007813 47 6 C43.49966095 15.35044274 37.99544843 20.727162 29 25 C20.52728927 28.44203873 11.03573326 28.13087863 2.625 24.8125 C-5.61938775 20.95867812 -10.56549406 16.00412596 -15 8 C-15 7.34 -15 6.68 -15 6 C-13.06629769 4.99267601 -11.12789694 3.99436712 -9.1875 3 C-8.10855469 2.443125 -7.02960938 1.88625 -5.91796875 1.3125 C-3 0 -3 0 0 0 Z " fill="#040303" transform="translate(112,317)"/>
<path d="M0 0 C0.5775 0.9075 1.155 1.815 1.75 2.75 C4.32151591 6.46441188 6.76368677 8.55561892 11 10 C16.3721878 10.93772283 20.68609003 10.5725102 25.4375 7.8125 C28.51264439 5.63815548 30.41215082 3.47342007 32 0 C35.85025879 0.60355408 38.86101159 1.76772603 42.3125 3.5625 C43.19550781 4.01753906 44.07851563 4.47257813 44.98828125 4.94140625 C45.65214844 5.29074219 46.31601562 5.64007813 47 6 C43.49966095 15.35044274 37.99544843 20.727162 29 25 C20.52728927 28.44203873 11.03573326 28.13087863 2.625 24.8125 C-5.61938775 20.95867812 -10.56549406 16.00412596 -15 8 C-15 7.34 -15 6.68 -15 6 C-13.06629769 4.99267601 -11.12789694 3.99436712 -9.1875 3 C-8.10855469 2.443125 -7.02960938 1.88625 -5.91796875 1.3125 C-3 0 -3 0 0 0 Z " fill="#040303" transform="translate(240,157)"/>
<path d="M0 0 C0.5775 0.9075 1.155 1.815 1.75 2.75 C4.32151591 6.46441188 6.76368677 8.55561892 11 10 C16.3721878 10.93772283 20.68609003 10.5725102 25.4375 7.8125 C28.51264439 5.63815548 30.41215082 3.47342007 32 0 C35.85025879 0.60355408 38.86101159 1.76772603 42.3125 3.5625 C43.19550781 4.01753906 44.07851562 4.47257813 44.98828125 4.94140625 C45.65214844 5.29074219 46.31601563 5.64007813 47 6 C43.49966095 15.35044274 37.99544843 20.727162 29 25 C20.52728927 28.44203873 11.03573326 28.13087863 2.625 24.8125 C-5.61938775 20.95867812 -10.56549406 16.00412596 -15 8 C-15 7.34 -15 6.68 -15 6 C-13.06629769 4.99267601 -11.12789694 3.99436712 -9.1875 3 C-8.10855469 2.443125 -7.02960938 1.88625 -5.91796875 1.3125 C-3 0 -3 0 0 0 Z " fill="#040303" transform="translate(88,157)"/>
<path d="M0 0 C12.54 0 25.08 0 38 0 C41.65724525 10.97173575 41.65724525 10.97173575 41 14 C39.07226562 16.03637695 39.07226562 16.03637695 36.40625 17.98828125 C35.45878906 18.69404297 34.51132812 19.39980469 33.53515625 20.12695312 C32.53355469 20.84818359 31.53195312 21.56941406 30.5 22.3125 C29.49839844 23.05306641 28.49679687 23.79363281 27.46484375 24.55664062 C24.98674643 26.38571246 22.49862656 28.1991282 20 30 C16.87361141 28.54890729 14.21723521 26.79659374 11.453125 24.7421875 C10.18662109 23.80439453 10.18662109 23.80439453 8.89453125 22.84765625 C8.02183594 22.19667969 7.14914062 21.54570312 6.25 20.875 C5.36183594 20.21628906 4.47367187 19.55757813 3.55859375 18.87890625 C1.37032904 17.25535501 -0.81576909 15.62897174 -3 14 C-2.4618756 8.79813078 -1.69880437 5.09641312 0 0 Z " fill="#ECCCB1" transform="translate(365,376)"/>
<path d="M0 0 C4.98669007 2.49334503 8.49675474 5.99350949 11 11 C11.54360446 15.95482094 11.56437074 19.87125852 9.3125 24.375 C5.0130325 29.25547662 1.79098196 31.81698479 -4.8125 32.25 C-8.87306094 32.18294487 -11.56188674 31.2660292 -15 29 C-19.61482792 24.00060309 -21.48260683 19.99383721 -21.31640625 13.24609375 C-20.64678319 8.49259675 -17.84718903 5.74633319 -14.375 2.6875 C-9.71860985 -0.62098774 -5.60468123 -0.62082623 0 0 Z " fill="#66D0EE" transform="translate(221,96)"/>
<path d="M0 0 C4.98669007 2.49334503 8.49675474 5.99350949 11 11 C11.88907141 17.12189171 10.92166349 21.29796694 7.36328125 26.33984375 C4.68075012 29.60653638 2.20064347 31.4165773 -2 32 C-8.13894411 32.49507614 -11.1122937 32.11011666 -16 28 C-20.39893104 23.00661882 -21.35676337 20.08984773 -21.28125 13.5390625 C-20.73016315 8.56397287 -17.99302299 5.87480597 -14.375 2.6875 C-9.71860985 -0.62098774 -5.60468123 -0.62082623 0 0 Z " fill="#66D0EE" transform="translate(301,96)"/>
<path d="M0 0 C3.22265625 5.17578125 3.22265625 5.17578125 4 7 C2.26590025 12.20229926 -3.13173348 14.05650804 -7.6875 16.75 C-8.68201172 17.36488281 -9.67652344 17.97976562 -10.70117188 18.61328125 C-11.66990234 19.18949219 -12.63863281 19.76570313 -13.63671875 20.359375 C-14.52061279 20.89014648 -15.40450684 21.42091797 -16.31518555 21.96777344 C-19.7228383 23.27790855 -21.50936199 22.99149974 -25 22 C-27.60888672 20.69311523 -27.60888672 20.69311523 -30.1796875 19.05859375 C-31.1078125 18.47529297 -32.0359375 17.89199219 -32.9921875 17.29101562 C-33.94351563 16.67935547 -34.89484375 16.06769531 -35.875 15.4375 C-36.84953125 14.82197266 -37.8240625 14.20644531 -38.828125 13.57226562 C-41.22449412 12.05691457 -43.61469443 10.53268436 -46 9 C-44.87548273 6.0280615 -43.77706209 3.66559313 -42 1 C-39.14421487 0.66188023 -36.49504824 0.51090741 -33.6328125 0.48828125 C-32.80167938 0.47033005 -31.97054626 0.45237885 -31.11422729 0.43388367 C-28.45120396 0.37962643 -25.788359 0.34587001 -23.125 0.3125 C-21.33721426 0.27933293 -19.54945252 0.24484385 -17.76171875 0.20898438 C-11.84117695 0.09531857 -5.92180894 0 0 0 Z " fill="#ECCCB1" transform="translate(277,215)"/>
<path d="M0 0 C3.04293103 10.60816272 5.85784618 21.16731971 8 32 C6.27318563 32.50806447 4.54342021 33.00610467 2.8125 33.5 C1.84957031 33.7784375 0.88664063 34.056875 -0.10546875 34.34375 C-2.85345876 34.96677608 -5.19598416 35.12302812 -8 35 C-8.79467142 32.18831904 -9.58579233 29.37571498 -10.375 26.5625 C-10.59671875 25.77939453 -10.8184375 24.99628906 -11.046875 24.18945312 C-15.37029563 8.73958233 -15.37029563 8.73958233 -15 3 C-13.0636296 2.49564306 -11.12585854 1.99666126 -9.1875 1.5 C-8.10855469 1.2215625 -7.02960938 0.943125 -5.91796875 0.65625 C-3 0 -3 0 0 0 Z " fill="#070604" transform="translate(128,246)"/>
<path d="M0 0 C3.04293103 10.60816272 5.85784618 21.16731971 8 32 C6.27318563 32.50806447 4.54342021 33.00610467 2.8125 33.5 C1.84957031 33.7784375 0.88664063 34.056875 -0.10546875 34.34375 C-2.85345876 34.96677608 -5.19598416 35.12302812 -8 35 C-9.16392576 30.67515912 -10.31992397 26.34833818 -11.46533203 22.01855469 C-11.95207599 20.18092956 -12.44262746 18.34431403 -12.93359375 16.5078125 C-13.20300781 15.47398437 -13.47242188 14.44015625 -13.75 13.375 C-13.99234375 12.45460938 -14.2346875 11.53421875 -14.484375 10.5859375 C-15.00274751 7.9862208 -15.09542289 5.64321394 -15 3 C-13.0636296 2.49564306 -11.12585854 1.99666126 -9.1875 1.5 C-8.10855469 1.2215625 -7.02960938 0.943125 -5.91796875 0.65625 C-3 0 -3 0 0 0 Z " fill="#060504" transform="translate(160,246)"/>
<path d="M0 0 C1.26699248 10.71287388 2.34910893 21.1970182 2 32 C-4.09940955 32.42064893 -7.13663653 32.08964656 -12 28 C-16.39893104 23.00661882 -17.35676337 20.08984773 -17.28125 13.5390625 C-16.73016315 8.56397287 -13.99302299 5.87480597 -10.375 2.6875 C-6.64454088 0.03691062 -4.55864123 -0.0991009 0 0 Z " fill="#E6C8AD" transform="translate(313,280)"/>
<path d="M0 0 C5.38738958 -0.20258986 7.74035649 0.573765 12 4 C16.39893104 8.99338118 17.35676337 11.91015227 17.28125 18.4609375 C16.73281999 23.4120418 13.99954217 26.09797414 10.4375 29.3125 C6.27242882 32.19601081 2.94941562 32.0933852 -2 32 C-2.34910893 21.1970182 -1.26699248 10.71287388 0 0 Z " fill="#E6C8AD" transform="translate(455,280)"/>
<path d="M0 0 C3.31003729 9.93011187 2.11059115 21.62900768 2 32 C-3.78836581 32.1849537 -6.45329412 31.73840261 -11 28 C-15.39893104 23.00661882 -16.35676337 20.08984773 -16.28125 13.5390625 C-15.73016315 8.56397287 -12.99302299 5.87480597 -9.375 2.6875 C-5.94142588 0.24785523 -4.17600563 -0.10989488 0 0 Z " fill="#E6C7AD" transform="translate(184,112)"/>
<path d="M0 0 C5.60795104 0.22889596 8.34479785 1.6158498 12.51953125 5.33203125 C16.17097285 9.44592455 16.43409959 13.19581856 16.31640625 18.53125 C15.70476739 23.30354333 12.99648558 25.94657239 9.8125 29.3125 C5.97368574 31.61578856 2.41030263 31.80782995 -2 32 C-2.26865672 6.80597015 -2.26865672 6.80597015 0 0 Z " fill="#E6C8AD" transform="translate(328,112)"/>
<path d="M0 0 C1.22995949 0.9156026 2.45892386 1.83254203 3.6875 2.75 C4.42613281 3.30042969 5.16476563 3.85085937 5.92578125 4.41796875 C7.45012634 5.58060483 8.92751061 6.80546974 10.375 8.0625 C14.28660471 10.94963681 18.61689485 12.92334436 23 15 C21.8741386 18.53842155 20.66905241 21.66189518 19 25 C13.06 25 7.12 25 1 25 C0.113125 23.288125 -0.77375 21.57625 -1.6875 19.8125 C-3.4836253 16.48902825 -5.09285255 13.57488145 -7.875 11 C-8.57625 10.34 -9.2775 9.68 -10 9 C-10 8.01 -10 7.02 -10 6 C-7.8125 4.39453125 -7.8125 4.39453125 -5 2.8125 C-4.071875 2.28269531 -3.14375 1.75289063 -2.1875 1.20703125 C-1.465625 0.80871094 -0.74375 0.41039063 0 0 Z " fill="#EBCCB0" transform="translate(246,79)"/>
<path d="M0 0 C1.75445809 10.76172061 2.23990235 21.11109903 2 32 C-3.78836581 32.1849537 -6.45329412 31.73840261 -11 28 C-15.39893104 23.00661882 -16.35676337 20.08984773 -16.28125 13.5390625 C-15.73016315 8.56397287 -12.99302299 5.87480597 -9.375 2.6875 C-5.94142588 0.24785523 -4.17600563 -0.10989488 0 0 Z " fill="#E7C8AD" transform="translate(40,112)"/>
<path d="M0 0 C2.64052604 0.7925313 4.66380775 1.78026577 7.01489258 3.21069336 C8.20888672 3.93675781 8.20888672 3.93675781 9.42700195 4.67749023 C10.24362305 5.18473633 11.06024414 5.69198242 11.90161133 6.21459961 C12.73756836 6.71797852 13.57352539 7.22135742 14.43481445 7.73999023 C19.01570604 10.55583625 19.01570604 10.55583625 20.58911133 11.77709961 C20.58911133 12.43709961 20.58911133 13.09709961 20.58911133 13.77709961 C18.28744346 15.56793813 15.98672232 17.24969203 13.58911133 18.90209961 C12.92137695 19.3700293 12.25364258 19.83795898 11.56567383 20.32006836 C9.91096867 21.47836197 8.25055826 22.62849726 6.58911133 23.77709961 C2.80570349 20.3763813 0.3638745 16.53503746 -2.22338867 12.21459961 C-2.64297852 11.54235352 -3.06256836 10.87010742 -3.49487305 10.17749023 C-4.55100409 8.42539146 -5.49016807 6.60399218 -6.41088867 4.77709961 C-5.19266603 1.12243167 -4.01585712 -0.37128887 0 0 Z " fill="#9BCD64" transform="translate(220.410888671875,236.222900390625)"/>
<path d="M0 0 C1.90474256 1.43988714 3.75650803 2.92761222 5.59838867 4.44702148 C6.24356445 4.9671582 6.88874023 5.48729492 7.5534668 6.02319336 C9.13753332 7.30218041 10.71262273 8.59227193 12.28588867 9.88452148 C9.43775529 12.95602747 6.72327362 14.09550213 2.78588867 15.57202148 C1.06885742 16.22750977 1.06885742 16.22750977 -0.68286133 16.89624023 C-3.71411133 17.88452148 -3.71411133 17.88452148 -6.71411133 17.88452148 C-7.74890346 15.47300591 -8.76704853 13.0565768 -9.77661133 10.63452148 C-10.2184375 9.61165039 -10.2184375 9.61165039 -10.66918945 8.56811523 C-12.19732758 4.86462754 -12.95540506 2.70048678 -11.71411133 -1.11547852 C-7.31492536 -2.24669776 -3.94900077 -2.56985964 0 0 Z " fill="#5A98E6" transform="translate(354.714111328125,403.115478515625)"/>
<path d="M0 0 C-0.58652352 4.48993869 -1.7643538 8.22543184 -3.5625 12.375 C-4.01753906 13.43460937 -4.47257812 14.49421875 -4.94140625 15.5859375 C-5.29074219 16.38257813 -5.64007813 17.17921875 -6 18 C-10.48993869 17.41347648 -14.22543184 16.2356462 -18.375 14.4375 C-19.43460937 13.98246094 -20.49421875 13.52742188 -21.5859375 13.05859375 C-22.38257813 12.70925781 -23.17921875 12.35992187 -24 12 C-24 9 -24 9 -22.76586914 7.61791992 C-20.88588001 6.11079928 -18.98684601 4.63765186 -17.0625 3.1875 C-16.42248047 2.65962891 -15.78246094 2.13175781 -15.12304688 1.58789062 C-9.7406431 -2.47702924 -6.23996094 -2.29512688 0 0 Z " fill="#5B98E7" transform="translate(426,403)"/>
<path d="M0 0 C0.495 6.93 0.495 6.93 1 14 C-7.25 14 -15.5 14 -24 14 C-24 11.36 -24 8.72 -24 6 C-22.74896484 5.85304687 -22.74896484 5.85304687 -21.47265625 5.703125 C-15.03534762 4.84776669 -9.51450373 3.75690913 -3.70703125 0.8046875 C-2 0 -2 0 0 0 Z " fill="#AF7744" transform="translate(348,154)"/>
<path d="M0 0 C1.4552777 2.9105554 0.63516661 4.95849052 0.0625 8.125 C-0.13214844 9.22070312 -0.32679688 10.31640625 -0.52734375 11.4453125 C-0.68332031 12.28835937 -0.83929688 13.13140625 -1 14 C-3.97 12.02 -6.94 10.04 -10 8 C-8.76736651 4.30209954 -7.79947549 4.0645154 -4.4375 2.3125 C-3.61121094 1.87550781 -2.78492188 1.43851563 -1.93359375 0.98828125 C-1.29550781 0.66214844 -0.65742188 0.33601562 0 0 Z " fill="#97C862" transform="translate(281,242)"/>
</svg>
