<svg version="1.1" id="Layer_1" xmlns="http://www.w3.org/2000/svg" xmlns:xlink="http://www.w3.org/1999/xlink" x="0px" y="0px"
	 width="100%" viewBox="0 0 512 512" enable-background="new 0 0 512 512" xml:space="preserve">
<path fill="#FFFFFF" opacity="1.000000" stroke="none" 
	d="
M0.999998,452.000000 
	C1.000000,301.759430 1.000000,151.518860 1.000000,1.000000 
	C85.021805,1.000000 169.043930,1.000000 253.406693,1.321901 
	C244.065643,7.207504 237.897873,15.020662 236.952133,26.586744 
	C235.815887,40.482395 241.225906,50.930290 253.106689,57.864285 
	C254.990723,58.963867 258.506470,59.018147 260.443787,57.995171 
	C274.267090,50.696064 279.833008,36.658714 276.212952,21.575260 
	C273.964386,12.206166 267.650970,6.087607 260.000000,1.000000 
	C344.281281,1.000000 428.562592,1.000000 513.000000,1.000000 
	C513.000000,151.021973 513.000000,301.044006 512.715942,451.404602 
	C511.732635,451.006714 511.033356,450.270233 510.265503,449.211304 
	C507.629120,441.667572 501.427368,440.242859 495.012207,440.090271 
	C482.019806,439.781219 469.015228,439.984924 456.009705,439.542267 
	C455.947174,437.075714 455.890594,435.044098 455.910522,432.548401 
	C455.951813,401.412476 455.916595,370.740662 455.922668,339.598297 
	C455.647156,332.875214 455.846069,326.542877 454.894196,320.388519 
	C453.416992,310.837433 448.700378,302.901733 438.514587,301.207703 
	C428.832947,299.597534 418.876007,299.642761 409.029114,298.494080 
	C408.970978,265.370239 408.923859,232.712448 408.921021,199.587662 
	C408.976257,195.643082 409.363770,192.114899 408.904785,188.700470 
	C408.305389,184.241074 407.621735,179.628983 405.918976,175.519928 
	C403.296234,169.190796 397.655121,166.592209 390.795990,165.624680 
	C375.061340,165.159927 359.571289,165.049484 344.055054,164.474945 
	C344.025116,158.859650 344.064728,153.707993 344.008820,148.557358 
	C343.875671,136.284393 339.781403,132.077530 327.417877,131.997070 
	C313.295288,131.905151 299.171997,131.915924 285.030090,131.422211 
	C285.007538,119.859436 285.057617,108.756165 284.984253,97.653725 
	C284.918793,87.748207 279.242706,80.710182 270.826965,78.577805 
	C263.593292,76.307213 256.710266,75.463303 249.305222,76.842819 
	C235.263184,79.458763 229.055923,86.232582 229.032990,100.580673 
	C229.016266,111.046394 228.960236,121.512054 228.458923,131.987045 
	C222.642929,132.053345 217.289734,132.110321 211.475266,132.110229 
	C202.211258,132.046783 193.385971,131.640778 184.611526,132.135818 
	C173.807678,132.745377 170.892181,136.031342 170.112701,146.541992 
	C169.659363,152.654739 169.991852,158.825775 169.503998,164.990784 
	C155.179977,165.004852 141.322556,164.969055 127.465599,165.034790 
	C125.947838,165.041992 124.432831,165.632767 122.514175,165.971191 
	C114.333076,166.343536 107.021286,172.762177 106.083839,180.822769 
	C105.343849,187.185562 105.440872,193.645691 105.104828,200.523682 
	C105.036140,233.622330 105.028786,266.259888 104.552734,298.939331 
	C96.022331,299.314667 87.939392,299.388062 79.904015,300.044067 
	C68.562462,300.970001 60.369244,308.705994 59.072491,319.898315 
	C58.299397,326.570923 58.433075,333.348572 58.100441,340.539368 
	C58.014084,373.999756 57.986401,406.999817 57.492645,439.999939 
	C44.426628,440.000122 31.826494,439.958557 19.226801,440.015137 
	C11.009708,440.052063 5.841619,443.281158 3.392430,449.677551 
	C2.410829,450.551056 1.705412,451.275513 0.999998,452.000000 
z"/>
<path fill="#57BAE5" opacity="1.000000" stroke="none" 
	d="
M452.000000,513.000000 
	C332.644043,513.000000 213.288055,513.000000 93.422920,512.663452 
	C83.445694,503.536835 73.889610,494.838776 64.552376,485.911804 
	C60.749874,482.276428 57.422508,478.144073 54.350441,474.168579 
	C55.320747,474.075195 55.819592,474.029816 56.318432,474.029785 
	C200.355453,474.023041 344.392456,474.016022 488.429474,474.060242 
	C489.978180,474.060730 491.526703,474.732666 492.919250,475.391418 
	C485.576691,482.226898 478.374725,488.745239 471.208282,495.302460 
	C464.785187,501.179443 458.401245,507.099152 452.000000,513.000000 
z"/>
<path fill="#92C6DB" opacity="1.000000" stroke="none" 
	d="
M493.075317,475.091187 
	C491.526703,474.732666 489.978180,474.060730 488.429474,474.060242 
	C344.392456,474.016022 200.355453,474.023041 56.318432,474.029785 
	C55.819592,474.029816 55.320747,474.075195 53.896370,474.111206 
	C43.667477,474.093506 34.363838,474.021088 25.061060,474.081085 
	C23.673763,474.090027 22.290483,474.721405 20.499897,475.032288 
	C11.449485,474.628082 5.149035,470.525757 1.000000,463.000000 
	C1.000000,459.638702 1.000000,456.277435 0.999998,452.458069 
	C1.705412,451.275513 2.410829,450.551056 3.684767,449.947021 
	C7.851635,455.422394 12.995893,457.075226 19.267792,457.072571 
	C177.687286,457.005188 336.106781,456.997711 494.526245,457.095154 
	C501.259094,457.099274 506.475677,455.008331 510.334076,449.533752 
	C511.033356,450.270233 511.732635,451.006714 512.715942,451.871582 
	C513.000000,455.361298 513.000000,458.722565 512.697998,462.697144 
	C508.672943,471.693451 501.561920,474.520294 493.075317,475.091187 
z"/>
<path fill="#F99830" opacity="1.000000" stroke="none" 
	d="
M259.571533,1.000000 
	C267.650970,6.087607 273.964386,12.206166 276.212952,21.575260 
	C279.833008,36.658714 274.267090,50.696064 260.443787,57.995171 
	C258.506470,59.018147 254.990723,58.963867 253.106689,57.864285 
	C241.225906,50.930290 235.815887,40.482395 236.952133,26.586744 
	C237.897873,15.020662 244.065643,7.207504 253.873672,1.321901 
	C255.714355,1.000000 257.428711,1.000000 259.571533,1.000000 
z"/>
<path fill="#FFFFFF" opacity="1.000000" stroke="none" 
	d="
M1.000000,463.468658 
	C5.149035,470.525757 11.449485,474.628082 20.669491,475.327209 
	C28.435146,482.191071 35.645031,488.706451 42.810669,495.270111 
	C49.232456,501.152405 55.605480,507.087952 62.000008,513.000000 
	C41.747135,513.000000 21.494272,513.000000 1.000000,513.000000 
	C1.000000,496.646576 1.000000,480.291931 1.000000,463.468658 
z"/>
<path fill="#FFFFFF" opacity="1.000000" stroke="none" 
	d="
M492.919250,475.391418 
	C501.561920,474.520294 508.672943,471.693451 512.697998,463.155212 
	C513.000000,479.600708 513.000000,496.201416 513.000000,513.000000 
	C492.979553,513.000000 472.958435,513.000000 452.468658,513.000000 
	C458.401245,507.099152 464.785187,501.179443 471.208282,495.302460 
	C478.374725,488.745239 485.576691,482.226898 492.919250,475.391418 
z"/>
<path fill="#35AAD2" opacity="1.000000" stroke="none" 
	d="
M62.468666,513.000000 
	C55.605480,507.087952 49.232456,501.152405 42.810669,495.270111 
	C35.645031,488.706451 28.435146,482.191071 21.074938,475.359741 
	C22.290483,474.721405 23.673763,474.090027 25.061060,474.081085 
	C34.363838,474.021088 43.667477,474.093506 53.424908,474.180389 
	C57.422508,478.144073 60.749874,482.276428 64.552376,485.911804 
	C73.889610,494.838776 83.445694,503.536835 92.956879,512.663452 
	C82.979103,513.000000 72.958214,513.000000 62.468666,513.000000 
z"/>
<path fill="#7D5538" opacity="1.000000" stroke="none" 
	d="
M455.833984,433.012451 
	C455.890594,435.044098 455.947174,437.075714 455.624023,439.703735 
	C453.272400,440.459747 451.300537,440.758850 449.328613,440.759216 
	C331.369049,440.781494 213.409454,440.779633 95.449883,440.774384 
	C93.618462,440.774323 91.787033,440.703156 89.962952,440.219116 
	C89.980904,436.953369 89.992943,434.133698 90.001915,431.314026 
	C90.076851,407.764343 90.151230,384.214691 90.567062,360.779297 
	C102.033882,367.534180 112.691124,366.460815 123.153465,359.207855 
	C129.307465,354.941650 135.765488,351.115997 141.958664,346.903839 
	C151.679672,340.292328 161.110809,340.790833 170.782486,347.162506 
	C179.390198,352.833252 188.206192,358.200470 197.073334,363.460510 
	C203.284470,367.144989 209.845184,367.186157 216.073013,363.493591 
	C225.228180,358.065399 234.306137,352.495209 243.254562,346.733276 
	C252.523285,340.765045 261.555298,340.622894 270.768341,346.755463 
	C277.834961,351.459259 285.058960,355.925964 292.151245,360.592010 
	C302.599121,367.465668 312.890350,367.798737 323.222534,360.303375 
	C325.621460,358.563110 328.352661,357.280884 331.065369,356.106995 
	C344.840240,370.999603 359.222046,384.723022 375.804810,395.998810 
	C377.817078,397.367065 379.194733,399.668610 380.512024,401.400696 
	C377.732849,400.167175 375.334808,399.006226 372.877869,397.987274 
	C367.627258,395.809692 363.106964,397.316315 361.044891,401.851562 
	C359.123657,406.077026 360.821075,410.424316 365.694855,412.999390 
	C369.663727,415.096375 373.774719,416.929474 377.856171,418.806763 
	C381.852417,420.644897 385.935425,421.457855 389.427460,417.941864 
	C393.151428,414.192413 392.295929,410.129852 389.991974,406.134430 
	C391.305847,406.440033 392.287018,406.670441 393.165771,407.106964 
	C404.598999,412.786865 415.781281,419.055084 427.516296,424.017426 
	C436.599243,427.858337 446.369354,430.074188 455.833984,433.012451 
M264.754761,401.621338 
	C263.169830,405.265717 263.629822,408.984009 266.874023,410.938202 
	C269.244354,412.366028 273.237640,413.252167 275.537476,412.219513 
	C281.236908,409.660339 286.575989,406.135071 291.679565,402.468628 
	C295.217651,399.926910 295.654022,395.912628 293.420319,392.207031 
	C291.365295,388.797821 287.788208,386.583527 284.113068,388.608826 
	C277.506409,392.249481 271.379822,396.761475 264.754761,401.621338 
M184.508148,406.957550 
	C182.993668,406.286682 181.500549,405.561584 179.960754,404.954956 
	C175.086716,403.034760 170.966904,404.293976 168.818542,408.310974 
	C166.561035,412.532074 167.874039,417.198456 172.557999,419.706787 
	C177.514542,422.361115 182.646072,424.746277 187.869095,426.827576 
	C192.246552,428.571899 196.534576,426.718628 198.406326,422.892944 
	C200.379883,418.859192 198.902985,414.322784 194.567261,411.874512 
	C191.542435,410.166443 188.336700,408.778687 184.508148,406.957550 
M203.956848,393.447632 
	C206.957291,400.058899 212.007843,402.641754 217.813568,400.533936 
	C222.951126,398.668701 225.998245,392.733459 224.455368,387.596863 
	C222.766235,381.973358 217.352341,378.833527 211.553604,380.114471 
	C206.136185,381.311127 202.997345,386.419037 203.956848,393.447632 
M332.915955,403.915497 
	C330.604492,399.508514 327.035248,397.178925 321.996338,397.704498 
	C315.941711,398.336090 311.648773,403.833038 312.531464,409.574127 
	C313.490265,415.810364 319.213684,419.988556 325.128784,418.770477 
	C331.551086,417.447906 334.839600,411.650146 332.915955,403.915497 
M150.224396,406.529877 
	C152.276306,400.651886 151.420685,396.155823 147.449768,393.113861 
	C143.603668,390.167572 139.379410,390.018036 135.315140,392.479980 
	C131.634766,394.709381 129.650345,398.228363 130.181534,402.580933 
	C130.728592,407.063538 133.315842,410.440277 137.698685,411.655334 
	C142.604691,413.015503 146.947403,411.780518 150.224396,406.529877 
z"/>
<path fill="#8E5E3D" opacity="1.000000" stroke="none" 
	d="
M408.876770,200.054657 
	C408.923859,232.712448 408.970978,265.370239 408.558624,298.528931 
	C403.780762,299.032684 399.462341,299.031982 395.143951,299.038910 
	C361.097809,299.093658 327.051666,299.149811 292.672913,299.145264 
	C291.892029,299.046570 291.443695,299.008148 290.992615,298.593689 
	C288.784729,293.065582 286.305908,288.010559 284.436829,282.739319 
	C281.417999,274.225372 278.800415,265.569153 276.342804,257.118469 
	C282.563965,261.128113 288.082520,260.867157 291.895325,256.544006 
	C295.478455,252.481293 295.559021,246.531464 292.085999,242.460541 
	C286.419434,235.818436 277.364838,238.039886 272.942505,246.866425 
	C272.080017,244.930359 271.489227,243.219955 271.007538,241.479355 
	C269.569397,236.282364 268.174042,231.073532 266.833313,225.665253 
	C266.904602,225.461166 267.018372,225.044037 267.381653,225.035751 
	C276.203644,219.773346 284.763641,214.674042 293.094421,209.224289 
	C302.627045,202.988297 311.949768,202.822205 321.454041,209.145493 
	C328.238464,213.659210 335.180695,217.936966 341.936890,222.491531 
	C352.738708,229.773361 363.375000,229.266083 374.019287,222.223419 
	C379.706055,218.460815 385.385162,214.684158 391.139374,211.026520 
	C397.006134,207.297318 402.960663,203.706207 408.876770,200.054657 
M328.196869,276.438751 
	C330.894714,273.001862 331.132996,269.353668 328.398041,265.981079 
	C325.644348,262.585388 321.971527,262.115997 318.028473,263.939270 
	C313.349152,266.102966 308.617004,268.164948 304.025330,270.502075 
	C299.502197,272.804291 297.706451,277.291260 299.376282,281.320953 
	C300.899261,284.996307 305.636047,287.481995 309.840942,285.768372 
	C315.956604,283.276062 321.731476,279.947510 328.196869,276.438751 
M352.714447,250.747253 
	C347.944153,253.382889 345.829224,257.310699 346.955414,262.755280 
	C347.904175,267.342010 350.877319,270.048248 355.339935,270.879669 
	C360.322113,271.807892 364.198578,269.767700 366.669434,265.426178 
	C368.854187,261.587341 368.449127,257.693512 365.895264,254.140808 
	C362.737732,249.748291 358.326721,249.162720 352.714447,250.747253 
z"/>
<path fill="#BAD8E8" opacity="1.000000" stroke="none" 
	d="
M89.955612,440.665161 
	C91.787033,440.703156 93.618462,440.774323 95.449883,440.774384 
	C213.409454,440.779633 331.369049,440.781494 449.328613,440.759216 
	C451.300537,440.758850 453.272400,440.459747 455.629974,440.138611 
	C469.015228,439.984924 482.019806,439.781219 495.012207,440.090271 
	C501.427368,440.242859 507.629120,441.667572 510.265503,449.211304 
	C506.475677,455.008331 501.259094,457.099274 494.526245,457.095154 
	C336.106781,456.997711 177.687286,457.005188 19.267792,457.072571 
	C12.995893,457.075226 7.851635,455.422394 3.960951,449.797974 
	C5.841619,443.281158 11.009708,440.052063 19.226801,440.015137 
	C31.826494,439.958557 44.426628,440.000122 57.847672,440.233978 
	C69.097717,440.533661 79.526665,440.599396 89.955612,440.665161 
z"/>
<path fill="#FCCA8D" opacity="1.000000" stroke="none" 
	d="
M293.005524,299.205566 
	C327.051666,299.149811 361.097809,299.093658 395.143951,299.038910 
	C399.462341,299.031982 403.780762,299.032684 408.569641,298.994995 
	C418.876007,299.642761 428.832947,299.597534 438.514587,301.207703 
	C448.700378,302.901733 453.416992,310.837433 454.894196,320.388519 
	C455.846069,326.542877 455.647156,332.875214 455.594849,339.672516 
	C444.877258,346.892639 434.474274,353.485382 424.195251,360.266052 
	C413.430206,367.367340 402.879944,367.434326 392.130676,360.177795 
	C384.548920,355.059509 376.839752,350.110535 368.995972,345.405212 
	C360.916138,340.558289 352.814270,341.435120 344.984528,346.313538 
	C340.330231,349.213440 335.684235,352.126587 330.696472,354.975647 
	C321.022552,342.520172 311.388763,330.331635 302.487671,317.629608 
	C298.560455,312.025391 296.120636,305.378845 293.005524,299.205566 
z"/>
<path fill="#FCCA8D" opacity="1.000000" stroke="none" 
	d="
M408.921021,199.587646 
	C402.960663,203.706207 397.006134,207.297318 391.139374,211.026520 
	C385.385162,214.684158 379.706055,218.460815 374.019287,222.223419 
	C363.375000,229.266083 352.738708,229.773361 341.936890,222.491531 
	C335.180695,217.936966 328.238464,213.659210 321.454041,209.145493 
	C311.949768,202.822205 302.627045,202.988297 293.094421,209.224289 
	C284.763641,214.674042 276.203644,219.773346 267.376892,224.588593 
	C266.342163,218.782486 265.295929,213.430313 265.082550,208.045135 
	C264.527924,194.047760 264.339233,180.035904 264.249390,165.932785 
	C264.650940,165.756256 264.807556,165.676758 265.424255,165.697693 
	C291.580170,165.808380 317.276062,165.818619 343.438843,165.889679 
	C359.617371,165.960007 375.328949,165.969513 391.040558,165.979004 
	C397.655121,166.592209 403.296234,169.190796 405.918976,175.519928 
	C407.621735,179.628983 408.305389,184.241074 408.904785,188.700470 
	C409.363770,192.114899 408.976257,195.643082 408.921021,199.587646 
z"/>
<path fill="#8E5E3D" opacity="1.000000" stroke="none" 
	d="
M331.034515,355.033783 
	C335.684235,352.126587 340.330231,349.213440 344.984528,346.313538 
	C352.814270,341.435120 360.916138,340.558289 368.995972,345.405212 
	C376.839752,350.110535 384.548920,355.059509 392.130676,360.177795 
	C402.879944,367.434326 413.430206,367.367340 424.195251,360.266052 
	C434.474274,353.485382 444.877258,346.892639 455.553528,340.143036 
	C455.916595,370.740662 455.951813,401.412476 455.910522,432.548370 
	C446.369354,430.074188 436.599243,427.858337 427.516296,424.017426 
	C415.781281,419.055084 404.598999,412.786865 393.165771,407.106964 
	C392.287018,406.670441 391.305847,406.440033 389.699341,406.053467 
	C388.009979,405.285065 386.993561,404.577087 385.809021,403.651855 
	C385.296753,403.320099 384.952576,403.205597 384.310913,403.070190 
	C382.964447,402.545380 381.915466,402.041504 380.866486,401.537628 
	C379.194733,399.668610 377.817078,397.367065 375.804810,395.998810 
	C359.222046,384.723022 344.840240,370.999603 331.080750,355.917267 
	C330.961761,355.408447 331.034515,355.033783 331.034515,355.033783 
z"/>
<path fill="#613D26" opacity="1.000000" stroke="none" 
	d="
M89.962952,440.219116 
	C79.526665,440.599396 69.097717,440.533661 58.313744,440.233887 
	C57.986401,406.999817 58.014084,373.999756 58.416660,340.640991 
	C69.192169,346.855957 79.592781,353.429596 90.059196,360.165955 
	C90.124992,360.328705 90.225777,360.665009 90.225777,360.665009 
	C90.151230,384.214691 90.076851,407.764343 90.001915,431.314026 
	C89.992943,434.133698 89.980904,436.953369 89.962952,440.219116 
z"/>
<path fill="#613D26" opacity="1.000000" stroke="none" 
	d="
M105.021431,298.897461 
	C105.028786,266.259888 105.036140,233.622330 105.439484,200.570419 
	C116.233658,206.882690 126.631836,213.609283 137.014709,220.779510 
	C136.993805,247.126694 136.988205,273.030273 136.519623,299.005005 
	C127.363205,299.135712 118.669777,299.195251 109.571564,299.164001 
	C107.785004,299.014618 106.403221,298.956024 105.021431,298.897461 
z"/>
<path fill="#FC5362" opacity="1.000000" stroke="none" 
	d="
M342.971924,165.828857 
	C317.276062,165.818619 291.580170,165.808380 265.432892,165.269562 
	C265.985596,154.186691 266.989716,143.632401 268.451813,132.978088 
	C274.289520,132.546082 279.669281,132.214081 285.049011,131.882080 
	C299.171997,131.915924 313.295288,131.905151 327.417877,131.997070 
	C339.781403,132.077530 343.875671,136.284393 344.008820,148.557358 
	C344.064728,153.707993 344.025116,158.859650 343.834045,164.576172 
	C343.349945,165.305740 343.127533,165.534866 342.971924,165.828857 
z"/>
<path fill="#FF4B4E" opacity="1.000000" stroke="none" 
	d="
M267.993835,133.078110 
	C266.989716,143.632401 265.985596,154.186691 264.972839,165.169128 
	C264.807556,165.676758 264.650940,165.756256 263.781403,165.896652 
	C242.687469,165.871109 222.306473,165.784683 201.945221,165.248932 
	C201.977051,159.995865 202.383438,155.153244 201.914841,150.396851 
	C201.074005,141.861832 203.447708,135.418106 211.936523,132.167297 
	C217.289734,132.110321 222.642929,132.053345 228.750519,132.301392 
	C239.999893,132.641647 250.494904,132.676849 261.421448,132.793945 
	C263.899933,132.943253 265.946899,133.010681 267.993835,133.078110 
z"/>
<path fill="#35A9D1" opacity="1.000000" stroke="none" 
	d="
M260.989868,132.712051 
	C250.494904,132.676849 239.999893,132.641647 229.213318,132.292084 
	C228.960236,121.512054 229.016266,111.046394 229.032990,100.580673 
	C229.055923,86.232582 235.263184,79.458763 249.305222,76.842819 
	C256.710266,75.463303 263.593292,76.307213 270.776550,78.924866 
	C262.920807,85.505440 260.222961,93.452965 260.861664,103.340225 
	C261.491699,113.092896 260.993256,122.918465 260.989868,132.712051 
z"/>
<path fill="#F4AB54" opacity="1.000000" stroke="none" 
	d="
M104.552734,298.939331 
	C106.403221,298.956024 107.785004,299.014618 109.330826,299.399231 
	C108.899208,300.022064 108.333771,300.457611 107.703407,300.594818 
	C97.770058,302.757050 89.176498,315.936340 89.831688,326.048279 
	C90.562195,337.322754 89.995483,348.681274 89.993408,360.003235 
	C79.592781,353.429596 69.192169,346.855957 58.475334,340.180664 
	C58.433075,333.348572 58.299397,326.570923 59.072491,319.898315 
	C60.369244,308.705994 68.562462,300.970001 79.904015,300.044067 
	C87.939392,299.388062 96.022331,299.314667 104.552734,298.939331 
z"/>
<path fill="#F6AC52" opacity="1.000000" stroke="none" 
	d="
M137.030014,220.335876 
	C126.631836,213.609283 116.233658,206.882690 105.500816,200.109344 
	C105.440872,193.645691 105.343849,187.185562 106.083839,180.822769 
	C107.021286,172.762177 114.333076,166.343536 122.987900,165.995590 
	C132.919281,166.033295 141.974548,166.064926 150.811432,166.349792 
	C140.729889,170.831818 136.513184,178.295563 136.913712,189.001740 
	C137.297562,199.262299 136.972885,209.549332 136.983337,219.951675 
	C137.007111,220.078613 137.030014,220.335876 137.030014,220.335876 
z"/>
<path fill="#58B9E4" opacity="1.000000" stroke="none" 
	d="
M261.421448,132.793945 
	C260.993256,122.918465 261.491699,113.092896 260.861664,103.340225 
	C260.222961,93.452965 262.920807,85.505440 271.020935,79.219826 
	C279.242706,80.710182 284.918793,87.748207 284.984253,97.653725 
	C285.057617,108.756165 285.007538,119.859436 285.030090,131.422211 
	C279.669281,132.214081 274.289520,132.546082 268.451813,132.978088 
	C265.946899,133.010681 263.899933,132.943253 261.421448,132.793945 
z"/>
<path fill="#EF2336" opacity="1.000000" stroke="none" 
	d="
M211.475266,132.110229 
	C203.447708,135.418106 201.074005,141.861832 201.914841,150.396851 
	C202.383438,155.153244 201.977051,159.995865 201.487061,165.324097 
	C191.020630,165.836639 181.032104,165.824707 170.909348,165.620834 
	C170.554123,165.193420 170.286011,165.040649 169.970764,164.970581 
	C169.991852,158.825775 169.659363,152.654739 170.112701,146.541992 
	C170.892181,136.031342 173.807678,132.745377 184.611526,132.135818 
	C193.385971,131.640778 202.211258,132.046783 211.475266,132.110229 
z"/>
<path fill="#C38C50" opacity="1.000000" stroke="none" 
	d="
M169.504013,164.990784 
	C170.286011,165.040649 170.554123,165.193420 170.443451,165.684967 
	C163.751160,165.992874 157.390488,166.044724 151.029831,166.096558 
	C141.974548,166.064926 132.919281,166.033295 123.390274,165.977264 
	C124.432831,165.632767 125.947838,165.041992 127.465599,165.034790 
	C141.322556,164.969055 155.179977,165.004852 169.504013,164.990784 
z"/>
<path fill="#CE9B65" opacity="1.000000" stroke="none" 
	d="
M343.438843,165.889679 
	C343.127533,165.534866 343.349945,165.305740 343.860168,165.040268 
	C359.571289,165.049484 375.061340,165.159927 390.795990,165.624680 
	C375.328949,165.969513 359.617371,165.960007 343.438843,165.889679 
z"/>
<path fill="#FFC373" opacity="1.000000" stroke="none" 
	d="
M90.059204,360.165955 
	C89.995483,348.681274 90.562195,337.322754 89.831688,326.048279 
	C89.176498,315.936340 97.770058,302.757050 107.703407,300.594818 
	C108.333771,300.457611 108.899208,300.022064 109.735596,299.490051 
	C118.669777,299.195251 127.363205,299.135712 136.985306,299.075348 
	C154.037155,299.087189 170.160355,299.122772 186.283524,299.107849 
	C221.187500,299.075562 256.091431,299.017365 290.995392,298.969727 
	C291.443695,299.008148 291.892029,299.046570 292.672913,299.145264 
	C296.120636,305.378845 298.560455,312.025391 302.487671,317.629608 
	C311.388763,330.331635 321.022552,342.520172 330.696472,354.975647 
	C331.034515,355.033783 330.961761,355.408447 330.946350,355.598175 
	C328.352661,357.280884 325.621460,358.563110 323.222534,360.303375 
	C312.890350,367.798737 302.599121,367.465668 292.151245,360.592010 
	C285.058960,355.925964 277.834961,351.459259 270.768341,346.755463 
	C261.555298,340.622894 252.523285,340.765045 243.254562,346.733276 
	C234.306137,352.495209 225.228180,358.065399 216.073013,363.493591 
	C209.845184,367.186157 203.284470,367.144989 197.073334,363.460510 
	C188.206192,358.200470 179.390198,352.833252 170.782486,347.162506 
	C161.110809,340.790833 151.679672,340.292328 141.958664,346.903839 
	C135.765488,351.115997 129.307465,354.941650 123.153465,359.207855 
	C112.691124,366.460815 102.033882,367.534180 90.567062,360.779297 
	C90.225777,360.665009 90.124992,360.328705 90.059204,360.165955 
z"/>
<path fill="#58B8E1" opacity="1.000000" stroke="none" 
	d="
M380.512024,401.400696 
	C381.915466,402.041504 382.964447,402.545380 384.480164,403.292206 
	C385.290344,403.646454 385.633728,403.757782 385.977142,403.869080 
	C386.993561,404.577087 388.009979,405.285065 389.319031,406.074036 
	C392.295929,410.129852 393.151428,414.192413 389.427460,417.941864 
	C385.935425,421.457855 381.852417,420.644897 377.856171,418.806763 
	C373.774719,416.929474 369.663727,415.096375 365.694855,412.999390 
	C360.821075,410.424316 359.123657,406.077026 361.044891,401.851562 
	C363.106964,397.316315 367.627258,395.809692 372.877869,397.987274 
	C375.334808,399.006226 377.732849,400.167175 380.512024,401.400696 
z"/>
<path fill="#FCC853" opacity="1.000000" stroke="none" 
	d="
M264.903687,401.265381 
	C271.379822,396.761475 277.506409,392.249481 284.113068,388.608826 
	C287.788208,386.583527 291.365295,388.797821 293.420319,392.207031 
	C295.654022,395.912628 295.217651,399.926910 291.679565,402.468628 
	C286.575989,406.135071 281.236908,409.660339 275.537476,412.219513 
	C273.237640,413.252167 269.244354,412.366028 266.874023,410.938202 
	C263.629822,408.984009 263.169830,405.265717 264.903687,401.265381 
z"/>
<path fill="#FCC853" opacity="1.000000" stroke="none" 
	d="
M184.859955,407.102722 
	C188.336700,408.778687 191.542435,410.166443 194.567261,411.874512 
	C198.902985,414.322784 200.379883,418.859192 198.406326,422.892944 
	C196.534576,426.718628 192.246552,428.571899 187.869095,426.827576 
	C182.646072,424.746277 177.514542,422.361115 172.557999,419.706787 
	C167.874039,417.198456 166.561035,412.532074 168.818542,408.310974 
	C170.966904,404.293976 175.086716,403.034760 179.960754,404.954956 
	C181.500549,405.561584 182.993668,406.286682 184.859955,407.102722 
z"/>
<path fill="#03CAB0" opacity="1.000000" stroke="none" 
	d="
M203.888123,393.074036 
	C202.997345,386.419037 206.136185,381.311127 211.553604,380.114471 
	C217.352341,378.833527 222.766235,381.973358 224.455368,387.596863 
	C225.998245,392.733459 222.951126,398.668701 217.813568,400.533936 
	C212.007843,402.641754 206.957291,400.058899 203.888123,393.074036 
z"/>
<path fill="#58B8E2" opacity="1.000000" stroke="none" 
	d="
M333.025940,404.284546 
	C334.839600,411.650146 331.551086,417.447906 325.128784,418.770477 
	C319.213684,419.988556 313.490265,415.810364 312.531464,409.574127 
	C311.648773,403.833038 315.941711,398.336090 321.996338,397.704498 
	C327.035248,397.178925 330.604492,399.508514 333.025940,404.284546 
z"/>
<path fill="#FC4B4E" opacity="1.000000" stroke="none" 
	d="
M150.048584,406.866028 
	C146.947403,411.780518 142.604691,413.015503 137.698685,411.655334 
	C133.315842,410.440277 130.728592,407.063538 130.181534,402.580933 
	C129.650345,398.228363 131.634766,394.709381 135.315140,392.479980 
	C139.379410,390.018036 143.603668,390.167572 147.449768,393.113861 
	C151.420685,396.155823 152.276306,400.651886 150.048584,406.866028 
z"/>
<path fill="#7C5437" opacity="1.000000" stroke="none" 
	d="
M290.992615,298.593719 
	C256.091431,299.017365 221.187500,299.075562 186.283524,299.107849 
	C170.160355,299.122772 154.037155,299.087189 137.448303,299.004181 
	C136.988205,273.030273 136.993805,247.126694 137.014709,220.779510 
	C137.030014,220.335876 137.007111,220.078613 137.261063,220.164551 
	C151.583847,230.005920 159.956573,230.161575 174.134460,220.940125 
	C180.133942,217.038010 186.226898,213.272415 192.122711,209.219788 
	C201.755676,202.598328 211.284515,202.630890 220.947037,209.067978 
	C227.595749,213.497314 234.276215,217.880341 240.991119,222.208618 
	C249.001892,227.372192 257.329285,230.585846 266.761993,225.869339 
	C268.174042,231.073532 269.569397,236.282364 271.007538,241.479355 
	C271.489227,243.219955 272.080017,244.930359 272.926300,247.255844 
	C273.848175,250.488297 274.464661,253.119476 275.146179,256.019684 
	C275.483917,256.524170 275.756653,256.759644 276.016541,256.997925 
	C276.003662,257.000732 276.013367,256.973053 276.013367,256.973053 
	C278.800415,265.569153 281.417999,274.225372 284.436829,282.739319 
	C286.305908,288.010559 288.784729,293.065582 290.992615,298.593719 
M211.612625,264.882355 
	C215.178421,266.980438 218.638077,269.293701 222.338470,271.118896 
	C226.412827,273.128510 230.575638,271.839417 232.814850,268.351379 
	C235.032196,264.897400 234.634430,260.185272 231.059143,257.654663 
	C225.809784,253.939087 220.336639,250.386475 214.545364,247.634567 
	C209.180725,245.085373 203.790421,249.387222 203.745102,255.329712 
	C203.706223,260.428528 207.399872,262.378296 211.612625,264.882355 
M164.302734,265.898773 
	C164.625626,274.161774 170.302475,279.295868 177.236603,277.596008 
	C182.310608,276.352142 186.011627,271.674774 185.801147,266.772095 
	C185.580185,261.625244 181.332962,257.125214 176.043732,256.433929 
	C170.872421,255.758041 166.490601,259.076385 164.302734,265.898773 
z"/>
<path fill="#FFC373" opacity="1.000000" stroke="none" 
	d="
M266.833313,225.665253 
	C257.329285,230.585846 249.001892,227.372192 240.991119,222.208618 
	C234.276215,217.880341 227.595749,213.497314 220.947037,209.067978 
	C211.284515,202.630890 201.755676,202.598328 192.122711,209.219788 
	C186.226898,213.272415 180.133942,217.038010 174.134460,220.940125 
	C159.956573,230.161575 151.583847,230.005920 137.237305,220.037598 
	C136.972885,209.549332 137.297562,199.262299 136.913712,189.001740 
	C136.513184,178.295563 140.729889,170.831818 150.811432,166.349808 
	C157.390488,166.044724 163.751160,165.992874 170.577698,165.876892 
	C181.032104,165.824707 191.020630,165.836639 201.467300,165.773407 
	C222.306473,165.784683 242.687469,165.871109 263.536499,165.993683 
	C264.339233,180.035904 264.527924,194.047760 265.082550,208.045135 
	C265.295929,213.430313 266.342163,218.782486 267.013611,224.596863 
	C267.018372,225.044037 266.904602,225.461166 266.833313,225.665253 
z"/>
<path fill="#FD4B4E" opacity="1.000000" stroke="none" 
	d="
M327.924255,276.707153 
	C321.731476,279.947510 315.956604,283.276062 309.840942,285.768372 
	C305.636047,287.481995 300.899261,284.996307 299.376282,281.320953 
	C297.706451,277.291260 299.502197,272.804291 304.025330,270.502075 
	C308.617004,268.164948 313.349152,266.102966 318.028473,263.939270 
	C321.971527,262.115997 325.644348,262.585388 328.398041,265.981079 
	C331.132996,269.353668 330.894714,273.001862 327.924255,276.707153 
z"/>
<path fill="#58B8E2" opacity="1.000000" stroke="none" 
	d="
M275.081177,255.750656 
	C274.464661,253.119476 273.848175,250.488297 273.247925,247.467712 
	C277.364838,238.039886 286.419434,235.818436 292.085999,242.460541 
	C295.559021,246.531464 295.478455,252.481293 291.895325,256.544006 
	C288.082520,260.867157 282.563965,261.128113 276.342773,257.118469 
	C276.013367,256.973053 276.003662,257.000732 275.936676,256.737732 
	C275.606842,256.233368 275.344025,255.992020 275.081177,255.750656 
z"/>
<path fill="#03CAB0" opacity="1.000000" stroke="none" 
	d="
M353.068848,250.559235 
	C358.326721,249.162720 362.737732,249.748291 365.895264,254.140808 
	C368.449127,257.693512 368.854187,261.587341 366.669434,265.426178 
	C364.198578,269.767700 360.322113,271.807892 355.339935,270.879669 
	C350.877319,270.048248 347.904175,267.342010 346.955414,262.755280 
	C345.829224,257.310699 347.944153,253.382889 353.068848,250.559235 
z"/>
<path fill="#7D5538" opacity="1.000000" stroke="none" 
	d="
M385.809021,403.651855 
	C385.633728,403.757782 385.290344,403.646454 384.777679,403.313110 
	C384.952576,403.205597 385.296753,403.320099 385.809021,403.651855 
z"/>
<path fill="#FDC854" opacity="1.000000" stroke="none" 
	d="
M211.301178,264.693390 
	C207.399872,262.378296 203.706223,260.428528 203.745102,255.329712 
	C203.790421,249.387222 209.180725,245.085373 214.545364,247.634567 
	C220.336639,250.386475 225.809784,253.939087 231.059143,257.654663 
	C234.634430,260.185272 235.032196,264.897400 232.814850,268.351379 
	C230.575638,271.839417 226.412827,273.128510 222.338470,271.118896 
	C218.638077,269.293701 215.178421,266.980438 211.301178,264.693390 
z"/>
<path fill="#03CAB0" opacity="1.000000" stroke="none" 
	d="
M164.417816,265.524902 
	C166.490601,259.076385 170.872421,255.758041 176.043732,256.433929 
	C181.332962,257.125214 185.580185,261.625244 185.801147,266.772095 
	C186.011627,271.674774 182.310608,276.352142 177.236603,277.596008 
	C170.302475,279.295868 164.625626,274.161774 164.417816,265.524902 
z"/>
<path fill="#8E5E3D" opacity="1.000000" stroke="none" 
	d="
M275.146179,256.019684 
	C275.344025,255.992020 275.606842,256.233368 275.949524,256.734924 
	C275.756653,256.759644 275.483917,256.524170 275.146179,256.019684 
z"/>
</svg>