<svg version="1.1" id="Layer_1" xmlns="http://www.w3.org/2000/svg" xmlns:xlink="http://www.w3.org/1999/xlink" x="0px" y="0px"
	 width="100%" viewBox="0 0 512 512" enable-background="new 0 0 512 512" xml:space="preserve">
<path fill="#000000" opacity="1.000000" stroke="none" 
	d="
M291.000000,513.000000 
	C194.023544,513.000000 97.547081,513.000000 1.035313,513.000000 
	C1.035313,342.398529 1.035313,171.797028 1.035313,1.097768 
	C171.559799,1.097768 342.119690,1.097768 512.839783,1.097768 
	C512.839783,171.666550 512.839783,342.333252 512.839783,513.000000 
	C439.130341,513.000000 365.315155,513.000000 291.000000,513.000000 
M284.093079,107.029930 
	C277.394440,106.742279 270.695770,106.454628 263.071136,106.029762 
	C257.713745,106.075226 252.356339,106.120682 246.099976,106.028511 
	C241.066513,106.407829 236.033035,106.787148 230.131317,107.027863 
	C225.408203,107.645721 220.685104,108.263588 215.083481,108.982368 
	C208.721970,110.043785 202.360458,111.105202 195.183701,112.030701 
	C188.455429,113.742744 181.727158,115.454781 174.231049,117.050072 
	C165.129654,120.311447 156.028275,123.572823 146.194565,126.994331 
	C145.165741,127.469185 144.151413,127.978905 143.105972,128.413803 
	C115.238503,140.006470 90.345604,156.347137 68.098763,176.576355 
	C52.000065,191.215042 37.798832,207.623276 25.958941,225.997955 
	C19.965902,235.298752 13.645480,244.380280 13.023275,256.842072 
	C14.308884,261.913239 15.594491,266.984375 16.995344,272.780273 
	C18.960739,276.202850 20.926132,279.625397 23.182049,283.685577 
	C25.439663,286.827148 27.697277,289.968750 30.000608,293.808990 
	C31.631021,295.888641 33.261436,297.968292 34.986485,300.742340 
	C36.618042,302.841675 38.249599,304.940979 40.168762,307.660889 
	C43.430748,311.143982 46.692734,314.627106 50.006927,318.802795 
	C52.968475,321.884674 55.930023,324.966553 59.170914,328.661804 
	C63.764378,332.809784 68.357849,336.957764 73.225601,341.720001 
	C79.802719,346.851379 86.379829,351.982758 93.243073,357.740936 
	C100.814354,362.532196 108.385628,367.323486 116.304039,372.726776 
	C123.202568,376.095428 130.101089,379.464081 137.656448,383.164246 
	C143.953796,385.720520 150.251144,388.276825 157.229691,391.038818 
	C165.163223,393.663086 173.096741,396.287384 181.846695,398.991577 
	C188.883698,400.366302 195.920685,401.741028 203.428986,403.781860 
	C211.951660,404.798645 220.474335,405.815399 229.903076,406.968536 
	C239.601151,407.257416 249.299210,407.546326 259.923737,407.970367 
	C267.948975,407.591248 275.974213,407.212158 284.856140,406.967773 
	C287.917908,406.644257 291.000885,406.453522 294.036743,405.967987 
	C299.387207,405.112274 304.708893,404.076630 310.897614,403.023834 
	C319.612366,401.054321 328.327148,399.084778 337.846466,397.022095 
	C350.600494,392.364136 363.354492,387.706177 376.832397,382.983459 
	C402.342865,371.613281 425.278473,356.236603 445.823395,337.447571 
	C462.874084,321.854126 477.912170,304.440704 490.122131,284.686005 
	C494.697235,277.283813 499.682281,270.152222 500.777618,260.568298 
	C499.555115,254.364975 498.332611,248.161636 496.999603,241.233719 
	C494.373047,236.809586 491.746490,232.385437 488.817719,227.328720 
	C485.914642,223.203110 483.011597,219.077515 479.812897,214.321808 
	C476.224915,209.846100 472.636932,205.370392 468.770050,200.289215 
	C463.528290,194.822876 458.286530,189.356552 452.767670,183.287521 
	C448.058990,178.907608 443.440308,174.424820 438.602142,170.192917 
	C436.321686,168.198212 433.619995,166.685135 430.814331,164.337021 
	C429.591919,163.237061 428.471497,161.989731 427.130341,161.061279 
	C418.998413,155.431793 410.816132,149.875046 402.012512,144.023575 
	C395.875641,140.759552 389.803131,137.365845 383.578949,134.277832 
	C379.537231,132.272614 375.274384,130.713104 370.746613,128.326797 
	C360.845459,124.848114 350.944305,121.369423 340.625244,117.242645 
	C330.416779,114.893539 320.208344,112.544441 309.135101,110.037407 
	C307.362976,109.824059 305.591156,109.608208 303.818665,109.397820 
	C297.545410,108.653198 291.271942,107.910431 284.093079,107.029930 
z"/>
<path fill="#5035D7" opacity="1.000000" stroke="none" 
	d="
M258.997284,407.835205 
	C249.299210,407.546326 239.601151,407.257416 229.486542,406.552795 
	C230.254044,404.391815 231.187988,402.392670 232.661453,400.941223 
	C245.079819,388.708282 257.621307,376.600372 270.046295,364.374054 
	C271.289246,363.151001 272.004425,361.391632 273.188110,359.555298 
	C285.233643,357.376312 296.379486,353.583954 306.840454,347.741791 
	C319.156708,340.863525 330.091461,332.244507 338.442535,320.868195 
	C343.219879,314.360138 347.600311,307.339752 350.817078,299.964539 
	C354.598267,291.295258 356.924591,281.991394 360.246796,272.938843 
	C362.273956,271.909943 364.201721,271.177917 365.557953,269.858429 
	C382.480255,253.395081 399.294220,236.820389 416.194702,220.334534 
	C421.782349,214.883987 427.646820,209.715454 433.189453,204.221008 
	C439.915863,197.553009 446.435608,190.676498 453.044800,183.890228 
	C458.286530,189.356552 463.528290,194.822876 468.727875,200.879761 
	C465.410675,204.528091 462.082672,207.531403 458.869812,210.653152 
	C445.496124,223.647614 432.163422,236.684235 418.803589,249.692932 
	C406.876129,261.306885 394.920715,272.892120 382.999359,284.512299 
	C368.691803,298.458313 354.374786,312.394775 340.120300,326.394897 
	C318.139374,347.983643 296.212952,369.627869 274.242554,391.227325 
	C273.061920,392.388031 271.520874,393.205170 270.436554,394.436707 
	C266.556152,398.843567 262.800262,403.360107 258.997284,407.835205 
z"/>
<path fill="#532ED6" opacity="1.000000" stroke="none" 
	d="
M259.460510,407.902771 
	C262.800262,403.360107 266.556152,398.843567 270.436554,394.436707 
	C271.520874,393.205170 273.061920,392.388031 274.242554,391.227325 
	C296.212952,369.627869 318.139374,347.983643 340.120300,326.394897 
	C354.374786,312.394775 368.691803,298.458313 382.999359,284.512299 
	C394.920715,272.892120 406.876129,261.306885 418.803589,249.692932 
	C432.163422,236.684235 445.496124,223.647614 458.869812,210.653152 
	C462.082672,207.531403 465.410675,204.528091 468.867310,201.182480 
	C472.636932,205.370392 476.224915,209.846100 479.650208,214.789337 
	C477.892090,216.438477 476.160645,217.475479 474.724060,218.826096 
	C467.453827,225.661438 460.204468,232.520966 453.049683,239.476791 
	C427.158569,264.647766 401.259369,289.810822 375.457123,315.072815 
	C352.739197,337.315094 330.150909,359.689789 307.487427,381.987762 
	C306.306824,383.149384 304.826721,384.019043 303.709656,385.230804 
	C297.102875,392.397705 290.562317,399.625641 283.999451,406.833038 
	C275.974213,407.212158 267.948975,407.591248 259.460510,407.902771 
z"/>
<path fill="#5429D6" opacity="1.000000" stroke="none" 
	d="
M284.427795,406.900391 
	C290.562317,399.625641 297.102875,392.397705 303.709656,385.230804 
	C304.826721,384.019043 306.306824,383.149384 307.487427,381.987762 
	C330.150909,359.689789 352.739197,337.315094 375.457123,315.072815 
	C401.259369,289.810822 427.158569,264.647766 453.049683,239.476791 
	C460.204468,232.520966 467.453827,225.661438 474.724060,218.826096 
	C476.160645,217.475479 477.892090,216.438477 479.798035,215.104370 
	C483.011597,219.077515 485.914642,223.203110 488.630402,227.733856 
	C483.195770,232.693314 477.755280,237.045593 472.738861,241.841446 
	C459.883331,254.131729 447.216736,266.619629 434.473694,279.027588 
	C421.849915,291.319550 409.183167,303.567780 396.609924,315.911224 
	C374.658783,337.461151 352.776978,359.081757 330.830688,380.636658 
	C328.229004,383.191986 325.165344,385.305389 322.737213,388.002899 
	C318.338196,392.889954 314.256683,398.062805 310.042633,403.116333 
	C304.708893,404.076630 299.387207,405.112274 294.036743,405.967987 
	C291.000885,406.453522 287.917908,406.644257 284.427795,406.900391 
z"/>
<path fill="#387DDE" opacity="1.000000" stroke="none" 
	d="
M246.998947,106.166145 
	C252.356339,106.120682 257.713745,106.075226 263.451019,106.430145 
	C262.307343,108.966866 261.056213,111.378937 259.217255,113.196060 
	C244.086807,128.146500 228.804916,142.943817 213.700943,157.920731 
	C212.053162,159.554672 211.240036,162.030380 209.872818,164.419601 
	C208.039017,165.716019 206.364426,166.695770 204.706543,167.703033 
	C194.295074,174.028702 184.580185,181.178040 177.295273,191.150864 
	C173.201096,196.755661 169.173096,202.408783 164.731964,208.042679 
	C162.117996,209.311371 159.490723,210.171661 157.716812,211.905167 
	C134.971451,234.132477 112.350418,256.487061 89.686493,278.797791 
	C88.621513,279.846191 87.395103,280.731262 86.337013,281.785828 
	C74.199142,293.883453 62.079346,305.999268 49.954720,318.110199 
	C46.692734,314.627106 43.430748,311.143982 40.363365,307.261414 
	C45.107170,303.006012 49.861668,299.365051 54.166691,295.253479 
	C66.568756,283.408722 78.791977,271.376709 91.080605,259.413239 
	C103.966232,246.868607 116.846611,234.318588 129.728638,221.770248 
	C142.610672,209.221954 155.521149,196.702667 168.366669,184.117096 
	C187.520721,165.350647 206.604065,146.511993 225.771393,127.759155 
	C231.479202,122.174774 237.419708,116.828400 243.138245,111.254631 
	C244.645996,109.785057 245.723755,107.874313 246.998947,106.166145 
z"/>
<path fill="#5624D5" opacity="1.000000" stroke="none" 
	d="
M310.470123,403.070068 
	C314.256683,398.062805 318.338196,392.889954 322.737213,388.002899 
	C325.165344,385.305389 328.229004,383.191986 330.830688,380.636658 
	C352.776978,359.081757 374.658783,337.461151 396.609924,315.911224 
	C409.183167,303.567780 421.849915,291.319550 434.473694,279.027588 
	C447.216736,266.619629 459.883331,254.131729 472.738861,241.841446 
	C477.755280,237.045593 483.195770,232.693314 488.781494,228.050140 
	C491.746490,232.385437 494.373047,236.809586 496.704224,241.677383 
	C494.714264,243.134354 492.763306,243.877060 491.364502,245.202469 
	C476.263031,259.512268 461.207031,273.870758 446.222870,288.303406 
	C433.750519,300.316711 421.344238,312.399536 408.990570,324.534943 
	C386.056641,347.063690 363.167847,369.638519 340.319946,392.254425 
	C338.957947,393.602600 338.122406,395.482697 337.041901,397.115265 
	C328.327148,399.084778 319.612366,401.054321 310.470123,403.070068 
z"/>
<path fill="#581ED5" opacity="1.000000" stroke="none" 
	d="
M337.444183,397.068665 
	C338.122406,395.482697 338.957947,393.602600 340.319946,392.254425 
	C363.167847,369.638519 386.056641,347.063690 408.990570,324.534943 
	C421.344238,312.399536 433.750519,300.316711 446.222870,288.303406 
	C461.207031,273.870758 476.263031,259.512268 491.364502,245.202469 
	C492.763306,243.877060 494.714264,243.134354 496.759460,242.039673 
	C498.332611,248.161636 499.555115,254.364975 500.107788,260.879883 
	C494.069916,265.849762 488.512390,270.309174 483.371796,275.206299 
	C471.342438,286.665955 459.464722,298.286346 447.612793,309.930389 
	C424.254974,332.878448 400.940430,355.870758 377.689911,378.927399 
	C376.737366,379.871979 376.616730,381.655548 376.108521,383.048218 
	C363.354492,387.706177 350.600494,392.364136 337.444183,397.068665 
z"/>
<path fill="#4D3ED8" opacity="1.000000" stroke="none" 
	d="
M452.906250,183.588867 
	C446.435608,190.676498 439.915863,197.553009 433.189453,204.221008 
	C427.646820,209.715454 421.782349,214.883987 416.194702,220.334534 
	C399.294220,236.820389 382.480255,253.395081 365.557953,269.858429 
	C364.201721,271.177917 362.273956,271.909943 360.295776,272.485718 
	C359.996765,269.395477 359.550476,266.631927 360.112610,264.091522 
	C362.311768,254.153168 359.855438,244.606049 358.474030,234.885498 
	C360.215271,233.676651 361.758240,232.681976 363.040924,231.422302 
	C384.488525,210.359299 405.899597,189.259109 427.336639,168.185364 
	C428.514648,167.027313 429.848083,166.027359 431.109161,164.953812 
	C433.619995,166.685135 436.321686,168.198212 438.602142,170.192917 
	C443.440308,174.424820 448.058990,178.907608 452.906250,183.588867 
z"/>
<path fill="#4A49D9" opacity="1.000000" stroke="none" 
	d="
M430.961731,164.645416 
	C429.848083,166.027359 428.514648,167.027313 427.336639,168.185364 
	C405.899597,189.259109 384.488525,210.359299 363.040924,231.422302 
	C361.758240,232.681976 360.215271,233.676651 358.410889,234.488770 
	C355.402527,222.293274 350.692932,211.271027 344.525452,200.891251 
	C345.418640,200.471558 346.104858,200.256714 346.559387,199.807495 
	C365.269501,181.316147 383.958771,162.803741 402.650696,144.293991 
	C410.816132,149.875046 418.998413,155.431793 427.130341,161.061279 
	C428.471497,161.989731 429.591919,163.237061 430.961731,164.645416 
z"/>
<path fill="#3587DF" opacity="1.000000" stroke="none" 
	d="
M29.954889,293.110321 
	C27.697277,289.968750 25.439663,286.827148 23.324234,283.185974 
	C36.388573,270.213226 49.331608,257.761597 62.226940,245.260742 
	C74.885963,232.988953 87.516945,220.688049 100.123322,208.362183 
	C117.014305,191.847000 133.858414,175.283890 150.744003,158.763184 
	C164.536118,145.269089 178.401215,131.849091 192.115158,118.276237 
	C193.787369,116.621239 194.722321,114.221306 195.998932,112.166611 
	C202.360458,111.105202 208.721970,110.043785 215.447388,109.271271 
	C214.619171,111.128426 213.600693,112.874344 212.207108,114.236473 
	C202.221924,123.996384 192.125092,133.641998 182.131210,143.393082 
	C165.825806,159.302383 149.557922,175.250214 133.299561,191.207611 
	C113.597580,210.544876 93.924530,229.911606 74.226921,249.253311 
	C73.281044,250.182098 72.157684,250.931122 71.219902,251.866989 
	C57.454617,265.604462 43.706837,279.359497 29.954889,293.110321 
z"/>
<path fill="#3094E0" opacity="1.000000" stroke="none" 
	d="
M13.165869,255.997101 
	C13.645480,244.380280 19.965902,235.298752 25.958941,225.997955 
	C37.798832,207.623276 52.000065,191.215042 68.098763,176.576355 
	C90.345604,156.347137 115.238503,140.006470 143.105972,128.413803 
	C144.151413,127.978905 145.165741,127.469185 146.494446,127.256470 
	C142.521210,131.855820 138.312225,136.258469 133.962997,140.517944 
	C121.022079,153.191833 107.981567,165.764160 95.061287,178.458923 
	C71.939285,201.177338 48.876732,223.956268 25.789257,246.709824 
	C25.315464,247.176758 24.892900,247.715881 24.358015,248.097382 
	C20.640409,250.749008 16.899376,253.367783 13.165869,255.997101 
z"/>
<path fill="#348BDF" opacity="1.000000" stroke="none" 
	d="
M195.591309,112.098656 
	C194.722321,114.221306 193.787369,116.621239 192.115158,118.276237 
	C178.401215,131.849091 164.536118,145.269089 150.744003,158.763184 
	C133.858414,175.283890 117.014305,191.847000 100.123322,208.362183 
	C87.516945,220.688049 74.885963,232.988953 62.226940,245.260742 
	C49.331608,257.761597 36.388573,270.213226 23.178970,282.867188 
	C20.926132,279.625397 18.960739,276.202850 17.227100,272.235992 
	C19.784369,269.815369 22.269384,268.104065 24.409307,266.035736 
	C37.553917,253.330643 50.617821,240.542084 63.713860,227.786713 
	C76.214203,215.611542 88.768333,203.491180 101.214699,191.261124 
	C124.575073,168.306732 147.887543,145.303528 171.169861,122.270004 
	C172.665359,120.790482 173.732483,118.877937 174.998886,117.166824 
	C181.727158,115.454781 188.455429,113.742744 195.591309,112.098656 
z"/>
<path fill="#328FDF" opacity="1.000000" stroke="none" 
	d="
M174.614960,117.108444 
	C173.732483,118.877937 172.665359,120.790482 171.169861,122.270004 
	C147.887543,145.303528 124.575073,168.306732 101.214699,191.261124 
	C88.768333,203.491180 76.214203,215.611542 63.713860,227.786713 
	C50.617821,240.542084 37.553917,253.330643 24.409307,266.035736 
	C22.269384,268.104065 19.784369,269.815369 17.169477,271.873627 
	C15.594491,266.984375 14.308884,261.913239 13.094570,256.419586 
	C16.899376,253.367783 20.640409,250.749008 24.358015,248.097382 
	C24.892900,247.715881 25.315464,247.176758 25.789257,246.709824 
	C48.876732,223.956268 71.939285,201.177338 95.061287,178.458923 
	C107.981567,165.764160 121.022079,153.191833 133.962997,140.517944 
	C138.312225,136.258469 142.521210,131.855820 146.860596,127.176407 
	C156.028275,123.572823 165.129654,120.311447 174.614960,117.108444 
z"/>
<path fill="#3781DE" opacity="1.000000" stroke="none" 
	d="
M246.549469,106.097328 
	C245.723755,107.874313 244.645996,109.785057 243.138245,111.254631 
	C237.419708,116.828400 231.479202,122.174774 225.771393,127.759155 
	C206.604065,146.511993 187.520721,165.350647 168.366669,184.117096 
	C155.521149,196.702667 142.610672,209.221954 129.728638,221.770248 
	C116.846611,234.318588 103.966232,246.868607 91.080605,259.413239 
	C78.791977,271.376709 66.568756,283.408722 54.166691,295.253479 
	C49.861668,299.365051 45.107170,303.006012 40.219563,306.951111 
	C38.249599,304.940979 36.618042,302.841675 35.226585,300.214355 
	C43.324741,292.277222 51.250042,284.937775 59.025471,277.442841 
	C71.475197,265.442230 83.845955,253.359390 96.212936,241.273285 
	C112.745064,225.116653 129.216766,208.898148 145.763916,192.756943 
	C154.330643,184.400406 163.061600,176.212097 171.617615,167.844757 
	C190.404602,149.472015 209.153717,131.060196 227.824692,112.569809 
	C229.259506,111.148888 229.958542,108.985023 230.999573,107.166473 
	C236.033035,106.787148 241.066513,106.407829 246.549469,106.097328 
z"/>
<path fill="#3683DE" opacity="1.000000" stroke="none" 
	d="
M230.565445,107.097168 
	C229.958542,108.985023 229.259506,111.148888 227.824692,112.569809 
	C209.153717,131.060196 190.404602,149.472015 171.617615,167.844757 
	C163.061600,176.212097 154.330643,184.400406 145.763916,192.756943 
	C129.216766,208.898148 112.745064,225.116653 96.212936,241.273285 
	C83.845955,253.359390 71.475197,265.442230 59.025471,277.442841 
	C51.250042,284.937775 43.324741,292.277222 35.179268,299.867188 
	C33.261436,297.968292 31.631021,295.888641 29.977749,293.459656 
	C43.706837,279.359497 57.454617,265.604462 71.219902,251.866989 
	C72.157684,250.931122 73.281044,250.182098 74.226921,249.253311 
	C93.924530,229.911606 113.597580,210.544876 133.299561,191.207611 
	C149.557922,175.250214 165.825806,159.302383 182.131210,143.393082 
	C192.125092,133.641998 202.221924,123.996384 212.207108,114.236473 
	C213.600693,112.874344 214.619171,111.128426 215.886627,109.220810 
	C220.685104,108.263588 225.408203,107.645721 230.565445,107.097168 
z"/>
<path fill="#3E6BDC" opacity="1.000000" stroke="none" 
	d="
M92.956940,357.114136 
	C86.379829,351.982758 79.802719,346.851379 73.241493,341.102234 
	C76.236580,337.424652 79.162949,334.311279 82.203438,331.313629 
	C103.606430,310.212341 125.003242,289.104462 146.505508,268.104645 
	C148.324219,266.328430 150.899063,265.326447 153.465576,264.205750 
	C154.073288,267.365540 154.076935,270.337280 154.655441,273.192566 
	C155.996765,279.813110 157.615891,286.377380 158.783569,293.052551 
	C152.368423,298.521881 146.143814,303.746155 140.248505,309.318817 
	C129.854111,319.144318 119.540672,329.062408 109.429695,339.178040 
	C103.696136,344.914215 98.432312,351.119904 92.956940,357.114136 
z"/>
<path fill="#4655DA" opacity="1.000000" stroke="none" 
	d="
M402.331604,144.158783 
	C383.958771,162.803741 365.269501,181.316147 346.559387,199.807495 
	C346.104858,200.256714 345.418640,200.471558 344.351929,200.584045 
	C342.904602,199.074615 342.057465,197.673676 340.968750,196.496094 
	C334.637451,189.648071 328.249359,182.852570 322.169342,175.860657 
	C329.459015,169.134491 336.537537,162.667694 343.441559,156.019699 
	C352.735016,147.070908 361.893921,137.982422 371.110596,128.953903 
	C375.274384,130.713104 379.537231,132.272614 383.578949,134.277832 
	C389.803131,137.365845 395.875641,140.759552 402.331604,144.158783 
z"/>
<path fill="#5A19D4" opacity="1.000000" stroke="none" 
	d="
M376.470459,383.015839 
	C376.616730,381.655548 376.737366,379.871979 377.689911,378.927399 
	C400.940430,355.870758 424.254974,332.878448 447.612793,309.930389 
	C459.464722,298.286346 471.342438,286.665955 483.371796,275.206299 
	C488.512390,270.309174 494.069916,265.849762 499.777344,261.116943 
	C499.682281,270.152222 494.697235,277.283813 490.122131,284.686005 
	C477.912170,304.440704 462.874084,321.854126 445.823395,337.447571 
	C425.278473,356.236603 402.342865,371.613281 376.470459,383.015839 
z"/>
<path fill="#4261DB" opacity="1.000000" stroke="none" 
	d="
M93.100006,357.427551 
	C98.432312,351.119904 103.696136,344.914215 109.429695,339.178040 
	C119.540672,329.062408 129.854111,319.144318 140.248505,309.318817 
	C146.143814,303.746155 152.368423,298.521881 159.091217,293.227722 
	C163.865021,301.197449 167.992340,309.080109 171.781403,317.051086 
	C169.761597,318.460144 167.958252,319.653290 166.418579,321.122681 
	C157.399643,329.729980 148.282135,338.243134 139.511337,347.098541 
	C131.454071,355.233459 123.792679,363.760498 115.956894,372.114777 
	C108.385628,367.323486 100.814354,362.532196 93.100006,357.427551 
z"/>
<path fill="#3C73DD" opacity="1.000000" stroke="none" 
	d="
M153.122635,263.964813 
	C150.899063,265.326447 148.324219,266.328430 146.505508,268.104645 
	C125.003242,289.104462 103.606430,310.212341 82.203438,331.313629 
	C79.162949,334.311279 76.236580,337.424652 73.104347,340.795074 
	C68.357849,336.957764 63.764378,332.809784 59.318684,328.174286 
	C68.854385,318.747406 78.341675,309.909668 87.610046,300.847992 
	C108.422783,280.499420 129.110672,260.023163 149.909180,239.659973 
	C151.398956,238.201385 153.374481,237.238937 155.073303,236.475494 
	C154.389175,245.925064 153.755905,254.944946 153.122635,263.964813 
z"/>
<path fill="#3A78DD" opacity="1.000000" stroke="none" 
	d="
M155.124161,236.045807 
	C153.374481,237.238937 151.398956,238.201385 149.909180,239.659973 
	C129.110672,260.023163 108.422783,280.499420 87.610046,300.847992 
	C78.341675,309.909668 68.854385,318.747406 59.179012,327.867615 
	C55.930023,324.966553 52.968475,321.884674 49.980827,318.456482 
	C62.079346,305.999268 74.199142,293.883453 86.337013,281.785828 
	C87.395103,280.731262 88.621513,279.846191 89.686493,278.797791 
	C112.350418,256.487061 134.971451,234.132477 157.716812,211.905167 
	C159.490723,210.171661 162.117996,209.311371 164.675110,208.414246 
	C161.709106,217.870773 158.416626,226.958282 155.124161,236.045807 
z"/>
<path fill="#4261DB" opacity="1.000000" stroke="none" 
	d="
M370.928589,128.640350 
	C361.893921,137.982422 352.735016,147.070908 343.441559,156.019699 
	C336.537537,162.667694 329.459015,169.134491 321.861694,175.716476 
	C313.163727,170.872864 305.062286,165.994781 297.139618,160.827179 
	C311.893311,146.322021 326.468231,132.106384 341.043152,117.890732 
	C350.944305,121.369423 360.845459,124.848114 370.928589,128.640350 
z"/>
<path fill="#4459DA" opacity="1.000000" stroke="none" 
	d="
M116.130463,372.420776 
	C123.792679,363.760498 131.454071,355.233459 139.511337,347.098541 
	C148.282135,338.243134 157.399643,329.729980 166.418579,321.122681 
	C167.958252,319.653290 169.761597,318.460144 172.089722,317.193054 
	C177.197769,322.485413 181.659225,327.724091 185.876297,333.197937 
	C182.023666,336.852966 178.383728,340.240112 174.813034,343.698730 
	C163.355530,354.796661 151.877335,365.874176 140.535965,377.089844 
	C138.982925,378.625671 138.160385,380.900208 136.999634,382.832733 
	C130.101089,379.464081 123.202568,376.095428 116.130463,372.420776 
z"/>
<path fill="#3E6BDC" opacity="1.000000" stroke="none" 
	d="
M340.834198,117.566696 
	C326.468231,132.106384 311.893311,146.322021 296.759216,160.765259 
	C287.465454,158.605835 278.730865,156.218811 270.091980,153.513672 
	C271.074738,152.014404 271.835602,150.707397 272.868317,149.671310 
	C284.339722,138.162170 295.890808,126.732018 307.302643,115.164406 
	C308.574188,113.875504 309.118378,111.869026 309.999878,110.195343 
	C320.208344,112.544441 330.416779,114.893539 340.834198,117.566696 
z"/>
<path fill="#4A49D9" opacity="1.000000" stroke="none" 
	d="
M181.030273,398.911682 
	C173.096741,396.287384 165.163223,393.663086 157.088684,390.594849 
	C158.607529,388.291809 160.173691,386.338013 161.942123,384.588684 
	C175.312653,371.362518 188.722900,358.176544 202.437195,345.116882 
	C209.187103,348.458710 215.620560,351.661682 221.964111,355.204041 
	C220.560028,357.219727 219.413773,359.067596 217.904800,360.544983 
	C206.781067,371.435883 195.535492,382.202850 184.468491,393.150604 
	C182.929138,394.673370 182.157379,396.972168 181.030273,398.911682 
z"/>
<path fill="#4752DA" opacity="1.000000" stroke="none" 
	d="
M202.120728,344.977966 
	C188.722900,358.176544 175.312653,371.362518 161.942123,384.588684 
	C160.173691,386.338013 158.607529,388.291809 156.748077,390.492004 
	C150.251144,388.276825 143.953796,385.720520 137.328033,382.998474 
	C138.160385,380.900208 138.982925,378.625671 140.535965,377.089844 
	C151.877335,365.874176 163.355530,354.796661 174.813034,343.698730 
	C178.383728,340.240112 182.023666,336.852966 186.180908,333.336731 
	C191.860184,337.152893 196.990448,341.065430 202.120728,344.977966 
z"/>
<path fill="#4D3ED8" opacity="1.000000" stroke="none" 
	d="
M272.964569,359.881165 
	C272.004425,361.391632 271.289246,363.151001 270.046295,364.374054 
	C257.621307,376.600372 245.079819,388.708282 232.661453,400.941223 
	C231.187988,402.392670 230.254044,404.391815 229.033508,406.484619 
	C220.474335,405.815399 211.951660,404.798645 203.283722,403.110229 
	C203.762848,401.478882 204.235901,400.364594 205.034363,399.582642 
	C216.737610,388.122223 228.509918,376.732269 240.188660,365.247101 
	C241.681213,363.779297 242.740219,361.870636 244.436615,360.098511 
	C254.236969,359.980927 263.600769,359.931061 272.964569,359.881165 
z"/>
<path fill="#3C73DD" opacity="1.000000" stroke="none" 
	d="
M309.567505,110.116371 
	C309.118378,111.869026 308.574188,113.875504 307.302643,115.164406 
	C295.890808,126.732018 284.339722,138.162170 272.868317,149.671310 
	C271.835602,150.707397 271.074738,152.014404 269.655365,153.581451 
	C263.945648,153.645096 258.770599,153.128479 253.589981,153.064713 
	C249.729233,153.017181 245.861298,153.555420 242.032959,153.485733 
	C242.556992,152.101883 242.803986,150.822052 243.568573,150.064926 
	C254.217499,139.520538 265.027527,129.137375 275.588135,118.506126 
	C279.035889,115.035309 281.878937,110.963768 284.998535,107.166969 
	C291.271942,107.910431 297.545410,108.653198 303.818665,109.397820 
	C305.591156,109.608208 307.362976,109.824059 309.567505,110.116371 
z"/>
<path fill="#4D40D8" opacity="1.000000" stroke="none" 
	d="
M244.000092,360.166199 
	C242.740219,361.870636 241.681213,363.779297 240.188660,365.247101 
	C228.509918,376.732269 216.737610,388.122223 205.034363,399.582642 
	C204.235901,400.364594 203.762848,401.478882 203.048065,402.777191 
	C195.920685,401.741028 188.883698,400.366302 181.438477,398.951630 
	C182.157379,396.972168 182.929138,394.673370 184.468491,393.150604 
	C195.535492,382.202850 206.781067,371.435883 217.904800,360.544983 
	C219.413773,359.067596 220.560028,357.219727 222.355042,355.259521 
	C229.890610,356.705841 236.945358,358.436035 244.000092,360.166199 
z"/>
<path fill="#3A78DD" opacity="1.000000" stroke="none" 
	d="
M284.545807,107.098450 
	C281.878937,110.963768 279.035889,115.035309 275.588135,118.506126 
	C265.027527,129.137375 254.217499,139.520538 243.568573,150.064926 
	C242.803986,150.822052 242.556992,152.101883 241.676270,153.670914 
	C230.868698,157.507324 220.454224,160.811493 210.039764,164.115662 
	C211.240036,162.030380 212.053162,159.554672 213.700943,157.920731 
	C228.804916,142.943817 244.086807,128.146500 259.217255,113.196060 
	C261.056213,111.378937 262.307343,108.966866 263.914001,106.498749 
	C270.695770,106.454628 277.394440,106.742279 284.545807,107.098450 
z"/>
<path fill="#000000" opacity="1.000000" stroke="none" 
	d="
M209.872833,164.419586 
	C220.454224,160.811493 230.868698,157.507324 241.639862,154.017975 
	C245.861298,153.555420 249.729233,153.017181 253.589981,153.064713 
	C258.770599,153.128479 263.945648,153.645096 269.559692,153.899536 
	C278.730865,156.218811 287.465454,158.605835 296.580444,161.054779 
	C305.062286,165.994781 313.163727,170.872864 321.572815,175.895126 
	C328.249359,182.852570 334.637451,189.648071 340.968750,196.496094 
	C342.057465,197.673676 342.904602,199.074615 344.036865,200.679581 
	C350.692932,211.271027 355.402527,222.293274 358.091492,234.579636 
	C359.855438,244.606049 362.311768,254.153168 360.112610,264.091522 
	C359.550476,266.631927 359.996765,269.395477 359.930786,272.509613 
	C356.924591,281.991394 354.598267,291.295258 350.817078,299.964539 
	C347.600311,307.339752 343.219879,314.360138 338.442535,320.868195 
	C330.091461,332.244507 319.156708,340.863525 306.840454,347.741791 
	C296.379486,353.583954 285.233643,357.376312 273.188110,359.555298 
	C263.600769,359.931061 254.236969,359.980927 244.436630,360.098511 
	C236.945358,358.436035 229.890610,356.705841 222.444946,354.920166 
	C215.620560,351.661682 209.187103,348.458710 202.437180,345.116882 
	C196.990448,341.065430 191.860184,337.152893 186.425293,333.101562 
	C181.659225,327.724091 177.197769,322.485413 172.428009,317.104767 
	C167.992340,309.080109 163.865021,301.197449 159.430038,293.139587 
	C157.615891,286.377380 155.996765,279.813110 154.655441,273.192566 
	C154.076935,270.337280 154.073288,267.365540 153.465576,264.205750 
	C153.755905,254.944946 154.389175,245.925064 155.073303,236.475494 
	C158.416626,226.958282 161.709106,217.870773 165.058441,208.411697 
	C169.173096,202.408783 173.201096,196.755661 177.295273,191.150864 
	C184.580185,181.178040 194.295074,174.028702 204.706543,167.703033 
	C206.364426,166.695770 208.039017,165.716019 209.872833,164.419586 
M176.992706,242.824860 
	C174.442871,253.973282 175.067764,265.036530 177.980087,276.837280 
	C180.503357,288.146881 185.313919,298.325195 193.225388,307.723999 
	C199.371323,316.578583 207.899597,322.660431 217.321655,328.735992 
	C227.712021,333.571228 238.274918,337.786682 250.838501,337.970001 
	C258.113922,337.645416 265.473328,337.904999 272.647217,336.873962 
	C287.336151,334.762878 300.124023,328.006165 311.105682,318.257721 
	C324.265350,306.575836 333.239807,292.059082 336.520813,274.644012 
	C337.848602,267.596344 337.446991,260.222870 337.966095,252.102448 
	C336.888153,245.249908 336.349823,238.251587 334.551086,231.593765 
	C333.254333,226.793854 330.279541,222.447250 327.984680,217.183517 
	C326.319000,214.438400 325.026764,211.355545 322.911682,209.016876 
	C318.173370,203.777664 313.025726,198.908661 307.757782,193.273285 
	C306.106415,191.973541 304.628693,190.299042 302.773438,189.439240 
	C294.946198,185.811691 287.006439,182.426971 278.672821,178.282715 
	C275.697052,177.636246 272.749878,176.680634 269.740051,176.402039 
	C261.143036,175.606293 252.512283,174.694031 243.121796,176.984924 
	C233.701935,177.777603 225.010803,181.097931 216.969681,185.699905 
	C203.820724,193.225174 192.742477,203.342072 185.877914,216.943726 
	C181.929642,224.766968 180.004501,233.611267 176.992706,242.824860 
z"/>
<path fill="#4655DA" opacity="1.000000" stroke="none" 
	d="
M216.963165,328.119202 
	C207.899597,322.660431 199.371323,316.578583 193.269180,307.127625 
	C203.422729,296.639740 213.555969,286.772125 223.637451,276.851837 
	C246.431274,254.422455 269.193451,231.960922 291.982666,209.526871 
	C297.307739,204.284790 302.689240,199.100052 308.044769,193.888916 
	C313.025726,198.908661 318.173370,203.777664 322.911682,209.016876 
	C325.026764,211.355545 326.319000,214.438400 327.781738,217.780853 
	C313.712067,231.761124 299.769226,245.066223 285.996155,258.544861 
	C264.139404,279.934357 242.380081,301.423584 220.640060,322.931824 
	C219.156158,324.399902 218.177032,326.378204 216.963165,328.119202 
z"/>
<path fill="#4A49D9" opacity="1.000000" stroke="none" 
	d="
M217.142410,328.427612 
	C218.177032,326.378204 219.156158,324.399902 220.640060,322.931824 
	C242.380081,301.423584 264.139404,279.934357 285.996155,258.544861 
	C299.769226,245.066223 313.712067,231.761124 327.815979,218.138306 
	C330.279541,222.447250 333.254333,226.793854 334.551086,231.593765 
	C336.349823,238.251587 336.888153,245.249908 337.552460,252.586395 
	C335.507538,254.132355 333.700012,255.000046 332.276459,256.291107 
	C326.995514,261.080536 321.745728,265.912262 316.655701,270.902985 
	C295.199371,291.940826 273.795441,313.032166 252.416687,334.148834 
	C251.394684,335.158325 250.794876,336.595245 249.998474,337.833099 
	C238.274918,337.786682 227.712021,333.571228 217.142410,328.427612 
z"/>
<path fill="#425FDB" opacity="1.000000" stroke="none" 
	d="
M307.901276,193.581100 
	C302.689240,199.100052 297.307739,204.284790 291.982666,209.526871 
	C269.193451,231.960922 246.431274,254.422455 223.637451,276.851837 
	C213.555969,286.772125 203.422729,296.639740 193.131897,306.818451 
	C185.313919,298.325195 180.503357,288.146881 178.270035,276.349640 
	C180.564651,274.216736 182.587769,272.593353 184.570374,270.921906 
	C189.667435,266.624878 194.746567,262.306549 199.903961,258.368530 
	C200.889496,265.289856 207.494919,268.618195 212.441956,267.950226 
	C217.570709,267.257721 221.986176,261.539154 221.975510,255.466125 
	C221.943634,237.328308 237.646881,222.119446 255.271423,221.988373 
	C261.279907,221.943695 267.141327,217.681580 267.926880,212.662323 
	C268.615356,208.263290 266.209778,201.625137 259.092651,199.513641 
	C260.413086,197.677673 261.506256,196.026749 262.885529,194.665726 
	C268.243652,189.378326 273.692657,184.183029 279.107819,178.953445 
	C287.006439,182.426971 294.946198,185.811691 302.773438,189.439240 
	C304.628693,190.299042 306.106415,191.973541 307.901276,193.581100 
z"/>
<path fill="#4D40D8" opacity="1.000000" stroke="none" 
	d="
M250.418488,337.901550 
	C250.794876,336.595245 251.394684,335.158325 252.416687,334.148834 
	C273.795441,313.032166 295.199371,291.940826 316.655701,270.902985 
	C321.745728,265.912262 326.995514,261.080536 332.276459,256.291107 
	C333.700012,255.000046 335.507538,254.132355 337.485596,253.033997 
	C337.446991,260.222870 337.848602,267.596344 336.520813,274.644012 
	C333.239807,292.059082 324.265350,306.575836 311.105682,318.257721 
	C300.124023,328.006165 287.336151,334.762878 272.647217,336.873962 
	C265.473328,337.904999 258.113922,337.645416 250.418488,337.901550 
z"/>
<path fill="#3E6BDC" opacity="1.000000" stroke="none" 
	d="
M199.832855,257.996735 
	C194.746567,262.306549 189.667435,266.624878 184.570374,270.921906 
	C182.587769,272.593353 180.564651,274.216736 178.221924,275.951477 
	C175.067764,265.036530 174.442871,253.973282 177.398651,242.316086 
	C178.750687,241.152924 179.805496,240.612137 180.626190,239.826721 
	C189.729538,231.114761 198.789932,222.357986 207.875519,213.627426 
	C215.764496,206.046707 223.795731,198.608658 231.521118,190.865143 
	C235.918869,186.457108 239.829453,181.563019 243.959412,176.887802 
	C252.512283,174.694031 261.143036,175.606293 269.740051,176.402039 
	C272.749878,176.680634 275.697052,177.636246 278.890320,178.618073 
	C273.692657,184.183029 268.243652,189.378326 262.885529,194.665726 
	C261.506256,196.026749 260.413086,197.677673 258.635437,199.580627 
	C241.531921,199.423996 227.792404,205.474945 216.219940,217.226959 
	C205.018158,228.602509 199.618652,242.125122 199.832855,257.996735 
z"/>
<path fill="#3C73DD" opacity="1.000000" stroke="none" 
	d="
M243.540604,176.936371 
	C239.829453,181.563019 235.918869,186.457108 231.521118,190.865143 
	C223.795731,198.608658 215.764496,206.046707 207.875519,213.627426 
	C198.789932,222.357986 189.729538,231.114761 180.626190,239.826721 
	C179.805496,240.612137 178.750687,241.152924 177.486603,241.901627 
	C180.004501,233.611267 181.929642,224.766968 185.877914,216.943726 
	C192.742477,203.342072 203.820724,193.225174 216.969681,185.699905 
	C225.010803,181.097931 233.701935,177.777603 243.540604,176.936371 
z"/>
<path fill="#000000" opacity="1.000000" stroke="none" 
	d="
M199.903961,258.368530 
	C199.618652,242.125122 205.018158,228.602509 216.219940,217.226959 
	C227.792404,205.474945 241.531921,199.423996 258.539642,199.898834 
	C266.209778,201.625137 268.615356,208.263290 267.926880,212.662323 
	C267.141327,217.681580 261.279907,221.943695 255.271423,221.988373 
	C237.646881,222.119446 221.943634,237.328308 221.975510,255.466125 
	C221.986176,261.539154 217.570709,267.257721 212.441956,267.950226 
	C207.494919,268.618195 200.889496,265.289856 199.903961,258.368530 
z"/>
</svg>