<svg version="1.1" id="Layer_1" xmlns="http://www.w3.org/2000/svg" xmlns:xlink="http://www.w3.org/1999/xlink" x="0px" y="0px"
	 width="100%" viewBox="0 0 512 512" enable-background="new 0 0 512 512" xml:space="preserve">
<path fill="#FFFFFF" opacity="1.000000" stroke="none" 
	d="
M513.000000,264.000000 
	C513.000000,346.964325 513.000000,429.928619 513.000000,512.946472 
	C342.442383,512.946472 171.884766,512.946472 1.000000,512.946472 
	C1.000000,430.311615 1.000000,347.622772 1.279916,264.660522 
	C4.040580,268.089813 5.933131,272.425293 9.110300,275.378906 
	C19.413027,284.956696 30.049187,294.191010 40.808117,303.259583 
	C62.315948,321.388306 85.939743,336.436127 110.891052,349.257111 
	C124.139458,356.064667 137.969666,361.849274 151.855438,367.282440 
	C174.902924,376.300385 198.889023,381.914917 223.453888,384.922150 
	C227.255173,385.387512 231.154312,385.053314 235.430405,385.068787 
	C244.290817,385.650024 252.725830,386.653137 261.168274,386.720123 
	C267.438293,386.769806 273.717926,385.604950 280.239380,385.277649 
	C290.594543,384.339691 300.813812,383.680786 310.793274,381.769531 
	C350.760986,374.114960 388.193665,359.437469 422.818634,338.255646 
	C441.130493,327.053436 458.759155,314.536346 475.665375,301.296539 
	C489.496796,290.464722 503.695374,279.559143 513.000000,264.000000 
z"/>
<path fill="#FFFFFF" opacity="1.000000" stroke="none" 
	d="
M0.999996,250.000000 
	C1.000000,167.035675 1.000000,84.071358 1.000000,1.053519 
	C171.557602,1.053519 342.115234,1.053519 513.000000,1.053519 
	C513.000000,83.688393 513.000000,166.377213 512.720093,249.339493 
	C509.517792,243.776169 506.240875,238.236526 500.052216,234.779205 
	C499.599487,234.349792 499.296906,234.152603 498.993195,233.982208 
	C498.992035,234.009003 499.045380,234.003510 498.947418,233.762482 
	C498.566223,233.333618 498.283020,233.145813 497.999817,232.982025 
	C497.999847,233.006073 498.043365,232.985641 497.901306,232.683044 
	C492.223938,227.122147 487.133911,221.270340 481.067780,216.719696 
	C464.587280,204.356583 448.100311,191.920105 430.854187,180.681610 
	C411.879517,168.316681 391.668762,158.093872 370.440033,149.892303 
	C349.288544,141.720596 327.808258,134.814468 305.384583,131.357712 
	C294.659210,129.704315 283.757874,129.192123 272.516754,128.132034 
	C261.753906,128.121780 251.410568,128.142517 240.606705,128.088593 
	C226.743896,129.667084 213.206161,130.604050 199.964798,133.108231 
	C160.872070,140.501404 124.553528,155.460144 90.696442,176.099915 
	C74.509392,185.967804 58.924892,196.931076 43.737663,208.293945 
	C33.852722,215.689728 25.175072,224.699127 15.978354,232.995819 
	C16.000158,233.006027 15.999930,232.957870 15.758774,233.055481 
	C15.329976,233.436691 15.142336,233.720276 14.981422,234.006348 
	C15.008149,234.008820 15.005146,233.955215 14.750485,234.059937 
	C14.263098,234.447144 14.030372,234.729660 13.510143,235.166367 
	C9.148425,240.213715 5.074209,245.106857 0.999996,250.000000 
z"/>
<path fill="#D1EFF2" opacity="1.000000" stroke="none" 
	d="
M500.202393,235.011414 
	C506.240875,238.236526 509.517792,243.776169 512.720093,249.806473 
	C513.000000,254.356903 513.000000,258.713806 513.000000,263.535339 
	C503.695374,279.559143 489.496796,290.464722 475.665375,301.296539 
	C458.759155,314.536346 441.130493,327.053436 422.818634,338.255646 
	C388.193665,359.437469 350.760986,374.114960 310.793274,381.769531 
	C300.813812,383.680786 290.594543,384.339691 280.491882,384.992676 
	C300.957825,380.191467 319.872528,372.586487 336.055298,359.029755 
	C336.030975,359.011566 336.009399,359.065765 336.265015,358.966156 
	C336.751953,358.588776 336.983246,358.311005 337.544342,357.985046 
	C341.630219,354.681458 345.673798,351.700989 349.094574,348.124817 
	C367.833588,328.534637 380.127014,305.521759 384.534851,278.663513 
	C387.381958,261.315247 387.010071,243.938065 382.816345,226.770233 
	C377.465912,204.867279 367.179352,185.580811 352.151245,168.712494 
	C356.830322,169.661118 361.330841,170.695282 365.719177,172.084137 
	C407.152191,185.197250 445.971863,204.057953 483.542572,225.680405 
	C488.226288,228.375946 493.202606,230.562988 498.043365,232.985641 
	C498.043365,232.985641 497.999847,233.006073 498.084991,233.231659 
	C498.461884,233.639328 498.753632,233.821411 499.045380,234.003510 
	C499.045380,234.003510 498.992035,234.009003 499.105072,234.242920 
	C499.546204,234.655045 499.874298,234.833237 500.202393,235.011414 
z"/>
<path fill="#D1EFF2" opacity="1.000000" stroke="none" 
	d="
M0.999996,250.464645 
	C5.074209,245.106857 9.148425,240.213715 13.783562,235.079147 
	C14.564703,234.543549 14.784925,234.249390 15.005146,233.955215 
	C15.005146,233.955215 15.008149,234.008820 15.229379,233.915985 
	C15.633718,233.534714 15.816827,233.246292 15.999933,232.957870 
	C15.999930,232.957870 16.000158,233.006027 16.356293,233.019714 
	C17.953785,232.602463 19.295164,232.348572 20.420710,231.712662 
	C29.674713,226.484268 38.827137,221.073807 48.125771,215.927094 
	C80.631729,197.935318 114.338486,182.666534 149.867371,171.621719 
	C153.814941,170.394531 157.972702,169.843491 161.862701,169.266846 
	C160.006119,171.397034 158.188232,173.136230 156.653137,175.096832 
	C132.279572,206.226242 122.510536,241.323746 129.951416,280.288086 
	C138.828293,326.772125 165.887482,359.040253 209.495911,377.204590 
	C217.675552,380.611664 226.487854,382.499786 235.008209,385.088867 
	C231.154312,385.053314 227.255173,385.387512 223.453888,384.922150 
	C198.889023,381.914917 174.902924,376.300385 151.855438,367.282440 
	C137.969666,361.849274 124.139458,356.064667 110.891052,349.257111 
	C85.939743,336.436127 62.315948,321.388306 40.808117,303.259583 
	C30.049187,294.191010 19.413027,284.956696 9.110300,275.378906 
	C5.933131,272.425293 4.040580,268.089813 1.279916,264.193542 
	C1.000000,259.643097 1.000000,255.286194 0.999996,250.464645 
z"/>
<path fill="#6BA5D3" opacity="1.000000" stroke="none" 
	d="
M235.430405,385.068787 
	C226.487854,382.499786 217.675552,380.611664 209.495911,377.204590 
	C165.887482,359.040253 138.828293,326.772125 129.951416,280.288086 
	C122.510536,241.323746 132.279572,206.226242 156.653137,175.096832 
	C158.188232,173.136230 160.006119,171.397034 162.113831,169.117004 
	C163.067123,168.124390 163.599014,167.569580 164.528412,167.005951 
	C168.606049,166.319504 172.286209,165.641907 175.944351,165.327942 
	C172.614929,173.296875 168.324326,180.641174 166.220322,188.565994 
	C162.671051,201.934479 160.109558,215.605621 157.868912,229.270218 
	C155.431335,244.135849 157.271820,258.910736 160.367538,273.807190 
	C162.656296,273.251801 164.573334,272.789368 166.488953,272.321167 
	C170.718292,271.287262 173.716385,273.237762 175.618195,276.680237 
	C177.306946,279.737122 175.223160,284.667511 171.803055,286.423645 
	C170.654419,287.013458 169.287140,287.201111 168.002426,287.497253 
	C165.348480,288.108948 164.367294,289.473419 165.551239,292.164673 
	C167.287415,296.111267 168.685760,300.217560 170.589874,304.077301 
	C180.418167,323.999817 194.924789,339.628906 214.536148,350.106476 
	C222.315308,354.262604 230.750381,357.191010 239.625793,360.995087 
	C240.224823,355.440552 240.530655,351.337433 241.140594,347.280029 
	C241.850830,342.555603 245.213379,339.490387 249.113037,340.083679 
	C253.461960,340.745300 255.903732,343.471893 255.954468,347.927856 
	C255.982544,350.394226 255.806717,352.908630 255.337021,355.326447 
	C253.950241,362.465057 254.722504,363.545959 262.082825,364.015442 
	C262.745880,364.057709 263.407898,364.195190 264.068604,364.183929 
	C278.446533,363.938171 292.853210,364.145935 307.191742,363.256561 
	C316.870819,362.656250 326.453674,360.505280 336.079590,359.047943 
	C319.872528,372.586487 300.957825,380.191467 280.245789,384.696106 
	C273.717926,385.604950 267.438293,386.769806 261.168274,386.720123 
	C252.725830,386.653137 244.290817,385.650024 235.430405,385.068787 
M150.036453,283.283203 
	C152.738495,290.367157 155.332184,291.298431 163.959305,288.041809 
	C162.793808,283.832428 161.619400,279.590851 160.472916,275.450073 
	C153.885101,274.653900 151.562515,276.269440 150.036453,283.283203 
M251.198822,362.932739 
	C247.981094,362.252747 244.763367,361.572723 241.545639,360.892700 
	C241.239456,361.519135 240.933258,362.145569 240.627075,362.772034 
	C242.361893,363.990479 243.964523,365.859222 245.868362,366.246216 
	C247.807861,366.640503 250.049896,365.601074 252.128616,365.068909 
	C252.217178,365.046204 251.995132,363.810303 251.198822,362.932739 
z"/>
<path fill="#659DC8" opacity="1.000000" stroke="none" 
	d="
M241.067215,128.163269 
	C251.410568,128.142517 261.753906,128.121780 272.826080,128.368286 
	C289.106171,130.346329 303.709442,135.276260 317.466187,142.474991 
	C329.572662,148.810120 340.503906,156.919296 349.491730,166.973297 
	C348.118225,166.840851 347.134521,166.745056 346.171082,166.549683 
	C333.776947,164.036575 321.385681,161.509216 308.996307,158.993362 
	C308.998901,159.001251 309.015533,159.001648 308.738098,158.714783 
	C290.034363,156.953079 271.623077,155.225189 253.174271,154.129761 
	C245.945358,153.700531 238.614914,154.482803 231.362473,155.091599 
	C224.466492,155.670502 217.586609,156.579010 210.744995,157.636032 
	C199.826431,159.322937 188.945435,161.252914 178.161774,162.750793 
	C180.651657,158.977997 183.095474,155.577606 185.355209,152.059006 
	C185.884171,151.235352 185.789536,150.011169 186.187134,148.701965 
	C193.861725,144.592239 201.033722,139.921158 208.873367,137.115768 
	C219.333099,133.372772 230.311554,131.079300 241.067215,128.163269 
z"/>
<path fill="#B2CBCE" opacity="1.000000" stroke="none" 
	d="
M240.606705,128.088593 
	C230.311554,131.079300 219.333099,133.372772 208.873367,137.115768 
	C201.033722,139.921158 193.861725,144.592239 185.871216,148.830231 
	C178.276947,155.156799 171.203934,161.085800 164.130905,167.014786 
	C163.599014,167.569580 163.067123,168.124390 162.284103,168.829041 
	C157.972702,169.843491 153.814941,170.394531 149.867371,171.621719 
	C114.338486,182.666534 80.631729,197.935318 48.125771,215.927094 
	C38.827137,221.073807 29.674713,226.484268 20.420710,231.712662 
	C19.295164,232.348572 17.953785,232.602463 16.334488,233.009491 
	C25.175072,224.699127 33.852722,215.689728 43.737663,208.293945 
	C58.924892,196.931076 74.509392,185.967804 90.696442,176.099915 
	C124.553528,155.460144 160.872070,140.501404 199.964798,133.108231 
	C213.206161,130.604050 226.743896,129.667084 240.606705,128.088593 
z"/>
<path fill="#B2CBCE" opacity="1.000000" stroke="none" 
	d="
M349.890961,166.963654 
	C340.503906,156.919296 329.572662,148.810120 317.466187,142.474991 
	C303.709442,135.276260 289.106171,130.346329 273.245575,128.399292 
	C283.757874,129.192123 294.659210,129.704315 305.384583,131.357712 
	C327.808258,134.814468 349.288544,141.720596 370.440033,149.892303 
	C391.668762,158.093872 411.879517,168.316681 430.854187,180.681610 
	C448.100311,191.920105 464.587280,204.356583 481.067780,216.719696 
	C487.133911,221.270340 492.223938,227.122147 497.901306,232.683044 
	C493.202606,230.562988 488.226288,228.375946 483.542572,225.680405 
	C445.971863,204.057953 407.152191,185.197250 365.719177,172.084137 
	C361.330841,170.695282 356.830322,169.661118 351.891296,168.591553 
	C350.897491,168.135025 350.394226,167.549347 349.890961,166.963654 
z"/>
<path fill="#B2CBCE" opacity="1.000000" stroke="none" 
	d="
M500.052216,234.779205 
	C499.874298,234.833237 499.546204,234.655045 499.106232,234.216125 
	C499.296906,234.152603 499.599487,234.349792 500.052216,234.779205 
z"/>
<path fill="#B2CBCE" opacity="1.000000" stroke="none" 
	d="
M14.750486,234.059937 
	C14.784925,234.249390 14.564703,234.543549 14.071064,234.924942 
	C14.030372,234.729660 14.263098,234.447144 14.750486,234.059937 
z"/>
<path fill="#B2CBCE" opacity="1.000000" stroke="none" 
	d="
M498.947418,233.762482 
	C498.753632,233.821411 498.461884,233.639328 498.084961,233.207611 
	C498.283020,233.145813 498.566223,233.333618 498.947418,233.762482 
z"/>
<path fill="#B2CBCE" opacity="1.000000" stroke="none" 
	d="
M15.758776,233.055481 
	C15.816827,233.246292 15.633718,233.534714 15.202652,233.913513 
	C15.142336,233.720276 15.329976,233.436691 15.758776,233.055481 
z"/>
<path fill="#76B7EB" opacity="1.000000" stroke="none" 
	d="
M349.491730,166.973297 
	C350.394226,167.549347 350.897491,168.135025 351.660706,168.841644 
	C367.179352,185.580811 377.465912,204.867279 382.816345,226.770233 
	C387.010071,243.938065 387.381958,261.315247 384.534851,278.663513 
	C380.127014,305.521759 367.833588,328.534637 349.094574,348.124817 
	C345.673798,351.700989 341.630219,354.681458 337.276978,358.071686 
	C336.456299,358.492920 336.232849,358.779327 336.009399,359.065735 
	C336.009399,359.065765 336.030975,359.011566 336.055298,359.029755 
	C326.453674,360.505280 316.870819,362.656250 307.191742,363.256561 
	C292.853210,364.145935 278.446533,363.938171 264.068604,364.183929 
	C263.407898,364.195190 262.745880,364.057709 262.082825,364.015442 
	C254.722504,363.545959 253.950241,362.465057 255.337021,355.326447 
	C255.806717,352.908630 255.982544,350.394226 255.954468,347.927856 
	C255.903732,343.471893 253.461960,340.745300 249.113037,340.083679 
	C245.213379,339.490387 241.850830,342.555603 241.140594,347.280029 
	C240.530655,351.337433 240.224823,355.440552 239.625793,360.995087 
	C230.750381,357.191010 222.315308,354.262604 214.536148,350.106476 
	C194.924789,339.628906 180.418167,323.999817 170.589874,304.077301 
	C168.685760,300.217560 167.287415,296.111267 165.551239,292.164673 
	C164.367294,289.473419 165.348480,288.108948 168.002426,287.497253 
	C169.287140,287.201111 170.654419,287.013458 171.803055,286.423645 
	C175.223160,284.667511 177.306946,279.737122 175.618195,276.680237 
	C173.716385,273.237762 170.718292,271.287262 166.488953,272.321167 
	C164.573334,272.789368 162.656296,273.251801 160.367538,273.807190 
	C157.271820,258.910736 155.431335,244.135849 157.868912,229.270218 
	C160.109558,215.605621 162.671051,201.934479 166.220322,188.565994 
	C168.324326,180.641174 172.614929,173.296875 176.103760,165.090027 
	C176.872955,164.019012 177.460754,163.549561 178.048553,163.080109 
	C188.945435,161.252914 199.826431,159.322937 210.744995,157.636032 
	C217.586609,156.579010 224.466492,155.670502 231.362473,155.091599 
	C238.614914,154.482803 245.945358,153.700531 253.174271,154.129761 
	C271.623077,155.225189 290.034363,156.953079 308.301697,158.712357 
	C304.236115,158.707779 300.304413,158.635208 298.015900,162.584763 
	C295.938202,166.170471 293.816986,169.806015 292.383575,173.667770 
	C291.084167,177.168594 291.807648,180.624878 295.527557,182.662354 
	C299.397003,184.781693 302.648407,183.669052 305.062775,180.311203 
	C306.893616,177.764877 308.209259,174.854630 309.928070,172.219772 
	C312.990479,167.525345 312.563568,163.166748 308.993713,158.985474 
	C321.385681,161.509216 333.776947,164.036575 346.171082,166.549683 
	C347.134521,166.745056 348.118225,166.840851 349.491730,166.973297 
M320.803680,252.952225 
	C323.874054,252.272049 327.061951,251.916992 329.994873,250.856628 
	C344.329803,245.673904 352.178833,229.651688 347.905731,214.653641 
	C343.692017,199.863983 328.185638,190.688721 313.275299,193.708954 
	C305.480988,195.287750 299.981689,200.073624 293.799591,205.057449 
	C291.932739,203.964691 290.068268,202.867905 288.198700,201.779800 
	C275.274780,194.257996 261.183044,192.154251 246.732513,194.459808 
	C214.756042,199.561630 192.616104,228.118500 193.702652,259.521454 
	C194.864166,293.091553 224.744125,325.710693 266.675598,319.648376 
	C299.812195,314.857605 322.751160,284.950623 320.803680,252.952225 
M342.579315,325.913757 
	C345.452637,321.817688 344.000000,318.319489 340.784668,315.392273 
	C338.228210,313.064911 335.385223,311.024292 332.529022,309.060638 
	C328.153900,306.052704 324.255829,306.489777 321.568848,310.068512 
	C319.068268,313.399048 319.886261,318.001373 323.650360,321.059357 
	C326.214172,323.142242 328.957062,325.004517 331.522705,327.085297 
	C335.252930,330.110565 338.710175,329.923157 342.579315,325.913757 
M362.828156,285.882507 
	C361.131409,283.941650 359.780762,281.364014 357.656616,280.209595 
	C354.497223,278.492554 350.807159,277.729309 347.313599,276.655762 
	C343.127747,275.369476 338.619629,277.252838 337.257141,280.760315 
	C335.912903,284.220795 337.896790,289.170013 341.762695,290.681366 
	C345.447601,292.122009 349.331482,293.260956 353.231506,293.895355 
	C358.968658,294.828644 361.369141,292.803040 362.828156,285.882507 
M211.168732,170.319656 
	C209.834122,168.438309 208.871048,165.587296 207.078720,164.900558 
	C204.319412,163.843353 200.454803,163.211395 198.079514,164.414139 
	C196.280853,165.324890 194.613434,170.021271 195.443298,171.910156 
	C197.602020,176.823639 200.762680,181.488602 204.388565,185.463760 
	C205.690338,186.890945 209.838867,186.951599 212.020813,186.039490 
	C214.850327,184.856674 217.194733,182.042023 215.573227,178.315750 
	C214.461502,175.760986 212.915253,173.395309 211.168732,170.319656 
z"/>
<path fill="#6BA5D3" opacity="1.000000" stroke="none" 
	d="
M336.265015,358.966125 
	C336.232849,358.779327 336.456299,358.492920 336.947144,358.119873 
	C336.983246,358.311005 336.751953,358.588776 336.265015,358.966125 
z"/>
<path fill="#6094BF" opacity="1.000000" stroke="none" 
	d="
M150.024414,282.891357 
	C151.562515,276.269440 153.885101,274.653900 160.472916,275.450073 
	C161.619400,279.590851 162.793808,283.832428 163.959305,288.041809 
	C155.332184,291.298431 152.738495,290.367157 150.024414,282.891357 
z"/>
<path fill="#5D8EB5" opacity="1.000000" stroke="none" 
	d="
M178.161774,162.750793 
	C177.460754,163.549561 176.872955,164.019012 176.125763,164.726395 
	C172.286209,165.641907 168.606049,166.319504 164.528412,167.005951 
	C171.203934,161.085800 178.276947,155.156799 185.665894,149.099533 
	C185.789536,150.011169 185.884171,151.235352 185.355209,152.059006 
	C183.095474,155.577606 180.651657,158.977997 178.161774,162.750793 
z"/>
<path fill="#6094BF" opacity="1.000000" stroke="none" 
	d="
M251.558319,363.036163 
	C251.995132,363.810303 252.217178,365.046204 252.128616,365.068909 
	C250.049896,365.601074 247.807861,366.640503 245.868362,366.246216 
	C243.964523,365.859222 242.361893,363.990479 240.627075,362.772034 
	C240.933258,362.145569 241.239456,361.519135 241.545639,360.892700 
	C244.763367,361.572723 247.981094,362.252747 251.558319,363.036163 
z"/>
<path fill="#38648C" opacity="1.000000" stroke="none" 
	d="
M319.992218,253.097427 
	C322.751160,284.950623 299.812195,314.857605 266.675598,319.648376 
	C224.744125,325.710693 194.864166,293.091553 193.702652,259.521454 
	C192.616104,228.118500 214.756042,199.561630 246.732513,194.459808 
	C261.183044,192.154251 275.274780,194.257996 288.198700,201.779800 
	C290.068268,202.867905 291.932739,203.964691 294.058197,205.490265 
	C291.226074,211.882599 288.680939,218.035812 289.398529,224.924576 
	C291.152954,241.767014 302.139191,251.814148 319.992218,253.097427 
z"/>
<path fill="#FEFEFF" opacity="1.000000" stroke="none" 
	d="
M320.397949,253.024826 
	C302.139191,251.814148 291.152954,241.767014 289.398529,224.924576 
	C288.680939,218.035812 291.226074,211.882599 294.435120,205.574402 
	C299.981689,200.073624 305.480988,195.287750 313.275299,193.708954 
	C328.185638,190.688721 343.692017,199.863983 347.905731,214.653641 
	C352.178833,229.651688 344.329803,245.673904 329.994873,250.856628 
	C327.061951,251.916992 323.874054,252.272049 320.397949,253.024826 
z"/>
<path fill="#6AA5D4" opacity="1.000000" stroke="none" 
	d="
M342.302460,326.198608 
	C338.710175,329.923157 335.252930,330.110565 331.522705,327.085297 
	C328.957062,325.004517 326.214172,323.142242 323.650360,321.059357 
	C319.886261,318.001373 319.068268,313.399048 321.568848,310.068512 
	C324.255829,306.489777 328.153900,306.052704 332.529022,309.060638 
	C335.385223,311.024292 338.228210,313.064911 340.784668,315.392273 
	C344.000000,318.319489 345.452637,321.817688 342.302460,326.198608 
z"/>
<path fill="#6AA5D4" opacity="1.000000" stroke="none" 
	d="
M308.996307,158.993362 
	C312.563568,163.166748 312.990479,167.525345 309.928070,172.219772 
	C308.209259,174.854630 306.893616,177.764877 305.062775,180.311203 
	C302.648407,183.669052 299.397003,184.781693 295.527557,182.662354 
	C291.807648,180.624878 291.084167,177.168594 292.383575,173.667770 
	C293.816986,169.806015 295.938202,166.170471 298.015900,162.584763 
	C300.304413,158.635208 304.236115,158.707779 308.579102,158.999222 
	C309.015533,159.001648 308.998901,159.001251 308.996307,158.993362 
z"/>
<path fill="#6AA5D4" opacity="1.000000" stroke="none" 
	d="
M362.884949,286.256470 
	C361.369141,292.803040 358.968658,294.828644 353.231506,293.895355 
	C349.331482,293.260956 345.447601,292.122009 341.762695,290.681366 
	C337.896790,289.170013 335.912903,284.220795 337.257141,280.760315 
	C338.619629,277.252838 343.127747,275.369476 347.313599,276.655762 
	C350.807159,277.729309 354.497223,278.492554 357.656616,280.209595 
	C359.780762,281.364014 361.131409,283.941650 362.884949,286.256470 
z"/>
<path fill="#6AA5D4" opacity="1.000000" stroke="none" 
	d="
M211.365997,170.632385 
	C212.915253,173.395309 214.461502,175.760986 215.573227,178.315750 
	C217.194733,182.042023 214.850327,184.856674 212.020813,186.039490 
	C209.838867,186.951599 205.690338,186.890945 204.388565,185.463760 
	C200.762680,181.488602 197.602020,176.823639 195.443298,171.910156 
	C194.613434,170.021271 196.280853,165.324890 198.079514,164.414139 
	C200.454803,163.211395 204.319412,163.843353 207.078720,164.900558 
	C208.871048,165.587296 209.834122,168.438309 211.365997,170.632385 
z"/>
</svg>