<?xml version="1.0" encoding="UTF-8"?>
<svg version="1.1" xmlns="http://www.w3.org/2000/svg" width="512" height="512">
<path d="M0 0 C10.03195241 7.20655405 16.99064902 16.76106961 19.25 29.1875 C19.39019707 32.86266603 19.34972397 36.51228829 19.25 40.1875 C19.91140488 40.27418442 20.57280975 40.36086884 21.2542572 40.45018005 C32.99165252 42.11711978 44.53995345 44.69023217 56.12890625 47.16015625 C58.43238711 47.64844126 60.73593129 48.13642762 63.03953552 48.62413025 C67.84167897 49.64154487 72.64332807 50.66124832 77.44458008 51.68286133 C83.60084748 52.99279464 89.75790787 54.2989515 95.91528416 55.60366154 C101.79923281 56.85052296 107.68285721 58.09891069 113.56640625 59.34765625 C114.68762941 59.58556444 115.80885258 59.82347263 116.9640522 60.06859016 C120.12798512 60.74029489 123.29169331 61.41304693 126.45532227 62.08618164 C127.86183044 62.38464996 127.86183044 62.38464996 129.29675293 62.68914795 C130.15853653 62.87274368 131.02032013 63.05633942 131.90821838 63.24549866 C132.65457833 63.40421479 133.40093828 63.56293093 134.1699152 63.72645664 C136.20672754 64.17790881 138.22862505 64.67167279 140.25 65.1875 C140.34539062 64.18074219 140.44078125 63.17398438 140.5390625 62.13671875 C141.13275493 58.04763648 142.66584169 54.61015585 144.625 51 C144.9758667 50.35289063 145.3267334 49.70578125 145.68823242 49.0390625 C154.60683829 33.32100878 168.51572124 23.75774479 185.66796875 18.4375 C202.25433275 14.43676898 219.97445769 17.39254745 234.54785156 26.06738281 C248.61070008 35.32159236 258.98285972 49.58451809 262.78198242 65.99267578 C266.10364748 82.43501779 263.60068826 98.82170288 255.13671875 113.42578125 C245.96508927 126.85092005 233.68176488 136.04357837 218.25 141.1875 C218.82452238 150.7992005 220.05354682 160.23655448 221.56665039 169.73657227 C221.80369057 171.24915253 222.04027488 172.76180428 222.27644348 174.27452087 C222.78151631 177.50344851 223.28970956 180.73186304 223.80043221 183.95990181 C224.60807127 189.06497454 225.40832551 194.17118874 226.20762634 199.27757263 C227.61525678 208.26427727 229.02900318 217.25001147 230.44415283 226.23553467 C232.57921678 239.79247546 234.70951324 253.35016404 236.83387941 266.90878528 C237.62950231 271.98527276 238.42837995 277.06123419 239.22984898 282.13680184 C239.7266525 285.28659616 240.22097567 288.43677617 240.71465874 291.58706093 C240.94417286 293.0481517 241.17474528 294.50907669 241.40644836 295.96982193 C241.72230236 297.96194697 242.03405706 299.95472067 242.34559631 301.94752502 C242.52128175 303.06260217 242.69696718 304.17767931 242.87797642 305.32654667 C243.25 308.1875 243.25 308.1875 243.25 312.1875 C243.89324219 312.14109375 244.53648437 312.0946875 245.19921875 312.046875 C259.30481368 311.48345609 272.20310461 317.00461383 282.59765625 326.4453125 C294.5526088 339.05029793 297.76570706 353.1861387 297.5234375 369.8984375 C297.0422068 383.42530825 290.16260306 395.23543193 280.40625 404.41015625 C268.50795683 414.21762616 254.48457902 418.18831176 239.25 417.1875 C225.48003519 415.08820304 212.38021552 408.61375972 203.85498047 397.34326172 C202.63391748 395.63840559 201.43971859 393.91437548 200.25 392.1875 C185.45859463 398.01841036 170.74459735 404.02515015 156.0625 410.125 C155.2049411 410.48127472 154.3473822 410.83754944 153.46383667 411.20462036 C149.87878101 412.69424336 146.29381388 414.18407914 142.70896912 415.67420959 C131.93674862 420.15092353 121.15666358 424.60858474 110.375 429.0625 C109.40396332 429.46368042 108.43292664 429.86486084 107.4324646 430.27819824 C92.05757519 436.628917 76.66810206 442.94232909 61.25 449.1875 C61.26957764 450.47986572 61.26957764 450.47986572 61.28955078 451.79833984 C61.42708189 467.33498944 58.13829144 480.70346434 47.28515625 492.34375 C43.31305765 495.94227311 38.95324094 498.64607706 34.25 501.1875 C33.44175781 501.62449219 32.63351563 502.06148438 31.80078125 502.51171875 C21.42359471 507.15457301 7.4032263 506.84591885 -3.375 503.625 C-17.02480719 498.15737625 -26.58928769 488.09095983 -32.7890625 474.9921875 C-36.87295834 464.0381865 -36.24218629 449.53981545 -32.03515625 438.7734375 C-30.32256186 435.32742691 -28.32328437 432.20444721 -26.01953125 429.125 C-24.64896683 427.03330783 -24.07040161 425.66267457 -23.75 423.1875 C-24.63801188 421.38507578 -24.63801188 421.38507578 -26.14453125 419.75390625 C-26.68287598 419.11179199 -27.2212207 418.46967773 -27.77587891 417.80810547 C-28.36546387 417.12893066 -28.95504883 416.44975586 -29.5625 415.75 C-30.77614967 414.30717451 -31.98837434 412.86314926 -33.19921875 411.41796875 C-33.80427246 410.7017334 -34.40932617 409.98549805 -35.03271484 409.24755859 C-37.39705425 406.41129247 -39.63804557 403.50053547 -41.875 400.5625 C-45.28134521 396.09958244 -48.71484772 391.66152062 -52.1875 387.25 C-52.64745361 386.66557129 -53.10740723 386.08114258 -53.58129883 385.47900391 C-54.9704271 383.71482315 -56.36017398 381.9511311 -57.75 380.1875 C-64.37952832 371.77047964 -70.97761923 363.32988653 -77.55126953 354.86914062 C-82.48658931 348.51966972 -87.44850748 342.19158164 -92.42333984 335.87304688 C-94.24038606 333.56445521 -96.05538795 331.25426088 -97.87011719 328.94384766 C-98.78312648 327.78174772 -99.69653191 326.6199589 -100.61035156 325.45849609 C-102.99721765 322.42401079 -105.37673531 319.38411828 -107.74609375 316.3359375 C-108.23851563 315.70429688 -108.7309375 315.07265625 -109.23828125 314.421875 C-110.17669638 313.21787068 -111.11303279 312.01224209 -112.046875 310.8046875 C-114.44764921 307.72937552 -116.92255353 304.87718225 -119.75 302.1875 C-120.45382813 302.58582031 -121.15765625 302.98414063 -121.8828125 303.39453125 C-136.8645823 311.43305265 -152.53980129 313.31642427 -169.07421875 309.34375 C-185.39795967 304.20897071 -199.2675171 294.31535052 -207.75 279.1875 C-215.24224361 263.74225983 -217.96854055 245.70825917 -213.125 228.9375 C-212.39323435 226.99717367 -211.60330517 225.07753109 -210.75 223.1875 C-210.32589844 222.24003906 -209.90179688 221.29257813 -209.46484375 220.31640625 C-205.95938022 213.27618562 -201.27785817 207.73438694 -195.75 202.1875 C-194.82767578 201.23037109 -194.82767578 201.23037109 -193.88671875 200.25390625 C-182.39433873 189.20448735 -166.54899296 184.70532333 -150.92919922 184.7565918 C-142.03969932 185.053194 -132.65670224 187.07041336 -124.75 191.1875 C-119.77532081 183.98351856 -115.33420592 176.50344151 -110.9375 168.9375 C-110.19333076 167.66185474 -109.44885832 166.38638632 -108.70410156 165.11108398 C-107.15815058 162.46325807 -105.61349536 159.81468301 -104.06982422 157.16552734 C-100.74690284 151.46484096 -97.41034729 145.77215044 -94.07290649 140.07995605 C-92.99717299 138.24517824 -91.92179728 136.41019104 -90.84643555 134.57519531 C-87.17626263 128.31402377 -83.49834081 122.0575407 -79.80200195 115.81176758 C-78.77767006 114.07973304 -77.75532897 112.34651939 -76.73510742 110.61206055 C-73.95936568 105.89701222 -71.15627525 101.20062621 -68.3130188 96.52606201 C-66.69975566 93.86779324 -65.09955054 91.20178996 -63.50097656 88.53466797 C-62.7130097 87.22710916 -61.9192756 85.92300736 -61.11962891 84.62255859 C-60.00366845 82.80636928 -58.90820563 80.97922229 -57.81640625 79.1484375 C-57.17646729 78.09446777 -56.53652832 77.04049805 -55.87719727 75.95458984 C-54.4514964 73.29788386 -54.4514964 73.29788386 -55.46142578 70.93603516 C-56.92485039 68.95023618 -58.46015518 67.06341589 -60.0625 65.1875 C-67.6722832 55.57597843 -70.68761586 44.30831593 -69.75 32.1875 C-67.76471144 20.19760765 -62.82441309 10.38133682 -53.75 2.1875 C-37.22837499 -9.34687916 -17.27457664 -10.77494496 0 0 Z M17.25 51.1875 C16.8375 52.033125 16.425 52.87875 16 53.75 C11.44320581 62.70084574 6.39785034 69.22565829 -1.75 75.1875 C-1.14139247 78.59513593 -0.28621336 81.69646406 0.95239258 84.92675781 C1.29977982 85.83830627 1.64716705 86.74985474 2.00508118 87.68902588 C2.3810997 88.66305359 2.75711823 89.6370813 3.14453125 90.640625 C3.53315842 91.65541931 3.92178558 92.67021362 4.32218933 93.71575928 C5.14493549 95.86153052 5.96963383 98.00655413 6.79614258 100.15087891 C8.0518834 103.40994637 9.30084999 106.67154702 10.54882812 109.93359375 C11.35115922 112.02359236 12.15388114 114.11344099 12.95703125 116.203125 C13.51195 117.65202118 13.51195 117.65202118 14.07807922 119.13018799 C16.30433395 124.8957627 18.67855075 130.56719295 21.25 136.1875 C21.97864258 136.05327637 22.70728516 135.91905273 23.45800781 135.78076172 C24.71629395 135.54897217 24.71629395 135.54897217 26 135.3125 C26.88171875 135.15007812 27.7634375 134.98765625 28.671875 134.8203125 C30.44304687 134.50707031 30.44304687 134.50707031 32.25 134.1875 C33.09433594 134.02137207 33.93867188 133.85524414 34.80859375 133.68408203 C68.10723786 127.49893669 99.81137169 134.48398304 128.25 152.1875 C131.99510807 147.6028685 135.73033544 143.01049072 139.453125 138.40771484 C140.61535816 136.97166207 141.77930685 135.53699529 142.9453125 134.10400391 C144.49186594 132.20023024 146.02848071 130.28887899 147.5625 128.375 C148.03598877 127.79540527 148.50947754 127.21581055 148.99731445 126.61865234 C151.69758704 123.32629104 151.69758704 123.32629104 152.25 119.1875 C151.09903537 117.26761997 151.09903537 117.26761997 149.5625 115.25 C142.76843615 105.38816737 139.49711316 94.74368367 138.703125 82.9296875 C138.61708008 81.66753418 138.53103516 80.40538086 138.44238281 79.10498047 C138.37889648 78.14221191 138.31541016 77.17944336 138.25 76.1875 C114.76866398 71.01058447 91.26131375 65.95972946 67.73974609 60.96899414 C62.88188352 59.93801004 58.02505822 58.90221565 53.16840744 57.8655405 C49.38582629 57.05905757 45.60249547 56.25613705 41.81894684 55.45420647 C40.02449959 55.07320683 38.23034073 54.69084617 36.43648529 54.30706978 C33.95811976 53.77716662 31.47873204 53.25233634 28.99902344 52.72875977 C28.2688652 52.57144379 27.53870697 52.41412781 26.78642273 52.25204468 C23.49671562 51.56265599 20.63344015 51.1875 17.25 51.1875 Z M-43.75 78.1875 C-48.15309808 84.61028646 -52.17436244 91.19272523 -56.0625 97.9375 C-57.29916516 100.06919261 -58.53615897 102.20069459 -59.7734375 104.33203125 C-60.42022461 105.44787598 -61.06701172 106.5637207 -61.73339844 107.71337891 C-65.2020983 113.69326193 -68.69347747 119.65988807 -72.1875 125.625 C-72.54500336 126.23562286 -72.90250671 126.84624573 -73.27084351 127.47537231 C-78.24988104 135.97592567 -83.28782537 144.43856783 -88.375 152.875 C-97.4004302 167.84462388 -106.08478296 183.00724384 -114.75 198.1875 C-114.10933594 198.72117187 -113.46867187 199.25484375 -112.80859375 199.8046875 C-98.43610788 212.18515968 -92.96194189 225.93014611 -89.75 244.1875 C-80.18 244.1875 -70.61 244.1875 -60.75 244.1875 C-60.358125 241.2175 -59.96625 238.2475 -59.5625 235.1875 C-54.93871641 203.11425593 -38.73959893 174.20690647 -12.6875 154.625 C-5.18966068 149.11824823 2.84564465 145.10667516 11.25 141.1875 C6.80609037 128.26304975 1.94385555 115.52834855 -3.0625 102.8125 C-4.1539542 100.03337661 -5.24459208 97.25393557 -6.33451843 94.47421265 C-7.00567829 92.76320844 -7.67784226 91.05259766 -8.35115051 89.34243774 C-8.65204086 88.57668427 -8.95293121 87.81093079 -9.26293945 87.02197266 C-9.52685989 86.35154938 -9.79078033 85.6811261 -10.06269836 84.99038696 C-10.66715524 83.40481322 -11.21339845 81.79730465 -11.75 80.1875 C-12.39960693 80.19797363 -13.04921387 80.20844727 -13.71850586 80.21923828 C-16.70813001 80.26122962 -19.69769179 80.28696167 -22.6875 80.3125 C-23.70908203 80.32925781 -24.73066406 80.34601563 -25.78320312 80.36328125 C-32.10688352 80.40368815 -37.63316527 79.80760013 -43.75 78.1875 Z M160.25 129.1875 C152.33617726 138.67935151 144.52743536 148.19546574 137.25 158.1875 C140.18922747 161.70023527 143.08380462 165.06872531 146.4375 168.1875 C156.48869148 178.17198003 163.5386713 190.33869617 169.25 203.1875 C169.73210937 204.25355469 170.21421875 205.31960937 170.7109375 206.41796875 C182.6415398 234.94295425 181.48161685 268.75745216 170.125 297.1875 C168.3037101 301.59554338 166.41094027 305.93459829 164.25 310.1875 C176.75821071 318.12609218 189.46881033 325.69763802 202.25 333.1875 C202.97960937 332.445 203.70921875 331.7025 204.4609375 330.9375 C211.68060279 323.81895047 218.89471368 319.04319309 228.25 315.1875 C229.58665146 314.52751129 230.92055477 313.86188683 232.25 313.1875 C231.01927115 302.15094271 229.55998664 291.18069266 227.81982422 280.21264648 C227.58279882 278.70281292 227.34606271 277.19293392 227.10958862 275.68301392 C226.47627414 271.64443127 225.8389937 267.60648402 225.20091391 263.56865191 C224.53124138 259.3263375 223.86533639 255.08343169 223.19900513 250.84059143 C221.94088341 242.83319349 220.67945007 234.82632105 219.41677964 226.81963927 C217.97763686 217.69286337 216.54225761 208.56549681 215.10716987 199.43808258 C212.1589211 180.68723539 209.20602595 161.93712263 206.25 143.1875 C205.03038574 143.06270264 203.81077148 142.93790527 202.55419922 142.80932617 C200.9293358 142.63745434 199.3045 142.46532132 197.6796875 142.29296875 C196.87877686 142.21171753 196.07786621 142.13046631 195.25268555 142.04675293 C184.17030835 140.85713518 175.16929373 137.59676296 165.7109375 131.67578125 C163.2537423 130.06633634 163.2537423 130.06633634 160.25 129.1875 Z M-89.75 255.1875 C-90.28625 257.415 -90.8225 259.6425 -91.375 261.9375 C-94.18126015 272.75609233 -98.76783392 281.57482724 -106.015625 290.12890625 C-107.88832648 292.27377646 -107.88832648 292.27377646 -109.75 295.1875 C-108.63306383 296.60905513 -107.51612419 298.03060753 -106.39916992 299.45214844 C-105.40839 300.71317115 -104.4176692 301.97424032 -103.42700195 303.23535156 C-100.97350435 306.35847609 -98.51938371 309.48110082 -96.0625 312.6015625 C-90.33175575 319.88280272 -84.6337388 327.1888576 -78.94873047 334.50585938 C-74.01341069 340.85533028 -69.05149252 347.18341836 -64.07666016 353.50195312 C-61.33779692 356.98173078 -58.6031747 360.46484312 -55.86767578 363.94726562 C-53.61492288 366.81484065 -51.36131111 369.68172954 -49.10546875 372.546875 C-43.96573318 379.07736255 -38.84936901 385.62543546 -33.75 392.1875 C-32.56643078 393.70835243 -31.38283726 395.22918594 -30.19921875 396.75 C-27.96609757 399.61999509 -25.7401776 402.49534519 -23.51953125 405.375 C-22.53398563 406.64593528 -21.5483157 407.91677419 -20.5625 409.1875 C-19.89444336 410.05955078 -19.89444336 410.05955078 -19.21289062 410.94921875 C-17.18073414 413.55973393 -15.5339085 415.331561 -12.75 417.1875 C-10.13172343 416.3786761 -10.13172343 416.3786761 -7.3125 414.9375 C1.15262654 411.17636024 9.04993991 410.14216617 18.25 410.1875 C19.53896746 404.86898561 20.82049139 399.54875299 22.09521484 394.22680664 C22.52970616 392.41739819 22.96621106 390.60847201 23.40478516 388.80004883 C24.03560615 386.19737582 24.65911454 383.59304222 25.28125 380.98828125 C25.47811401 380.18288406 25.67497803 379.37748688 25.87780762 378.54768372 C26.79336184 374.68392924 27.50263373 371.19104293 27.25 367.1875 C26.280625 366.8471875 25.31125 366.506875 24.3125 366.15625 C-9.16689395 354.16016993 -34.59485698 333.09029664 -50.1875 300.75 C-56.67815312 285.95131089 -59.41321109 271.22896686 -60.75 255.1875 C-70.32 255.1875 -79.89 255.1875 -89.75 255.1875 Z M158.25 320.1875 C156.3057145 322.31724043 154.4576474 324.4649755 152.625 326.6875 C151.52678019 327.98740383 150.42652645 329.28559211 149.32421875 330.58203125 C148.79103027 331.20932129 148.2578418 331.83661133 147.70849609 332.48291016 C136.63427625 345.42569605 122.69072613 354.30780772 107.25 361.1875 C106.19554687 361.66960937 105.14109375 362.15171875 104.0546875 362.6484375 C82.81708472 371.61059724 60.82306021 370.66714986 38.25 370.1875 C36.93663293 375.5045613 35.63698976 380.82472121 34.34985352 386.14819336 C33.9102371 387.95802591 33.46690919 389.76696117 33.01977539 391.57495117 C32.37705089 394.17659128 31.74782168 396.7811852 31.12109375 399.38671875 C30.8180558 400.59481453 30.8180558 400.59481453 30.50889587 401.82731628 C29.15581488 407.51132512 29.15581488 407.51132512 30.25 413.1875 C32.49043645 414.85077325 32.49043645 414.85077325 35.3125 416.0625 C44.78731506 420.88581907 52.78947005 427.80591014 56.25 438.1875 C60.87722832 437.49578927 64.98531137 435.77552345 69.265625 433.96875 C70.05625839 433.6394046 70.84689178 433.3100592 71.66148376 432.97073364 C74.2760955 431.88051621 76.8879941 430.7839442 79.5 429.6875 C81.34916064 428.91536272 83.19852949 428.14372388 85.0480957 427.37255859 C88.8885169 425.77083873 92.72803342 424.16697864 96.56689453 422.56152344 C104.35389269 419.30650176 112.15048848 416.0747039 119.94772339 412.84429932 C122.44469644 411.80951769 124.9412671 410.77377063 127.43774414 409.73779297 C136.90093614 405.8118387 146.36989369 401.90015148 155.84375 398 C157.96331174 397.12682486 160.08285936 396.25361547 162.20239258 395.38037109 C166.28455658 393.69854857 170.36790308 392.01964055 174.4519043 390.34228516 C176.31563968 389.57465895 178.17933013 388.80692362 180.04296875 388.0390625 C180.88794922 387.69294922 181.73292969 387.34683594 182.60351562 386.99023438 C186.91111625 385.21235494 191.11025747 383.33761499 195.25 381.1875 C194.99863281 379.46466797 194.99863281 379.46466797 194.7421875 377.70703125 C193.02835933 365.03401112 194.10961597 354.56274214 197.25 342.1875 C196.59104736 341.80529297 195.93209473 341.42308594 195.25317383 341.02929688 C192.18860153 339.25043748 189.12532438 337.4693673 186.0625 335.6875 C184.41967041 334.73206299 184.41967041 334.73206299 182.74365234 333.75732422 C175.90159775 329.76688627 169.12454352 325.70220907 162.4453125 321.4453125 C160.3824619 320.02178793 160.3824619 320.02178793 158.25 320.1875 Z " fill="#010202" transform="translate(214.75,6.8125)"/>
<path d="M0 0 C22.46830298 17.86916891 36.56967378 42.03090042 42 70 C42.28810547 71.38445312 42.28810547 71.38445312 42.58203125 72.796875 C46.5257316 103.01962537 38.23462634 131.81798726 20 156 C18.36001486 158.02496085 16.68863983 160.01494999 15 162 C14.360625 161.731875 13.72125 161.46375 13.0625 161.1875 C6.30985005 158.56912553 -0.45908693 156.59024702 -7.51464844 154.95898438 C-15.96376421 152.99357007 -24.25259981 150.90153174 -32.25 147.5 C-32.88623291 147.23993164 -33.52246582 146.97986328 -34.17797852 146.71191406 C-38.62073823 144.69553295 -40.83036287 142.33927425 -43 138 C-43.53515625 134.859375 -43.53515625 134.859375 -43 132 C-41.05859375 130.015625 -41.05859375 130.015625 -38.4375 128.25 C-30.47026136 122.28582418 -26.5279652 116.13266824 -23.6875 106.625 C-21.67046575 100.46073031 -21.67046575 100.46073031 -18.71484375 98.4296875 C-16.125 97.5 -16.125 97.5 -13.50390625 96.765625 C-8.82211146 95.33406216 -5.42311841 92.35831051 -2.90625 88.1875 C-0.37639494 82.37820319 0.26495821 75.77541372 -1.76171875 69.7265625 C-3.20357231 66.66048656 -4.45683631 64.46779617 -7.04980469 62.23461914 C-9.48408449 59.4453148 -9.48576439 58.11178385 -9.46875 54.45703125 C-9.48292969 53.38259766 -9.49710938 52.30816406 -9.51171875 51.20117188 C-9.50397379 48.96158831 -9.49616248 46.72200497 -9.48828125 44.48242188 C-9.59517306 36.33435078 -10.79000272 30.03838368 -15.9375 23.5625 C-17.93143113 21.83673085 -17.93143113 21.83673085 -20.5625 21.375 C-23 20 -23 20 -23.84375 17.8671875 C-24.33129962 16.09187096 -24.80616563 14.31303163 -25.26953125 12.53125 C-27.0944618 6.2074265 -31.5937169 1.53449448 -37 -2 C-53.80960403 -9.79826991 -75.67472026 -9.12432455 -93 -3 C-97.29762163 -1.02009135 -101.14563348 1.26383706 -105 4 C-105.89912109 4.59941406 -105.89912109 4.59941406 -106.81640625 5.2109375 C-115.24961299 11.42024377 -122.16073374 23.70482787 -124 34 C-124.29559704 39.48826715 -124.27028523 44.98950792 -124.21484375 50.484375 C-124.35738483 60.0017333 -124.35738483 60.0017333 -127.9609375 64.16796875 C-128.96661531 65.11979805 -129.97855601 66.06511014 -131 67 C-133.74129694 71.61036304 -133.6124267 76.79049695 -133 82 C-131.24879053 88.54344137 -127.90478529 93.55650486 -122 97 C-120.46512252 97.36331577 -118.92274112 97.69611738 -117.375 98 C-115.05859375 98.65625 -115.05859375 98.65625 -113 100 C-111.38236736 103.35241972 -110.36980192 106.72388887 -109.29296875 110.28515625 C-106.56192091 118.13176198 -101.68821466 123.99614416 -95 128.8125 C-91.09394232 131.64590972 -91.09394232 131.64590972 -90.1875 135.0625 C-91.45076784 139.62969911 -92.87537307 142.62697035 -96.9765625 145.27734375 C-107.70825603 150.60912164 -119.95489572 153.2038937 -131.515625 156.1640625 C-132.19463867 156.33929443 -132.87365234 156.51452637 -133.57324219 156.69506836 C-135.36928743 157.1540931 -137.16890235 157.5990874 -138.96875 158.04296875 C-142.0565895 158.88227003 -142.0565895 158.88227003 -144.71875 160.67578125 C-145.4715625 161.11277344 -146.224375 161.54976562 -147 162 C-156.54163363 158.81945546 -163.69188163 141.57010186 -168 133 C-179.88119886 108.17948025 -180.54222031 77.65130874 -171.609375 51.8125 C-165.53968408 35.43689529 -156.10306376 21.51126153 -144 9 C-143.28714844 8.26136719 -142.57429688 7.52273437 -141.83984375 6.76171875 C-126.19734507 -8.34415904 -106.01960074 -16.80038715 -85 -21 C-84.07445312 -21.19335938 -83.14890625 -21.38671875 -82.1953125 -21.5859375 C-52.78615265 -25.39690442 -23.73396824 -17.68685612 0 0 Z " fill="#F2C64B" transform="translate(341,170)"/>
<path d="M0 0 C4.10156557 0.47353777 7.20064845 2.00139609 10.8125 3.9375 C21.84071995 9.52531011 32.95632256 11.10843409 45.03881836 7.40258789 C50.6290256 5.54243303 55.11909412 3.28656986 60 0 C62.625 -0.125 62.625 -0.125 65 1 C69.47955111 6.15860033 69.60178814 10.52542287 69.56640625 17.19140625 C69.57260483 18.17310287 69.57880341 19.1547995 69.58518982 20.16624451 C69.59227814 22.24143486 69.58913128 24.3166822 69.57641602 26.3918457 C69.56264876 29.52860679 69.59651857 32.66232317 69.63476562 35.79882812 C69.68869769 49.66606671 69.00380449 61.91470737 58.73046875 72.36328125 C57.87388672 73.17345703 57.87388672 73.17345703 57 74 C56.13375 74.886875 55.2675 75.77375 54.375 76.6875 C47.47338676 82.09836478 38.30811072 84.82243837 29.625 84.35546875 C19.28480633 82.95523419 10.99973978 78.77748864 4 71 C2.9790625 69.9171875 2.9790625 69.9171875 1.9375 68.8125 C-2.04233773 63.03531619 -5.08941251 55.58264137 -5.17700195 48.53198242 C-5.18983719 47.63062057 -5.20267242 46.72925873 -5.21589661 45.80058289 C-5.22328354 44.82869522 -5.23067047 43.85680756 -5.23828125 42.85546875 C-5.246353 41.85292557 -5.25442474 40.85038239 -5.26274109 39.81745911 C-5.27657363 37.69497402 -5.2872995 35.57246676 -5.29516602 33.44995117 C-5.31237862 30.21034439 -5.35627275 26.97175825 -5.40039062 23.73242188 C-5.41051787 21.66927833 -5.41903387 19.60612612 -5.42578125 17.54296875 C-5.44328934 16.57715378 -5.46079742 15.61133881 -5.47883606 14.61625671 C-5.45839949 8.25373098 -4.60433309 4.60433309 0 0 Z " fill="#F7CEB2" transform="translate(242,215)"/>
<path d="M0 0 C11.81627286 8.08226598 21.93416193 20.61232954 24.70703125 35.03125 C26.13714795 49.75615525 23.65902544 62.50261694 15.91796875 75.203125 C14.92796875 75.698125 14.92796875 75.698125 13.91796875 76.203125 C13.51707031 75.56246094 13.11617188 74.92179687 12.703125 74.26171875 C7.03870626 65.64306801 0.67967176 59.73395375 -9.08203125 56.203125 C-8.05727064 54.09614056 -6.99580165 52.0588864 -5.79296875 50.046875 C-2.01782125 43.42380921 -0.76374979 37.76891422 -2.08203125 30.203125 C-4.52478624 22.63609452 -7.87454084 17.21468049 -14.859375 13.25 C-21.89519579 9.93611604 -28.7008523 8.66745403 -36.11328125 11.265625 C-43.9168697 14.81973459 -48.54878529 18.83547796 -52.19921875 26.5703125 C-54.29869177 32.83157274 -54.10814516 39.50153554 -51.7734375 45.6484375 C-50.30543017 48.57037055 -48.75712728 51.39583109 -47.08203125 54.203125 C-46.75203125 54.863125 -46.42203125 55.523125 -46.08203125 56.203125 C-46.71109375 56.5434375 -47.34015625 56.88375 -47.98828125 57.234375 C-56.87755892 62.26806235 -63.48160071 68.00226392 -68.08203125 77.203125 C-72.15570209 73.54513486 -74.26289303 70.25617833 -76.33203125 65.203125 C-76.8321875 64.006875 -77.33234375 62.810625 -77.84765625 61.578125 C-82.33284396 49.31482697 -81.16875565 35.2410732 -75.86328125 23.5078125 C-68.9293017 9.6783755 -57.5832261 -0.71380576 -42.9609375 -5.91015625 C-28.31981054 -9.25712082 -13.02071773 -7.59129297 0 0 Z " fill="#508DD7" transform="translate(90.08203125,209.796875)"/>
<path d="M0 0 C2.24238737 1.65741675 4.28963889 3.39696562 6.3359375 5.2890625 C6.95855469 5.83304688 7.58117187 6.37703125 8.22265625 6.9375 C15.7990238 13.93865526 19.91723833 22.37065582 22.3359375 32.2890625 C22.61050781 33.19205078 22.61050781 33.19205078 22.890625 34.11328125 C25.79758207 48.31657151 21.93624978 62.23446884 14.3359375 74.2890625 C10.91569548 73.14898183 10.53680269 72.47854066 8.5859375 69.6015625 C3.5831196 62.71344623 -1.9648313 58.80099252 -9.6640625 55.2890625 C-8.7948922 52.97127504 -7.94502046 50.74374255 -6.640625 48.6328125 C-2.5972904 41.86524537 -2.61441615 34.54596899 -4.13671875 26.921875 C-6.1140461 20.83596927 -9.71009883 16.15472376 -15.11328125 12.7421875 C-22.47407249 9.0040396 -29.34174226 7.59028386 -37.33203125 10.140625 C-44.87708436 13.49651852 -49.48494421 18.56347316 -53.6015625 25.6015625 C-56.15724272 34.47127619 -54.97404439 42.19328571 -50.6640625 50.2890625 C-48.60219706 53.29178163 -48.60219706 53.29178163 -46.6640625 55.2890625 C-47.37691406 55.64097656 -48.08976562 55.99289063 -48.82421875 56.35546875 C-58.49731617 61.34173566 -64.33503031 66.83432797 -69.6640625 76.2890625 C-77.74390136 69.36348633 -80.95278049 57.10486374 -82.01953125 46.8828125 C-82.38105408 32.42189911 -77.35165726 19.30081705 -67.8515625 8.4140625 C-63.48871391 3.89539789 -59.22155033 0.22441839 -53.6640625 -2.7109375 C-52.79136719 -3.195625 -51.91867187 -3.6803125 -51.01953125 -4.1796875 C-34.76680558 -11.84807707 -14.85489892 -9.540243 0 0 Z " fill="#508DD7" transform="translate(444.6640625,42.7109375)"/>
<path d="M0 0 C0.8871167 -0.00547852 1.7742334 -0.01095703 2.68823242 -0.01660156 C12.53820467 0.09033309 21.55901565 2.14273613 29.0625 8.8125 C31.95923272 12.58408489 32.64678329 17.12853535 33.57421875 21.703125 C34.05052285 24.45118553 34.05052285 24.45118553 36.25 26.3125 C37.219375 26.60125 38.18875 26.89 39.1875 27.1875 C42.56157835 28.42695735 43.52552089 29.22659001 45.25 32.3125 C46.08783898 35.07913288 46.36950497 37.53784414 46.34765625 40.421875 C46.34282227 41.55302734 46.34282227 41.55302734 46.33789062 42.70703125 C46.32532227 43.87298828 46.32532227 43.87298828 46.3125 45.0625 C46.30798828 45.85527344 46.30347656 46.64804688 46.29882812 47.46484375 C46.28708565 49.41409508 46.26915146 51.36330738 46.25 53.3125 C45.08875973 51.02854402 43.98459393 48.73265388 42.91796875 46.40234375 C42.42941406 45.36207031 41.94085938 44.32179687 41.4375 43.25 C40.95667969 42.20714844 40.47585938 41.16429687 39.98046875 40.08984375 C38.02527549 36.95182478 36.59933504 35.81566543 33.25 34.3125 C27.49679844 33.06516723 23.13148361 34.02923456 18.1875 37.125 C16.94613281 37.94291016 16.94613281 37.94291016 15.6796875 38.77734375 C7.9733553 43.64645718 -0.40613215 44.48548019 -9.28515625 42.84375 C-14.07095703 41.56955898 -17.99814129 39.65103404 -22.25 37.125 C-27.45485296 34.17607481 -31.8257223 32.9255094 -37.75 34.3125 C-43.00858831 37.81822554 -45.16246217 43.72886573 -47.75 49.3125 C-48.41393738 50.64719449 -49.0801715 51.98075228 -49.75 53.3125 C-50.40415476 38.6012863 -50.36371001 27.46268349 -40.25 15.8125 C-28.88332806 3.80545218 -16.27193455 0.07368637 0 0 Z " fill="#595B5E" transform="translate(275.75,171.6875)"/>
<path d="M0 0 C1.2684375 0.8353125 1.2684375 0.8353125 2.5625 1.6875 C10.00949518 8.75259799 15.33647322 17.96997578 16.30859375 28.26953125 C16.52688895 39.29985914 14.26712751 47.37040429 9 57 C8.505 56.319375 8.01 55.63875 7.5 54.9375 C2.79798056 49.41262716 -2.2911829 44.85124727 -9 42 C-8.731875 41.34 -8.46375 40.68 -8.1875 40 C-7.795625 39.01 -7.40375 38.02 -7 37 C-6.73574219 36.39542969 -6.47148437 35.79085937 -6.19921875 35.16796875 C-3.90022533 29.64384712 -2.72346078 24.69921849 -4.7265625 18.89453125 C-7.76577445 12.30957202 -12.15578227 7.76205746 -18.76953125 4.734375 C-24.89489139 2.71761895 -30.39152974 3.40410746 -36.25 5.9375 C-42.34300852 9.28625587 -45.82769094 14.48307282 -48 21 C-48.67578411 27.23715502 -48.1724167 31.82973663 -44.875 37.2109375 C-44 39 -44 39 -44 43 C-46.01171875 44.67578125 -46.01171875 44.67578125 -48.6875 46.3125 C-53.4001718 49.40080407 -56.07287583 52.21903053 -59 57 C-62 56 -62 56 -63.3515625 53.48828125 C-63.77179688 52.44027344 -64.19203125 51.39226562 -64.625 50.3125 C-65.05039062 49.27738281 -65.47578125 48.24226563 -65.9140625 47.17578125 C-69.59093517 36.42291261 -69.07424648 25.46271373 -64.609375 15.078125 C-60.14568271 6.54077178 -54.34999396 0.70664454 -46 -4 C-45.01 -4.5775 -44.02 -5.155 -43 -5.75 C-28.31320127 -11.86949947 -12.76559869 -9.39817458 0 0 Z " fill="#508DD7" transform="translate(486,338)"/>
<path d="M0 0 C2.12817374 1.97450451 3.98553451 3.88290662 5.875 6.0625 C6.4002124 6.64942627 6.9254248 7.23635254 7.46655273 7.84106445 C10.89509372 11.68489797 14.28121428 15.57080679 17.59765625 19.51171875 C19.12852917 21.2483082 19.12852917 21.2483082 22 23 C29.46489331 23.00898302 32.81832151 19.0817478 37.83789062 14.21679688 C40.62514703 11.63989945 42.31561358 10.14900565 46.0859375 9.328125 C49.99889251 10.23030766 51.72966573 11.99578427 54.5625 14.8125 C60.4970944 20.94515595 60.4970944 20.94515595 68.375 23.125 C76.22924504 20.68747568 80.85111377 12.86989637 85.7890625 6.6484375 C86.51867187 5.77445312 87.24828125 4.90046875 88 4 C88.75023437 3.04351562 89.50046875 2.08703125 90.2734375 1.1015625 C93 -1 93 -1 96.71875 -0.97265625 C98.15405211 -0.68701225 99.58151181 -0.35996653 101 0 C102.15242188 0.28254639 102.15242188 0.28254639 103.328125 0.57080078 C105.73186896 1.19481193 108.1153675 1.86924772 110.5 2.5625 C111.32242188 2.79646484 112.14484375 3.03042969 112.9921875 3.27148438 C114.99629058 3.84242072 116.99836591 4.42046705 119 5 C119 5.99 119 6.98 119 8 C98.73486525 27.11370664 70.2614082 35.71904276 42.94433594 35.47241211 C16.73400123 34.69841848 -9.45663849 24.95543621 -28 6 C-23.02882893 3.74155674 -18.16856128 2.07088864 -12.875 0.75 C-11.84052734 0.4715625 -11.84052734 0.4715625 -10.78515625 0.1875 C-6.86775487 -0.80121316 -3.78408824 -1.57462882 0 0 Z " fill="#6DD1F3" transform="translate(228,333)"/>
<path d="M0 0 C5.85803935 4.18572744 9.86809517 9.3560583 13.5 15.52734375 C14.04333984 16.44580078 14.04333984 16.44580078 14.59765625 17.3828125 C18.13869923 24.8437077 17.63421419 35.1525176 15.59765625 43.0078125 C14.66380308 45.57673954 13.67149195 48.05884286 12.5 50.52734375 C11.18 50.52734375 9.86 50.52734375 8.5 50.52734375 C7.30882418 49.10455042 6.12455811 47.67429191 5.00390625 46.1953125 C2.35164559 43.25371431 -1.07298022 41.44919603 -4.5 39.52734375 C-2.5 34.52734375 -2.5 34.52734375 -1.375 32.27734375 C0.37723335 26.77032465 0.2754808 21.56840351 -2.125 16.27734375 C-4.96579626 11.22032345 -9.12386423 7.75026327 -14.5 5.52734375 C-21.12312802 4.74636235 -26.71613441 5.17270171 -32.5 8.52734375 C-36.64375601 12.10604212 -40.07426077 15.78113394 -40.93359375 21.32421875 C-40.94281995 28.29922297 -39.94686537 33.43377819 -36.5 39.52734375 C-37.09167969 39.96304688 -37.68335938 40.39875 -38.29296875 40.84765625 C-43.00848408 44.40160092 -46.93698017 47.81496268 -50.5 52.52734375 C-53.5 51.52734375 -53.5 51.52734375 -54.88671875 49.0078125 C-58.97675392 38.6537595 -60.2018779 29.58270268 -56.5390625 18.90234375 C-51.66597893 7.76386702 -43.69833323 0.06670161 -32.5 -4.47265625 C-21.80877329 -7.93352758 -9.48054981 -5.58463637 0 0 Z " fill="#508CD6" transform="translate(248.5,432.47265625)"/>
<path d="M0 0 C0.7115625 0.4125 1.423125 0.825 2.15625 1.25 C7.8072058 4.96107545 11.12196653 9.93868708 14 16 C14 16.66 14 17.32 14 18 C0.50127075 28.60054947 -14.32667887 31.3415726 -31 30 C-34.98631071 29.15204489 -38.38237371 27.85657059 -42 26 C-42.84304687 25.56816406 -43.68609375 25.13632812 -44.5546875 24.69140625 C-47.8184434 22.93440028 -50.91517908 21.05654728 -54 19 C-52.87137736 11.58333695 -48.41361908 6.96808831 -43 2 C-31.35727491 -6.13878394 -12.29912409 -7.56869175 0 0 Z " fill="#B296F6" transform="translate(83,277)"/>
<path d="M0 0 C3.49115989 3.45258353 6.02152382 6.65882903 7.9375 11.1875 C7.83984375 13.16796875 7.83984375 13.16796875 6.9375 15.1875 C-5.85667744 25.64319861 -21.06226222 27.73386749 -37.0625 26.1875 C-45.32055755 24.2265283 -52.3177953 20.25909966 -59.0625 15.1875 C-58.76088584 9.15521671 -56.03438518 5.48466888 -52.0625 1.1875 C-38.24885097 -11.0613216 -14.43122228 -12.14392071 0 0 Z " fill="#6ED3F6" transform="translate(442.0625,112.8125)"/>
<path d="M0 0 C8.09529029 6.47623223 13.46086015 14.44842965 15.2578125 24.8203125 C15.58663678 31.63793591 13.50415271 38.04151639 10.8125 44.25 C10.1525 44.91 9.4925 45.57 8.8125 46.25 C8.46058594 45.79109375 8.10867187 45.3321875 7.74609375 44.859375 C4.16705285 40.41127195 0.91777523 37.80263762 -4.1875 35.25 C-3.878125 34.486875 -3.56875 33.72375 -3.25 32.9375 C-0.86381475 26.90185496 0.21967976 20.43330069 -1.90625 14.11328125 C-4.44447858 9.39504183 -7.83273345 6.55820364 -12.4375 4 C-18.86473842 2.24711679 -24.54516747 2.63714449 -30.39453125 5.90625 C-34.32304335 8.85049436 -36.65297875 12.64643625 -38.1875 17.25 C-39.03269089 24.15008301 -37.40144258 29.1808138 -34.1875 35.25 C-34.70699219 35.61351562 -35.22648437 35.97703125 -35.76171875 36.3515625 C-40.28480013 39.61219418 -43.80814189 42.81459248 -47.1875 47.25 C-52.28934666 42.49113463 -53.32988238 37.21435858 -53.59643555 30.42651367 C-53.69295829 23.28300569 -53.1218459 17.36600811 -49.1875 11.25 C-48.76339844 10.55519531 -48.33929688 9.86039063 -47.90234375 9.14453125 C-43.03787228 1.92234938 -35.97796406 -2.84939896 -27.6328125 -5.27734375 C-17.1197406 -7.30942314 -9.17792029 -5.0388582 0 0 Z " fill="#4F8CD5" transform="translate(209.1875,15.75)"/>
<path d="M0 0 C5.62130522 3.09767494 9.65028274 6.52744505 12.75 12.25 C12.74609375 14.20703125 12.74609375 14.20703125 11.75 16.25 C8.94921875 18.13671875 8.94921875 18.13671875 5.4375 19.9375 C4.28636719 20.53949219 3.13523437 21.14148438 1.94921875 21.76171875 C-7.15724764 25.99806026 -20.07403909 25.81533798 -29.5 22.5 C-33.40546341 20.81505431 -36.86130055 18.8144212 -40.25 16.25 C-39.45314257 10.37573048 -36.46058662 7.22758973 -32.25 3.25 C-23.56897219 -2.95073415 -9.93725687 -4.29491611 0 0 Z " fill="#F7637B" transform="translate(474.25,388.75)"/>
<path d="M0 0 C4.18026836 2.34225153 7.06552674 4.93871787 8.875 9.4375 C9.89921604 15.06229301 9.59700667 19.91826421 6.75 24.9375 C4.20416055 28.38852681 2.07394929 30.19336688 -2.125 31.4375 C-7.43507903 32.0636138 -11.67936074 32.1208931 -16.5625 29.8125 C-21.35343439 25.37212178 -23.9024113 21.1530821 -24.4375 14.625 C-24.36480116 10.21460357 -22.99853778 7.84037368 -20.125 4.4375 C-14.09654283 -1.38633591 -8.00293306 -3.54004978 0 0 Z " fill="#F4CCB1" transform="translate(423.125,62.5625)"/>
<path d="M0 0 C4.63887984 2.61464137 8.04312519 6.14875038 10.4375 10.9375 C11.02807744 16.61612925 10.73120905 21.10672672 7.4375 25.9375 C2.01324029 31.27497156 -1.9295418 32.46308869 -9.4375 32.41796875 C-14.56851844 31.62907467 -17.38982424 28.89088655 -20.5625 24.9375 C-23.04913146 20.89672388 -23.09380416 16.57755633 -22.5625 11.9375 C-20.99207005 5.86517087 -18.0935703 3.18304255 -12.8984375 0.0390625 C-8.21072955 -2.17152887 -4.81193704 -1.43513912 0 0 Z " fill="#F5CDB1" transform="translate(68.5625,230.0625)"/>
<path d="M0 0 C3.11163156 2.28146498 5.02364715 4.16279312 7.03515625 7.4921875 C6.9765625 9.9765625 6.9765625 9.9765625 6.03515625 12.4921875 C3.70703125 14.2578125 3.70703125 14.2578125 0.78515625 15.7421875 C-0.16875 16.24234375 -1.12265625 16.7425 -2.10546875 17.2578125 C-9.85659803 20.60392842 -19.40520784 20.86520146 -27.44140625 18.4453125 C-31.54743345 16.74695575 -35.26541864 14.95847091 -38.96484375 12.4921875 C-38.64238317 7.17158787 -35.62055422 4.05959578 -31.96484375 0.4921875 C-22.99026777 -5.91822392 -9.29184725 -5.49134212 0 0 Z " fill="#ADDC6A" transform="translate(243.96484375,482.5078125)"/>
<path d="M0 0 C1.875 1 1.875 1 3 3 C3.53423546 5.68175622 3.77571266 8.26369448 4 11 C5.093125 10.938125 6.18625 10.87625 7.3125 10.8125 C11 11 11 11 12.9375 12.0625 C14.6140629 15.11976176 14.36528977 17.5906288 14 21 C12.9375 22.9375 12.9375 22.9375 11 24 C7.3125 24.1875 7.3125 24.1875 4 24 C3.896875 25.258125 3.79375 26.51625 3.6875 27.8125 C3.3611035 30.27135361 3.09847653 31.82493061 1.875 34 C-1.15343786 35.61516686 -3.64645493 35.3593084 -7 35 C-8.9375 34 -8.9375 34 -10 32 C-10.23595284 29.28117977 -10.13477523 26.74042978 -10 24 C-11.258125 24.061875 -12.51625 24.12375 -13.8125 24.1875 C-16.37705844 24.16934383 -17.71463773 24.1515987 -20 22.9375 C-21.58433618 19.86784865 -21.36248449 17.38318857 -21 14 C-20 12.0625 -20 12.0625 -18 11 C-15.28117977 10.76404716 -12.74042978 10.86522477 -10 11 C-10.061875 9.741875 -10.12375 8.48375 -10.1875 7.1875 C-10.16934383 4.62294156 -10.1515987 3.28536227 -8.9375 1 C-5.86784865 -0.58433618 -3.38318857 -0.36248449 0 0 Z " fill="#6FD6F9" transform="translate(416,447)"/>
<path d="M0 0 C1.03125 0.165 2.0625 0.33 3.125 0.5 C12.02651317 1.6087294 21.14985638 1.41602298 30 0 C32.04918906 3.70487442 33.16128708 6.7359728 33 11 C30.04527681 16.11416169 25.26331245 20.00167244 21 24 C20.67 24.66 20.34 25.32 20 26 C16.45434299 26.73281846 13.52724674 26.89775543 10 26 C7.2428055 23.48144984 5.1811047 20.82825674 3.0078125 17.796875 C0.85593768 14.63986196 0.85593768 14.63986196 -3 11 C-2.01 7.37 -1.02 3.74 0 0 Z " fill="#F3CBB0" transform="translate(259,307)"/>
<path d="M0 0 C3.47775565 1.85349312 5.75820926 3.8886821 7.8125 7.3125 C8.17736904 8.63755074 8.51676677 9.97032611 8.8125 11.3125 C-0.96182847 17.00333124 -9.25979656 20.17413679 -20.75390625 17.77734375 C-25.45963288 16.32024058 -29.24428171 14.24463668 -33.1875 11.3125 C-31.64091546 5.46984729 -27.28771786 2.32253136 -22.41015625 -0.83984375 C-15.89076691 -3.32614865 -6.38500792 -2.62849493 0 0 Z " fill="#F0C44A" transform="translate(202.1875,59.6875)"/>
<path d="M0 0 C8.26901331 4.70198796 8.26901331 4.70198796 9.65234375 9.05078125 C10.18907343 13.30785636 10.28343852 15.43312296 8.3125 19.375 C3.64391776 24.67447173 3.64391776 24.67447173 -0.3671875 25.46875 C-4.72839788 25.5230953 -7.99129387 25.5500512 -11.5 22.75 C-14.14838963 19.83677141 -15.87462409 17.79705468 -16.15234375 13.81640625 C-15.75049951 9.60069486 -15.37532541 7.47676471 -12.6875 4.0625 C-8.31756979 0.70883263 -5.6355507 -0.67626608 0 0 Z " fill="#F2CAAF" transform="translate(463,351)"/>
<path d="M0 0 C0.66 0 1.32 0 2 0 C2.43699219 0.99580078 2.43699219 0.99580078 2.8828125 2.01171875 C6.91115984 10.68913361 11.04296082 14.59632511 20 18 C20 18.66 20 19.32 20 20 C19.11248047 20.34611328 19.11248047 20.34611328 18.20703125 20.69921875 C9.67714496 24.21971015 5.70389735 28.66105793 2 37 C1.34 37 0.68 37 0 37 C-0.25652344 36.34773438 -0.51304688 35.69546875 -0.77734375 35.0234375 C-3.79599621 28.13237228 -7.1945974 24.29922023 -14 21 C-16.17189781 20.34510565 -16.17189781 20.34510565 -18 20 C-18 19.34 -18 18.68 -18 18 C-17.34773438 17.72027344 -16.69546875 17.44054687 -16.0234375 17.15234375 C-8.6127629 13.75305201 -3.70673435 10.26683587 -0.625 2.5625 C-0.315625 1.2940625 -0.315625 1.2940625 0 0 Z " fill="#F5C94B" transform="translate(69,46)"/>
<path d="M0 0 C3.88337994 0.06252311 6.1888853 0.71364782 9.25 3.25 C11.98817998 6.4445433 12.25 7.98679083 12.25 12.25 C11.4770072 16.55434937 9.88218181 18.69974469 6.25 21.25 C3.50937647 22.20865432 1.14236259 22.54999064 -1.75 22.25 C-5.54560358 20.28190926 -7.3788722 18.8066917 -9.75 15.25 C-10.29522803 12.18524457 -10.29842924 9.31475161 -9.75 6.25 C-7.3125 3.25 -7.3125 3.25 -4.75 1.25 C-3.75 0.25 -3.75 0.25 0 0 Z " fill="#F2CAAF" transform="translate(226.75,446.75)"/>
<path d="M0 0 C2.86830829 2.01391859 4.61592935 3.45434983 5.48046875 6.93359375 C5.75226702 10.81957437 5.20941022 12.67575192 3.0625 16 C-0.49515348 18.32336554 -2.65256287 18.79853128 -6.83984375 18.546875 C-9 18 -9 18 -12.0625 15.4375 C-14.31411371 11.44270148 -14.81930248 9.50616365 -14 5 C-9.45613306 -0.5004705 -6.96669891 -1.653115 0 0 Z " fill="#F2CAAF" transform="translate(194,29)"/>
<path d="M0 0 C0.66 0 1.32 0 2 0 C2.391875 0.9075 2.78375 1.815 3.1875 2.75 C5.11427747 6.20491133 6.80378291 7.73926108 10 10 C11.33535898 10.99729342 12.6690441 11.99683791 14 13 C13.39671875 13.35191406 12.7934375 13.70382812 12.171875 14.06640625 C6.68722097 17.45450704 3.70101278 20.12823309 1 26 C0.608125 25.46375 0.21625 24.9275 -0.1875 24.375 C-0.785625 23.59125 -1.38375 22.8075 -2 22 C-3.1446875 20.4840625 -3.1446875 20.4840625 -4.3125 18.9375 C-7.05433055 15.94061544 -9.28668801 14.55440967 -13 13 C-10.88089857 11.35181 -8.90862924 9.95431462 -6.5 8.75 C-3.05644365 6.33951056 -1.89861287 3.72690675 0 0 Z " fill="#FC647C" transform="translate(97,402)"/>
<path d="M0 0 C1.43931117 0.45261358 2.87638999 0.91232979 4.3125 1.375 C5.11300781 1.63023437 5.91351563 1.88546875 6.73828125 2.1484375 C9 3 9 3 12 5 C11.33613281 5.72445313 10.67226563 6.44890625 9.98828125 7.1953125 C5.55548526 12.04873877 1.14115567 16.89257468 -3 22 C-6.81684226 20.44499019 -9.19195732 17.96404505 -12 15 C-10.38462556 11.10082032 -7.72075127 8.28706228 -4.875 5.25 C-4.40707031 4.74339844 -3.93914062 4.23679687 -3.45703125 3.71484375 C-2.30873459 2.47280859 -1.15491328 1.23588506 0 0 Z " fill="#96DDF0" transform="translate(299,324)"/>
<path d="M0 0 C2.03288091 1.97893575 3.89415165 3.93144054 5.75 6.0625 C6.25660156 6.63033203 6.76320313 7.19816406 7.28515625 7.78320312 C8.53113136 9.1819865 9.76660973 10.59010733 11 12 C9.27845212 15.76488042 7.00765886 18.15063897 4 21 C-3.43795752 17.9571992 -8.93740132 9.71211955 -13 3 C-11.5903653 2.29819469 -10.17192359 1.61406042 -8.75 0.9375 C-7.96109375 0.55464844 -7.1721875 0.17179687 -6.359375 -0.22265625 C-3.6313443 -1.12146107 -2.66513617 -0.94486523 0 0 Z " fill="#96DDF1" transform="translate(250,325)"/>
<path d="M0 0 C0 7.92 0 15.84 0 24 C-8 20 -8 20 -10 14 C-10.66611433 8.11599006 -10.66611433 8.11599006 -8.953125 5.24609375 C-6.11241711 1.77875912 -4.53130705 0 0 0 Z " fill="#F4CCB0" transform="translate(227,236)"/>
<path d="M0 0 C4.86756081 0.97351216 6.15117508 1.43435704 9.05078125 5.2578125 C10.70124278 8.28705466 10.47832492 10.65172554 10 14 C8.4189921 18.11062053 6.88666235 20.81375243 3 23 C2.01 23 1.02 23 0 23 C0 15.41 0 7.82 0 0 Z " fill="#F4CCB0" transform="translate(321,236)"/>
<path d="M0 0 C2.5 2.125 2.5 2.125 4 5 C3.936318 8.18409977 3.51040601 10.14932332 1.875 12.875 C-1.16832808 14.70099685 -3.54249555 14.42460581 -7 14 C-9.5 12.4375 -9.5 12.4375 -11 10 C-10.93913078 6.53045455 -10.6274029 4.08052722 -8.875 1.0625 C-5.77710642 -0.69297303 -3.47155466 -0.48723574 0 0 Z " fill="#F5C84B" transform="translate(346,498)"/>
<path d="M0 0 C2.6923481 2.18753283 2.93936827 3.58423955 3.4375 7 C3 10 3 10 1.375 12.375 C-1.69477548 14.4753727 -3.34556561 14.53293835 -7 14 C-9.84821386 12.53740369 -10.76625002 11.63446424 -11.875 8.625 C-12.02227313 5.53226435 -11.43826733 3.7251381 -10 1 C-6.80594916 -0.59702542 -3.46728571 -0.50343003 0 0 Z " fill="#87D146" transform="translate(125,0)"/>
</svg>
