<?xml version="1.0" standalone="no"?>
<!DOCTYPE svg PUBLIC "-//W3C//DTD SVG 20010904//EN"
 "http://www.w3.org/TR/2001/REC-SVG-20010904/DTD/svg10.dtd">
<svg version="1.0" xmlns="http://www.w3.org/2000/svg"
 width="300.000000pt" height="300.000000pt" viewBox="0 0 300.000000 300.000000"
 preserveAspectRatio="xMidYMid meet">
<metadata>
Created by potrace 1.10, written by Peter Selinger 2001-2011
</metadata>
<g transform="translate(0.000000,300.000000) scale(0.100000,-0.100000)"
fill="#000000" stroke="none">
<path d="M1620 2170 l0 -50 -55 0 -55 0 0 -58 0 -59 55 5 55 4 0 -103 -1 -104
-72 -47 c-67 -44 -75 -47 -103 -36 -44 16 -75 4 -148 -57 -36 -31 -85 -64
-108 -75 -26 -12 -35 -20 -23 -20 31 0 96 33 145 75 83 70 107 70 186 5 44
-37 119 -69 131 -56 2 2 -15 13 -39 24 -53 24 -122 92 -93 92 10 0 40 14 67
31 59 38 122 48 165 26 16 -9 63 -43 104 -76 41 -34 93 -69 116 -79 24 -9 43
-20 43 -23 0 -3 -25 -31 -56 -62 -65 -65 -118 -94 -200 -107 l-59 -9 72 4 c90
5 134 27 224 111 62 58 72 64 111 64 24 0 60 -9 81 -20 39 -21 49 -14 19 13
-46 42 -122 54 -159 25 -18 -14 -89 30 -171 104 -37 33 -77 65 -89 71 -22 10
-23 16 -23 120 l0 109 55 -4 55 -5 0 54 c0 29 -1 56 -2 60 -2 3 -27 5 -55 4
l-53 -2 0 50 0 51 -60 0 -60 0 0 -50z m88 -30 l-5 -50 58 0 c56 0 59 -1 59
-25 0 -22 -4 -24 -56 -27 l-57 -3 2 -107 2 -108 -30 0 -31 0 0 110 0 110 -55
0 c-52 0 -55 1 -55 25 0 24 3 25 55 25 l55 0 0 50 c0 49 0 50 31 50 l32 0 -5
-50z"/>
<path d="M1740 1693 c88 -81 138 -113 174 -113 l31 0 -41 19 c-23 11 -59 35
-80 53 -51 46 -124 98 -137 98 -6 0 18 -26 53 -57z"/>
<path d="M1550 1702 c0 -22 39 -51 77 -58 21 -4 46 -11 56 -16 11 -5 17 -5 17
1 0 12 -43 35 -85 45 -16 4 -38 15 -47 23 -11 10 -18 12 -18 5z"/>
<path d="M1417 1652 c18 -9 54 -44 80 -77 51 -62 105 -105 132 -104 13 0 13 2
-3 12 -11 7 -33 25 -50 40 l-31 28 40 -6 c40 -6 40 -6 -12 15 -31 13 -61 33
-74 51 -22 32 -67 59 -96 59 -12 -1 -8 -6 14 -18z"/>
<path d="M520 1550 c-49 -12 -80 -51 -80 -101 0 -54 30 -82 118 -108 38 -12
75 -28 82 -36 17 -21 4 -51 -30 -65 -44 -18 -94 2 -110 45 -7 17 -15 20 -44
17 -20 -2 -36 -6 -36 -8 0 -2 7 -21 16 -43 29 -73 133 -102 221 -62 22 11 44
28 47 39 5 14 13 18 26 15 19 -5 20 -14 20 -128 0 -139 7 -155 64 -155 41 0
43 2 38 44 -3 27 -7 33 -23 29 -18 -5 -19 1 -19 102 0 102 1 106 20 100 18 -6
20 -2 20 35 0 37 -2 42 -20 37 -19 -5 -20 0 -20 61 l0 66 -33 -32 c-28 -27
-32 -38 -29 -67 5 -44 -19 -48 -35 -6 -14 37 -47 59 -120 78 -72 18 -96 38
-82 65 16 29 100 22 114 -9 8 -18 18 -23 47 -23 43 0 48 12 23 59 -22 44 -105
68 -175 51z m200 -270 c0 -7 -41 -32 -45 -28 -2 2 -1 15 2 30 4 24 7 25 24 15
10 -6 19 -14 19 -17z m75 -10 c0 -31 -31 -39 -40 -11 -8 26 2 43 23 39 11 -2
17 -13 17 -28z"/>
<path d="M965 1365 l0 -185 35 0 35 0 -3 144 c-3 122 -5 144 -18 139 -18 -7
-19 21 0 36 11 9 18 8 31 -5 11 -12 13 -19 5 -24 -8 -5 -2 -47 22 -148 l33
-142 37 0 c43 0 35 -17 79 170 16 69 23 119 18 126 -6 7 -3 16 6 24 23 19 45
-6 35 -40 -5 -14 -9 -18 -10 -10 -6 46 -18 -51 -19 -152 l-1 -118 35 0 35 0 0
185 0 185 -55 0 -54 0 -10 -37 c-47 -181 -58 -234 -47 -230 8 3 11 -4 8 -24
-2 -16 -10 -29 -18 -29 -18 0 -31 50 -15 59 9 6 4 41 -20 134 l-31 127 -57 0
-56 0 0 -185z"/>
<path d="M2074 1476 c-11 -28 4 -48 33 -44 22 2 28 8 28 28 0 20 -6 26 -28 28
-18 2 -29 -2 -33 -12z"/>
<path d="M1446 1369 c-14 -11 -26 -24 -26 -29 0 -15 44 -19 60 -5 20 18 42 19
58 3 20 -20 14 -27 -25 -34 -21 -4 -50 -13 -65 -21 -55 -27 -27 -113 37 -113
11 0 31 7 43 16 12 8 22 11 22 6 0 -5 14 -12 30 -14 24 -4 30 -1 25 9 -3 8 -5
48 -5 89 0 61 -4 78 -20 94 -28 28 -98 27 -134 -1z m104 -108 c0 -44 -70 -70
-78 -28 -2 12 7 22 30 32 44 19 48 18 48 -4z"/>
<path d="M1640 1300 c0 -77 3 -93 20 -110 26 -26 60 -25 94 1 21 17 26 18 26
5 0 -10 9 -16 25 -16 l25 0 0 105 0 105 -30 0 -30 0 0 -80 c0 -77 -1 -81 -26
-92 -39 -18 -54 9 -54 99 0 71 -1 73 -25 73 -25 0 -25 -1 -25 -90z"/>
<path d="M1880 1285 l0 -105 30 0 30 0 0 68 c0 78 9 97 40 89 16 -4 23 0 29
16 5 12 7 25 4 30 -8 13 -46 7 -65 -10 -17 -15 -18 -15 -18 0 0 11 -8 17 -25
17 l-25 0 0 -105z"/>
<path d="M2065 1370 c21 -24 21 -168 0 -176 -30 -12 -14 -19 40 -19 30 0 55 3
55 8 0 4 -4 7 -10 7 -6 0 -10 40 -10 99 l0 99 -45 0 c-42 -1 -44 -3 -30 -18z"/>
<path d="M2219 1361 c-24 -25 -29 -38 -29 -79 0 -61 26 -99 75 -108 41 -7 70
1 95 29 27 28 25 44 -5 49 -18 4 -26 0 -31 -14 -4 -15 -13 -18 -37 -16 -28 3
-33 8 -41 40 -7 29 -6 42 8 62 19 30 51 34 65 7 7 -13 18 -17 36 -14 31 7 32
17 0 48 -36 37 -97 35 -136 -4z"/>
<path d="M2435 1378 c-67 -39 -67 -150 -1 -193 44 -29 136 -1 136 42 0 18 -44
17 -60 -2 -7 -8 -18 -15 -26 -15 -17 0 -44 28 -44 47 0 12 13 14 70 11 77 -3
80 0 59 61 -18 51 -87 76 -134 49z m83 -55 c14 -23 14 -23 -32 -23 -47 0 -59
13 -34 38 18 18 48 11 66 -15z"/>
<path d="M870 1205 c0 -21 5 -25 30 -25 25 0 30 4 30 25 0 21 -5 25 -30 25
-25 0 -30 -4 -30 -25z"/>
<path d="M973 1125 c-47 -33 -37 -125 16 -143 47 -16 110 23 82 51 -5 5 -12 1
-16 -12 -7 -24 -53 -29 -73 -9 -16 16 -16 80 0 96 17 17 48 15 70 -5 25 -22
36 -8 13 17 -21 24 -62 26 -92 5z"/>
<path d="M1290 1060 c0 -47 4 -80 10 -80 6 0 10 17 10 38 0 39 14 62 37 62 9
0 13 -16 13 -50 0 -37 4 -50 15 -50 11 0 13 10 8 53 -7 57 -17 70 -50 62 -19
-5 -23 -1 -23 20 0 14 -4 25 -10 25 -6 0 -10 -33 -10 -80z"/>
<path d="M1540 1060 c0 -47 4 -80 10 -80 6 0 10 33 10 80 0 47 -4 80 -10 80
-6 0 -10 -33 -10 -80z"/>
<path d="M1829 1121 c-32 -26 -33 -92 -2 -122 40 -40 127 -17 108 28 -7 17 -8
16 -18 -4 -7 -16 -19 -23 -37 -23 -36 0 -50 17 -50 60 0 58 42 80 82 43 25
-22 36 -8 13 17 -23 25 -66 26 -96 1z"/>
<path d="M1970 1060 c0 -86 17 -111 22 -32 3 39 6 47 23 47 17 0 20 -8 23 -47
4 -63 22 -62 22 1 0 54 -17 77 -50 66 -17 -5 -20 -2 -20 19 0 14 -4 26 -10 26
-6 0 -10 -33 -10 -80z"/>
<path d="M2400 1060 c0 -86 17 -111 22 -32 3 39 6 47 23 47 17 0 20 -8 23 -47
4 -63 22 -62 22 1 0 54 -17 77 -50 66 -17 -5 -20 -2 -20 19 0 14 -4 26 -10 26
-6 0 -10 -33 -10 -80z"/>
<path d="M1233 1112 c-5 -12 -6 -46 -3 -75 4 -46 8 -52 30 -55 23 -2 24 -1 8
11 -18 14 -26 82 -10 89 4 2 2 14 -4 28 l-13 24 -8 -22z"/>
<path d="M1114 1083 c-12 -12 -13 -18 -4 -21 7 -3 16 1 20 8 9 14 42 10 47 -6
2 -6 -14 -15 -34 -20 -28 -6 -39 -15 -41 -31 -4 -27 30 -48 55 -35 9 5 23 7
32 5 14 -3 16 4 13 44 -2 26 -9 54 -14 61 -15 17 -54 15 -74 -5z m53 -80 c-17
-17 -51 -10 -45 9 5 15 52 28 57 15 2 -5 -4 -16 -12 -24z"/>
<path d="M1427 1082 c-26 -29 -22 -78 8 -98 23 -15 27 -15 50 0 32 21 36 89 6
106 -28 15 -46 12 -64 -8z m61 -43 c2 -27 -1 -38 -14 -43 -23 -9 -44 11 -44
44 0 33 8 42 35 38 15 -2 21 -12 23 -39z"/>
<path d="M1590 1041 c0 -34 4 -61 10 -61 6 0 10 24 10 54 0 30 -4 58 -10 61
-6 4 -10 -17 -10 -54z"/>
<path d="M1647 1082 c-10 -10 -17 -31 -17 -45 0 -26 30 -67 49 -67 16 0 56 38
49 46 -5 4 -17 -1 -28 -11 -16 -15 -22 -16 -35 -5 -9 7 -15 24 -13 38 3 29 38
55 45 35 5 -15 33 -18 33 -3 0 11 -33 30 -53 30 -8 0 -21 -8 -30 -18z"/>
<path d="M2090 1045 c0 -61 11 -73 63 -67 l32 4 -1 56 c-2 71 -24 84 -24 14 0
-49 -10 -64 -37 -55 -8 3 -13 23 -13 54 0 27 -4 49 -10 49 -5 0 -10 -25 -10
-55z"/>
<path d="M2215 1091 c-3 -2 -5 -28 -5 -58 0 -40 4 -53 15 -53 11 0 13 7 9 29
-6 29 10 73 25 68 5 -1 11 3 13 8 3 10 -48 15 -57 6z"/>
<path d="M2300 1080 c-33 -33 -22 -88 22 -103 19 -7 67 27 56 38 -4 4 -15 0
-24 -9 -21 -22 -37 -16 -48 17 -8 21 -6 31 7 44 15 15 20 16 38 5 27 -17 40
-5 15 14 -27 19 -42 18 -66 -6z"/>
<path d="M1528 923 c8 -3 12 -27 12 -68 0 -41 -4 -65 -12 -68 -7 -3 24 -6 68
-6 l81 -1 -5 25 c-4 21 0 25 19 26 18 0 20 2 8 7 -11 5 -14 13 -9 27 7 18 10
15 25 -19 9 -21 14 -45 11 -52 -4 -10 4 -14 28 -14 l34 0 -19 38 c-10 20 -26
54 -34 75 -7 20 -18 37 -22 37 -5 0 -19 -28 -32 -62 -30 -77 -41 -91 -41 -52
l0 29 -13 -25 c-7 -14 -21 -26 -31 -28 -16 -3 -17 3 -14 67 l3 71 -35 -1 c-19
0 -29 -3 -22 -6z"/>
<path d="M860 865 c0 -13 42 -15 315 -15 273 0 315 2 315 15 0 13 -42 15 -315
15 -273 0 -315 -2 -315 -15z"/>
<path d="M1820 865 c0 -13 42 -15 315 -15 273 0 315 2 315 15 0 13 -42 15
-315 15 -273 0 -315 -2 -315 -15z"/>
</g>
</svg>
