<?xml version="1.0" standalone="no"?>
<!DOCTYPE svg PUBLIC "-//W3C//DTD SVG 20010904//EN"
 "http://www.w3.org/TR/2001/REC-SVG-20010904/DTD/svg10.dtd">
<svg version="1.0" xmlns="http://www.w3.org/2000/svg"
 width="300.000000pt" height="301.000000pt" viewBox="0 0 300.000000 301.000000"
 preserveAspectRatio="xMidYMid meet">
<metadata>
Created by potrace 1.10, written by Peter Selinger 2001-2011
</metadata>
<g transform="translate(0.000000,301.000000) scale(0.100000,-0.100000)"
fill="#000000" stroke="none">
<path d="M1270 2794 c-41 -8 -84 -19 -95 -24 -11 -4 -45 -16 -75 -26 -98 -31
-294 -144 -378 -218 -64 -57 -171 -176 -190 -213 -6 -11 -7 -175 -2 -458 5
-242 10 -516 11 -608 3 -147 5 -170 21 -184 10 -9 16 -24 13 -34 -7 -20 37
-59 66 -59 9 0 31 -12 48 -26 32 -27 42 -23 15 7 -14 15 -14 20 2 55 9 22 16
42 16 46 -1 4 2 18 7 31 8 20 15 24 38 20 16 -3 23 -1 17 4 -6 4 -16 17 -21
28 -9 16 -7 23 13 42 14 13 20 23 14 23 -14 0 12 40 92 139 37 46 68 88 68 93
0 6 7 5 15 -2 17 -14 20 -46 5 -55 -9 -6 -54 -80 -113 -185 -14 -25 -44 -90
-66 -145 -23 -55 -46 -107 -51 -116 -9 -17 -4 -29 12 -29 4 0 8 9 8 20 0 37
69 191 147 328 l77 137 14 -50 c8 -28 18 -58 23 -67 5 -10 9 -25 9 -35 0 -9 6
-32 13 -51 11 -31 10 -36 -8 -46 -30 -17 -125 -114 -125 -127 0 -7 9 -4 22 7
21 19 21 19 13 -6 -4 -14 -9 -56 -10 -94 -2 -64 -4 -70 -29 -83 -26 -13 -27
-33 -3 -33 7 0 25 -14 41 -31 29 -30 41 -32 92 -12 10 4 15 2 11 -4 -7 -12 46
-66 56 -57 4 4 12 3 19 -3 7 -5 19 -8 26 -7 6 1 18 2 25 3 16 2 -63 31 -85 31
-23 0 -23 13 0 33 28 26 110 23 139 -4 18 -18 25 -20 38 -9 8 7 15 9 15 6 0
-7 59 31 70 44 6 7 82 38 123 51 l28 8 -6 -62 c-9 -87 -13 -96 -48 -112 l-32
-14 38 2 c43 2 40 -5 58 132 20 157 21 172 9 153 -6 -10 -20 -18 -30 -18 -10
0 -32 -5 -47 -11 -15 -6 -37 -15 -48 -19 -11 -4 -37 -15 -59 -24 -36 -16 -39
-16 -51 0 -11 16 -14 16 -36 1 -27 -19 -39 -21 -39 -7 0 12 85 55 128 65 18 4
67 18 109 31 54 17 79 21 84 13 3 -6 14 30 23 81 10 51 15 94 13 96 -3 3 -10
-25 -17 -61 -7 -36 -19 -72 -26 -80 -16 -16 -143 -59 -151 -51 -9 9 53 99 95
137 20 19 51 43 68 53 34 20 50 52 82 161 11 39 33 107 49 151 29 79 32 119
13 138 -6 6 -7 -6 -4 -30 5 -38 5 -38 -9 -14 -8 14 -18 41 -21 60 -7 35 -7 35
8 10 9 -14 15 -21 16 -15 0 10 60 -52 60 -63 0 -8 -54 -142 -76 -190 -8 -18
-14 -38 -12 -44 4 -10 34 57 69 152 19 52 41 83 49 70 4 -6 13 -13 21 -14 8
-1 41 -15 74 -30 56 -26 59 -28 41 -42 -11 -8 -24 -14 -29 -14 -4 0 -6 -4 -3
-9 3 -5 -34 -58 -82 -117 -158 -196 -153 -188 -156 -246 l-4 -53 19 60 c14 44
42 89 104 169 47 59 85 112 85 117 0 16 18 9 22 -8 2 -12 6 -9 16 12 12 25 11
27 -2 15 -9 -7 -16 -8 -16 -2 0 12 30 38 30 26 1 -5 8 5 17 21 l17 30 6 -30
c4 -17 12 -40 19 -50 10 -17 11 -12 7 29 l-6 49 22 -19 c13 -10 25 -22 28 -25
3 -3 21 -15 40 -25 l35 -19 -30 -3 c-16 -2 -33 -7 -37 -11 -5 -4 7 -5 26 -3
19 2 42 0 51 -5 14 -8 12 -15 -18 -59 -19 -27 -37 -61 -41 -74 -5 -18 1 -13
18 15 14 22 26 43 26 46 0 4 11 14 24 23 24 15 25 14 47 -22 49 -80 101 -200
104 -237 0 -6 8 -21 18 -35 20 -29 22 -57 5 -63 -7 -2 -11 -7 -8 -10 3 -3 15
2 27 11 22 17 22 18 7 62 -9 25 -19 49 -23 55 -5 5 -11 23 -15 38 -11 47 -71
170 -100 203 -14 18 -26 35 -26 39 0 12 -72 74 -117 101 -23 14 -72 45 -109
69 -37 24 -79 47 -95 50 -15 4 -45 22 -66 42 -21 19 -55 50 -76 68 -35 30 -37
35 -27 57 7 12 24 34 39 48 48 46 110 171 112 226 4 95 -2 232 -12 261 -16 49
-70 96 -162 142 -69 34 -93 41 -143 41 -102 0 -167 -29 -256 -115 -82 -78
-101 -117 -91 -179 3 -20 1 -36 -6 -40 -6 -4 -11 -33 -11 -65 0 -45 6 -66 28
-102 15 -24 33 -63 40 -86 12 -42 55 -93 78 -93 6 0 17 -14 25 -31 11 -28 11
-33 -7 -45 -10 -8 -34 -26 -52 -42 -19 -15 -61 -42 -95 -61 -90 -49 -130 -82
-117 -95 5 -5 10 -20 10 -31 0 -31 11 -38 26 -17 12 16 13 16 14 0 0 -9 -4
-20 -10 -23 -5 -3 -10 -14 -10 -23 1 -10 9 -2 19 18 14 25 16 37 8 42 -9 5 -6
13 7 25 18 17 19 17 12 -2 -7 -22 -9 -24 47 47 17 22 17 22 7 1 -21 -45 -9
-36 21 15 16 29 38 56 47 59 9 3 29 17 45 31 15 14 27 21 27 15 0 -19 -37
-118 -65 -173 -20 -40 -28 -72 -30 -120 -2 -36 -8 -78 -14 -93 -6 -16 -11 -43
-11 -62 0 -24 -5 -35 -17 -38 -16 -4 -16 -5 0 -6 16 -1 19 -9 17 -63 -3 -96
-4 -96 38 -55 21 21 41 34 45 31 16 -16 5 -42 -32 -78 l-40 -39 16 -40 c9 -22
25 -49 35 -59 27 -27 23 -43 -7 -24 -35 23 -94 21 -122 -6 l-23 -21 -17 21
c-10 11 -23 29 -29 39 -7 10 -14 15 -18 12 -3 -3 9 -23 26 -44 18 -21 28 -40
22 -42 -6 -2 -19 -10 -30 -17 -15 -12 -22 -11 -44 2 -14 9 -26 16 -27 17 -5 2
17 196 26 216 5 13 16 42 26 64 24 61 75 84 75 36 0 -10 6 -37 14 -59 11 -30
12 -43 3 -52 -9 -10 -9 -11 1 -6 8 5 12 0 12 -12 0 -11 -7 -23 -16 -26 -8 -3
-12 -11 -9 -16 4 -6 16 1 28 17 12 15 26 31 31 35 6 4 5 12 -3 21 -6 8 -23 57
-37 109 -15 51 -29 98 -32 103 -4 6 -8 21 -10 35 -2 13 -7 29 -12 35 -13 16
-51 163 -60 230 -8 63 -44 197 -60 227 -6 10 -10 24 -10 32 0 15 -28 107 -80
263 -15 45 -26 96 -26 113 1 16 -3 30 -8 30 -4 0 -6 9 -3 21 4 14 -6 37 -29
69 -34 48 -42 66 -24 55 8 -5 -22 58 -34 72 0 1 -1 -45 -2 -102 0 -59 3 -102
8 -99 12 8 39 -16 32 -28 -4 -6 -2 -13 2 -17 5 -3 19 -37 31 -76 26 -83 86
-281 115 -380 11 -38 31 -103 44 -144 l24 -74 -43 -46 c-77 -84 -136 -168
-187 -269 -27 -55 -50 -106 -50 -114 0 -17 -23 -68 -31 -68 -3 0 -18 13 -34
30 l-28 29 -8 533 c-4 293 -8 575 -10 626 -2 90 -1 94 30 137 45 62 154 169
226 220 178 128 339 188 571 216 195 23 436 -27 624 -130 25 -13 54 -29 65
-35 11 -6 22 -13 25 -16 3 -3 18 -14 33 -23 43 -27 75 -55 147 -127 119 -120
106 -55 114 -583 3 -254 9 -534 12 -622 l6 -160 -56 -57 c-60 -61 -64 -68 -41
-68 23 0 115 99 108 116 -3 8 1 22 10 32 8 9 18 36 22 59 4 23 1 297 -5 608
l-12 565 -26 32 c-197 234 -440 382 -711 432 -104 20 -337 20 -441 0z m170
-406 c18 3 30 0 30 -7 0 -6 7 -11 15 -11 8 0 15 -4 15 -10 0 -5 -18 -10 -40
-10 -22 0 -40 -3 -40 -7 0 -5 25 -6 55 -5 52 4 55 3 55 -20 0 -12 -10 -34 -21
-48 -16 -20 -20 -21 -15 -6 7 20 7 20 -15 0 -24 -20 -19 -5 10 31 8 11 0 5
-20 -13 -27 -24 -43 -32 -67 -30 -17 1 -29 5 -26 9 2 4 -8 10 -21 13 -16 4
-23 11 -19 19 4 7 -7 -1 -23 -18 -16 -16 -28 -33 -26 -37 2 -5 -2 -8 -10 -8
-22 0 -57 -39 -57 -65 0 -14 -5 -25 -11 -25 -5 0 -8 -4 -5 -9 3 -5 -2 -12 -12
-16 -16 -6 -16 -7 0 -16 13 -7 17 -21 15 -58 -1 -27 -5 -47 -8 -46 -3 2 -5 -5
-4 -16 1 -11 7 -24 15 -29 8 -5 10 -17 6 -34 -4 -15 -2 -26 4 -26 12 0 12 1
14 130 1 132 1 130 64 198 l33 35 23 -22 c29 -27 85 -28 128 -1 33 20 79 20
121 -2 31 -16 49 -78 52 -179 2 -63 8 -106 19 -127 20 -39 20 -56 1 -72 -13
-11 -18 -10 -28 4 -11 14 -15 7 -30 -53 -10 -39 -23 -73 -28 -76 -5 -4 -9 -13
-9 -22 0 -23 -68 -83 -86 -76 -11 4 -12 8 -4 13 9 6 7 10 -5 18 -25 13 -42 -5
-38 -37 2 -15 0 -20 -3 -13 -3 6 -10 9 -15 6 -6 -3 -5 -11 2 -20 17 -21 -9
-19 -33 3 -23 21 -23 34 0 27 13 -4 12 -1 -5 14 -13 11 -23 24 -23 29 0 4 -8
13 -17 19 -10 7 -26 29 -37 50 -10 22 -22 47 -27 56 -5 10 -9 24 -9 32 0 9 -7
12 -19 9 -23 -6 -50 21 -58 59 -4 20 -8 25 -14 17 -5 -8 -10 0 -14 24 -4 20
-14 42 -21 48 -19 15 -17 116 2 123 13 5 12 35 -1 57 -14 21 30 99 55 99 6 0
8 5 5 10 -3 6 4 14 17 19 13 4 21 12 19 17 -6 12 84 72 123 82 17 5 32 6 34 2
1 -4 16 -4 32 -2z m135 -10 c14 -6 25 -15 25 -19 0 -4 21 -18 47 -31 59 -29
85 -72 98 -163 9 -54 8 -79 -2 -109 -7 -22 -11 -48 -7 -58 10 -31 -6 -80 -24
-76 -10 2 -16 11 -16 21 1 9 -3 14 -9 10 -10 -6 -5 23 10 63 5 13 3 15 -7 9
-10 -6 -12 -4 -7 8 4 10 2 29 -4 44 -7 18 -6 30 1 37 12 12 14 39 1 32 -13 -8
-40 71 -36 107 4 28 3 30 -9 15 -14 -20 -36 -24 -36 -8 0 6 -3 9 -7 9 -42 -7
-53 2 -53 41 0 22 -4 40 -10 40 -5 0 -14 9 -20 20 -9 18 -8 20 14 20 14 0 37
-5 51 -12z m-275 -731 c0 -7 25 -36 55 -66 57 -55 82 -61 92 -21 5 19 23 28
23 12 0 -5 11 -14 25 -20 22 -10 29 -8 56 17 16 16 38 46 48 67 l19 39 7 -40
c4 -22 10 -44 14 -50 7 -12 8 -18 10 -46 0 -11 6 -17 11 -14 12 8 13 -17 2
-31 -9 -9 -49 -133 -54 -169 -3 -14 -10 -19 -23 -16 -11 2 -70 5 -131 5 -106
1 -112 3 -144 29 -18 15 -50 37 -71 48 -22 11 -39 24 -39 29 0 5 16 41 35 80
20 39 39 93 42 120 3 27 10 47 14 44 5 -3 9 -11 9 -17z m235 -36 c5 -1 4 -6
-2 -12 -12 -12 -73 -3 -73 12 0 5 15 7 33 5 17 -3 36 -5 42 -5z m-439 -92 c3
-6 1 -16 -6 -22 -10 -10 -11 -8 -6 8 5 14 -3 10 -28 -14 -20 -19 -36 -29 -36
-22 0 13 48 61 61 61 4 0 11 -5 15 -11z m139 -185 c20 -37 34 -68 32 -71 -7
-6 -77 111 -77 128 0 19 9 7 45 -57z m38 21 c20 -14 37 -28 37 -32 0 -3 -11 2
-25 11 -29 19 -30 17 -12 -15 19 -36 40 -64 57 -74 8 -4 4 4 -9 18 -14 15 -23
27 -20 27 2 1 38 3 79 5 l75 3 -59 -12 c-54 -10 -57 -12 -40 -26 10 -9 15 -10
10 -2 -5 9 3 12 31 12 22 0 47 6 58 13 20 16 104 5 116 -14 8 -14 0 -49 -13
-49 -5 0 -6 -4 -3 -10 3 -5 1 -10 -4 -10 -6 0 -11 -6 -11 -13 0 -7 -17 -21
-37 -32 -44 -24 -83 -64 -124 -127 -17 -27 -35 -48 -39 -48 -4 0 -24 16 -43
35 -19 19 -33 35 -29 35 9 0 -35 34 -68 53 -29 16 -37 45 -11 39 8 -1 7 6 -2
25 -22 43 -30 73 -18 73 5 0 19 -25 31 -56 11 -31 27 -66 35 -78 21 -29 19
-17 -5 29 -11 22 -20 45 -20 51 0 6 -7 25 -15 40 -8 16 -15 38 -14 49 0 11 10
-3 22 -31 12 -29 30 -63 39 -75 10 -13 4 5 -12 41 -36 80 -46 120 -31 120 6 0
11 -9 11 -19 0 -10 7 -22 16 -25 9 -3 14 -13 11 -21 -4 -9 -1 -12 9 -8 7 3 14
1 14 -5 0 -6 -5 -12 -10 -14 -11 -3 9 -68 22 -68 7 0 3 34 -7 50 -3 5 -1 19 5
30 9 17 5 30 -20 75 -17 30 -28 55 -23 55 5 0 25 -11 46 -25z m44 -394 c-6 -2
-13 1 -15 8 -2 6 -8 8 -13 5 -6 -3 -5 -11 2 -20 7 -9 8 -14 3 -12 -5 1 -19 -3
-32 -10 -13 -7 -32 -10 -44 -6 -22 7 -22 7 4 29 15 13 24 26 20 30 -4 5 3 5
15 2 20 -4 22 -2 16 21 -6 25 -5 24 25 -9 18 -20 26 -36 19 -38z m193 -58 c0
-28 -12 -38 -58 -52 -24 -6 -65 -25 -92 -41 l-50 -29 0 38 c0 34 3 39 33 48
17 6 57 20 87 32 68 25 80 26 80 4z m-222 -74 c16 -67 16 -66 -19 -73 -23 -4
-38 -1 -56 14 -34 27 -94 27 -118 0 -21 -24 -35 -26 -35 -5 0 30 42 55 91 55
39 0 52 -5 78 -32 34 -35 36 -34 21 9 -11 30 1 83 18 83 5 0 14 -23 20 -51z"/>
<path d="M1464 2315 c-4 -8 -13 -15 -21 -15 -8 0 -11 5 -7 12 5 7 3 8 -5 4 -7
-5 -10 -11 -6 -14 3 -3 -5 -12 -17 -19 -22 -13 -22 -13 7 -7 31 7 90 54 67 54
-7 0 -15 -7 -18 -15z"/>
<path d="M1315 2051 c-11 -5 -29 -19 -40 -31 l-20 -23 43 22 c24 12 52 20 63
16 10 -3 28 -8 39 -11 33 -9 23 13 -11 25 -37 13 -46 13 -74 2z"/>
<path d="M1500 2047 c-33 -17 -39 -46 -33 -151 l6 -89 -26 7 c-15 3 -27 2 -27
-3 0 -5 -13 -23 -30 -39 -29 -29 -39 -52 -22 -52 4 0 26 17 49 38 l41 39 34
-26 c18 -14 35 -29 36 -33 6 -13 22 -9 22 5 0 7 -16 28 -36 45 -19 17 -33 35
-31 39 11 18 16 82 7 88 -6 3 -10 26 -10 50 0 34 5 47 22 59 26 18 71 21 99 6
10 -6 19 -7 19 -2 0 12 -46 32 -73 32 -12 0 -33 -6 -47 -13z"/>
<path d="M1332 1986 c-19 -10 -21 -15 -10 -23 19 -15 78 -24 78 -13 0 6 -7 10
-16 10 -8 0 -12 5 -9 10 4 6 11 8 16 5 5 -4 9 -1 9 4 0 6 -4 11 -9 11 -5 0
-15 2 -23 5 -7 2 -23 -1 -36 -9z"/>
<path d="M1512 1988 c-17 -17 -15 -28 6 -28 14 0 14 2 3 9 -10 6 -3 9 22 8 30
-1 33 -3 19 -13 -20 -14 -10 -29 13 -20 22 8 31 36 14 47 -20 13 -63 11 -77
-3z"/>
<path d="M1416 1975 c-3 -8 -1 -15 4 -15 14 0 12 -34 -2 -48 -9 -9 -9 -12 1
-12 8 0 11 -6 7 -15 -3 -8 -1 -25 4 -37 8 -21 9 -22 10 -3 3 29 3 64 1 108 -1
38 -14 49 -25 22z"/>
<path d="M1234 1886 c-8 -20 3 -36 24 -35 10 0 12 3 5 5 -7 3 -10 11 -7 19 3
7 1 16 -5 20 -6 3 -14 -1 -17 -9z"/>
<path d="M1349 1542 c15 -28 76 -56 100 -46 11 5 5 9 -23 14 -21 4 -41 11 -45
16 -3 5 -15 16 -25 24 -18 14 -19 14 -7 -8z"/>
<path d="M1310 1475 c0 -10 94 -65 109 -65 16 0 -10 18 -56 39 -11 5 -24 15
-28 20 -6 11 -25 15 -25 6z"/>
<path d="M1342 2704 c-24 -17 -29 -53 -10 -72 19 -19 56 -14 68 8 24 45 -19
92 -58 64z m42 -30 c7 -19 -1 -34 -19 -34 -18 0 -28 17 -21 35 7 20 32 19 40
-1z"/>
<path d="M1429 2716 c-8 -8 3 -86 11 -86 5 0 10 12 12 28 l4 27 12 -27 c19
-45 42 -36 42 17 0 25 -4 45 -10 45 -5 0 -10 -12 -10 -27 l-1 -28 -20 28 c-20
26 -31 32 -40 23z"/>
<path d="M1575 2700 c-5 -14 0 -27 17 -40 l23 -20 -30 7 c-27 6 -29 5 -16 -10
7 -10 21 -17 31 -17 24 0 35 32 16 46 -9 6 -16 17 -16 24 0 10 4 9 17 -1 15
-12 16 -12 10 4 -4 10 -7 21 -7 23 0 14 -40 0 -45 -16z"/>
<path d="M1653 2659 l-23 -41 22 6 c14 3 29 -1 40 -11 25 -23 31 -12 21 39
-11 56 -32 59 -60 7z"/>
<path d="M1234 2659 c3 -17 6 -38 6 -45 0 -8 7 -14 16 -14 11 0 14 6 9 23 l-7
22 17 -23 c16 -22 42 -21 28 1 -5 7 -8 23 -8 37 0 21 -5 26 -34 28 -33 3 -34
3 -27 -29z"/>
<path d="M1747 2673 c-14 -51 -16 -72 -8 -78 13 -7 19 5 27 53 4 27 3 42 -4
42 -6 0 -13 -8 -15 -17z"/>
<path d="M1173 2673 c-25 -5 -32 -23 -8 -23 8 0 17 -14 21 -35 4 -21 11 -34
18 -32 6 3 9 11 7 18 -2 8 -4 29 -4 47 -1 17 -3 31 -6 31 -4 -1 -16 -4 -28 -6z"/>
<path d="M1789 2643 c-5 -16 -12 -33 -14 -40 -2 -7 0 -15 6 -19 6 -3 13 3 16
15 7 27 21 27 25 -1 5 -36 24 -31 41 12 12 31 13 40 2 40 -7 0 -16 -10 -20
-22 -7 -21 -8 -20 -12 10 -5 40 -30 43 -44 5z"/>
<path d="M1098 2643 c-1 -5 -2 -27 -2 -50 -1 -43 16 -59 28 -27 4 10 13 13 26
9 28 -9 25 13 -5 48 -23 26 -43 35 -47 20z"/>
<path d="M1894 2624 c3 -8 1 -24 -5 -36 -6 -11 -8 -27 -4 -36 5 -13 9 -10 20
16 8 17 21 32 30 32 24 0 18 20 -11 30 -34 13 -37 13 -30 -6z"/>
<path d="M1018 2613 c-22 -6 -22 -4 3 -53 12 -22 25 -37 30 -34 5 3 7 9 4 14
-3 5 0 18 6 28 7 11 9 27 6 36 -6 16 -16 18 -49 9z"/>
<path d="M2250 1851 c0 -15 -6 -21 -21 -21 -14 0 -19 -5 -17 -17 2 -10 11 -17
21 -17 14 2 17 -7 17 -52 0 -48 2 -54 21 -54 18 0 20 5 18 53 -3 46 -1 52 16
52 11 0 21 8 23 18 3 12 -3 17 -21 17 -17 0 -24 5 -23 17 0 10 -7 19 -16 21
-13 2 -18 -3 -18 -17z"/>
<path d="M700 1819 c0 -16 -5 -20 -20 -16 -15 4 -20 0 -20 -14 0 -12 7 -19 20
-19 17 0 20 -7 20 -50 0 -38 4 -50 15 -50 11 0 15 12 15 50 0 42 3 50 19 50
20 0 36 26 21 35 -4 3 -15 2 -24 -1 -12 -4 -16 0 -16 15 0 12 -6 21 -15 21 -9
0 -15 -9 -15 -21z"/>
<path d="M1108 1475 c-3 -6 -13 -35 -22 -65 -10 -30 -20 -62 -23 -70 -11 -29
-10 -50 4 -61 7 -6 14 -21 14 -33 1 -17 2 -18 6 -3 4 15 7 16 21 5 10 -7 4 2
-11 19 l-28 30 16 64 c9 35 21 72 27 82 10 19 6 49 -4 32z"/>
<path d="M1740 1334 c-50 -48 -90 -91 -90 -97 0 -5 24 15 53 45 28 30 75 73
102 96 28 23 44 42 37 42 -7 0 -53 -39 -102 -86z"/>
<path d="M1140 1367 c-13 -17 -29 -36 -37 -40 -18 -11 -16 -37 3 -37 8 0 13 4
10 8 -3 5 9 28 26 51 17 23 28 44 26 46 -2 3 -15 -10 -28 -28z"/>
<path d="M1952 1325 c-1 -16 6 -64 14 -105 8 -41 25 -138 39 -215 27 -154 43
-217 44 -176 1 13 -6 53 -14 90 -7 36 -23 120 -35 186 -29 171 -47 256 -48
220z"/>
<path d="M1920 1253 c0 -34 7 -114 15 -180 8 -65 16 -156 18 -202 2 -58 8 -86
16 -89 10 -3 12 4 8 24 -4 16 -11 88 -17 159 -18 214 -31 339 -36 344 -2 2 -4
-23 -4 -56z"/>
<path d="M1812 1263 c-5 -10 -28 -63 -51 -118 -23 -55 -46 -108 -51 -117 -6
-10 -10 -23 -10 -30 0 -21 17 5 30 47 7 22 33 82 57 134 24 52 41 96 39 98 -2
3 -9 -4 -14 -14z"/>
<path d="M1611 1219 c-6 -18 -11 -41 -10 -53 0 -12 7 1 14 29 16 56 13 72 -4
24z"/>
<path d="M2506 1188 c-21 -29 -21 -48 0 -22 8 10 13 14 10 8 -4 -8 7 -11 35
-10 22 1 43 -2 46 -7 3 -6 1 -7 -5 -3 -7 4 -12 3 -12 -3 0 -15 38 -33 52 -25
6 4 8 3 5 -3 -7 -10 54 -64 86 -76 9 -3 17 -11 17 -17 0 -6 5 -8 10 -5 20 12
9 -9 -27 -54 -90 -113 -328 -331 -362 -331 -5 0 -11 -3 -13 -8 -11 -25 -254
-152 -292 -152 -8 0 -18 -5 -21 -10 -4 -6 -10 -8 -14 -5 -5 2 -23 -2 -40 -11
-18 -9 -42 -18 -54 -20 -46 -7 -133 -26 -147 -31 -89 -34 -489 -36 -549 -3
-16 8 -21 8 -21 -2 0 -8 -3 -9 -8 -3 -8 11 -23 16 -69 21 -18 1 -40 7 -50 12
-10 6 -31 12 -48 15 -50 9 -104 30 -225 85 -19 9 -64 35 -100 57 -36 23 -86
54 -113 69 -26 15 -47 31 -47 36 0 6 -4 10 -10 10 -15 0 -46 26 -152 130 -53
52 -95 98 -92 101 2 4 -1 11 -7 15 -8 5 -9 3 -4 -6 5 -9 4 -11 -3 -6 -22 13
-12 51 21 79 17 16 56 46 84 66 29 21 50 41 46 45 -13 13 33 5 54 -9 20 -14
21 -14 18 11 -3 27 -19 44 -43 44 -24 0 -232 -170 -232 -190 0 -35 225 -269
313 -325 8 -5 47 -31 86 -58 272 -183 588 -269 932 -254 272 13 518 85 729
215 186 114 341 253 463 413 35 47 34 69 -6 97 -17 12 -70 50 -116 82 -46 33
-90 60 -97 60 -7 0 -20 -10 -28 -22z"/>
<path d="M1581 1101 c-7 -23 -10 -45 -7 -48 9 -9 27 49 23 71 -2 15 -7 8 -16
-23z"/>
<path d="M1814 1053 c2 -13 0 -23 -4 -23 -5 0 -12 -17 -15 -37 -3 -21 -10 -55
-14 -75 -7 -29 -6 -35 5 -31 8 3 15 14 15 24 1 10 3 24 4 29 1 6 3 17 4 26 0
8 6 12 11 9 13 -8 12 53 -1 80 -9 19 -9 18 -5 -2z"/>
<path d="M1010 1038 c0 -18 5 -28 15 -28 19 0 19 11 0 36 -14 18 -14 18 -15
-8z"/>
<path d="M1778 1055 c-3 -6 -9 -32 -12 -60 l-6 -50 15 50 c14 48 16 80 3 60z"/>
<path d="M1845 1036 c-4 -10 -4 -21 1 -25 5 -3 10 -16 12 -29 2 -13 10 -38 18
-55 l14 -32 -6 40 c-4 22 -12 58 -19 80 -10 33 -14 37 -20 21z"/>
<path d="M2430 990 c-20 -25 -38 -39 -47 -36 -8 3 -12 2 -9 -3 3 -5 -7 -17
-22 -26 -15 -10 -40 -31 -57 -46 -64 -61 -113 -99 -128 -99 -9 0 -22 -6 -29
-13 -36 -34 -70 -55 -86 -51 -10 3 -31 -8 -50 -25 -18 -17 -39 -28 -47 -25
-16 7 -75 -25 -76 -41 -7 -98 -5 -116 17 -140 26 -28 59 -33 68 -9 4 10 13 13
27 9 13 -4 28 0 41 12 11 10 22 17 24 16 11 -8 34 -2 29 7 -3 6 -1 10 5 10 6
0 15 11 20 25 8 22 15 25 61 25 43 0 55 5 80 29 16 17 39 33 51 37 21 6 76 52
127 107 14 15 32 27 39 27 20 0 132 119 132 140 0 26 -76 100 -109 106 -24 5
-33 0 -61 -36z m70 6 c0 -8 -5 -16 -12 -18 -6 -2 -8 -10 -4 -17 6 -9 12 -9 26
4 22 20 38 2 19 -21 -15 -18 -3 -32 13 -16 13 13 38 16 38 5 -1 -5 -11 -20
-23 -35 l-22 -26 -49 43 -48 43 18 26 c21 28 44 34 44 12z m-65 -106 c20 -21
34 -28 51 -24 32 8 37 -10 9 -36 l-24 -23 -51 49 c-35 34 -46 50 -37 56 18 12
21 11 52 -22z m-60 -9 c3 -5 1 -12 -5 -16 -6 -4 3 -22 21 -45 19 -23 29 -45
26 -54 -9 -24 -19 -19 -49 24 -20 29 -32 37 -47 33 -29 -7 -26 6 7 38 30 30
38 33 47 20z m-76 -74 c13 -16 5 -27 -21 -27 -10 0 -18 -4 -18 -9 0 -6 19 -9
43 -8 39 2 42 0 45 -26 5 -42 -54 -78 -74 -46 -8 14 14 29 33 22 7 -3 13 2 13
11 0 12 -7 14 -30 10 -54 -11 -78 28 -40 66 23 23 34 25 49 7z m-74 -82 c47
-46 21 -115 -44 -115 -32 0 -56 23 -66 62 -6 22 -1 32 20 53 35 31 59 32 90 0z
m-127 -70 c10 -22 9 -28 -10 -47 -17 -17 -19 -25 -10 -39 9 -13 8 -19 -4 -23
-20 -8 -34 1 -34 19 0 8 -9 31 -20 51 -20 35 -20 37 -3 50 30 22 68 17 81 -11z
m-111 -65 c20 -27 41 -50 46 -50 4 0 5 -5 2 -10 -4 -6 -21 -8 -40 -4 -27 5
-35 2 -44 -15 -7 -12 -18 -21 -26 -21 -20 0 -22 136 -2 143 23 10 27 7 64 -43z"/>
<path d="M2153 694 c-15 -39 38 -67 60 -32 8 12 7 21 -2 32 -17 21 -50 20 -58
0z"/>
<path d="M1938 575 c2 -14 11 -25 18 -25 17 0 17 10 0 33 -18 24 -24 21 -18
-8z"/>
<path d="M495 986 c-22 -12 -39 -28 -37 -34 1 -7 -5 -12 -13 -12 -8 0 -16 -8
-16 -17 -1 -10 -2 -25 -3 -33 -2 -20 23 -60 38 -60 6 0 37 -25 69 -55 31 -30
61 -55 66 -55 22 0 43 34 37 61 -3 16 0 31 6 35 7 5 8 2 3 -7 -4 -8 6 1 23 20
33 35 32 40 -12 79 -50 45 -76 72 -69 72 8 1 -38 29 -47 29 -3 1 -23 -10 -45
-23z m65 -26 c22 -22 26 -45 10 -55 -6 -3 -15 6 -20 21 -7 18 -14 24 -21 17
-7 -7 -6 -19 2 -36 9 -21 9 -30 -1 -42 -27 -32 -80 -6 -80 39 0 33 23 31 28
-2 2 -12 8 -22 14 -22 6 0 7 15 3 39 -5 32 -3 41 12 50 25 15 30 14 53 -9z
m70 -67 c17 -14 30 -32 30 -40 0 -15 -16 -17 -25 -3 -4 6 -20 -6 -37 -27 -16
-21 -31 -40 -34 -42 -2 -2 -11 2 -20 10 -13 11 -13 15 -2 24 7 6 24 23 38 38
19 22 22 30 11 36 -7 5 -10 14 -7 20 10 15 12 14 46 -16z m-10 -128 c0 -8 -9
-15 -20 -15 -11 0 -20 7 -20 15 0 8 9 15 20 15 11 0 20 -7 20 -15z"/>
<path d="M1606 979 c-11 -57 -5 -75 10 -29 16 53 17 60 5 60 -5 0 -11 -14 -15
-31z"/>
<path d="M1000 992 c0 -18 32 -72 42 -72 4 0 8 -9 8 -20 0 -11 5 -20 10 -20 6
0 10 9 10 20 0 11 -4 20 -10 20 -5 0 -10 7 -10 15 0 8 5 15 10 15 6 0 10 7 10
16 0 8 -4 12 -10 9 -5 -3 -10 1 -10 10 0 9 -5 13 -10 10 -8 -5 -7 -11 1 -21 6
-8 8 -18 4 -22 -4 -4 -10 -2 -12 4 -8 23 -32 49 -33 36z"/>
<path d="M1672 937 c-12 -23 -28 -64 -37 -92 -13 -45 -13 -51 3 -68 10 -11 16
-32 14 -50 -2 -31 -1 -31 9 -7 14 33 14 33 38 18 25 -16 26 -26 4 -50 -15 -17
-15 -18 -1 -13 20 8 29 29 34 80 6 63 13 85 29 85 12 0 14 -14 10 -77 -3 -65
-3 -70 5 -33 5 25 9 64 9 88 1 38 3 42 26 42 24 0 25 -2 23 -70 0 -39 2 -73 5
-77 4 -3 7 28 7 71 l0 77 28 -19 c15 -10 35 -22 45 -25 30 -11 9 11 -34 35
-34 19 -37 24 -22 29 16 7 16 8 -2 8 -23 1 -169 -53 -202 -75 -13 -8 -23 -12
-23 -10 0 3 14 42 30 87 17 45 29 83 27 85 -1 2 -13 -16 -25 -39z m54 -139
c-3 -13 -6 -31 -6 -41 0 -17 -1 -17 -30 0 -36 21 -37 27 -8 47 33 23 52 21 44
-6z"/>
<path d="M1000 930 c0 -19 38 -81 44 -71 4 5 -3 26 -15 45 -22 37 -29 44 -29
26z"/>
<path d="M1132 914 c-6 -12 -8 -25 -4 -29 4 -3 3 -6 -3 -5 -19 5 -75 -25 -75
-39 0 -11 5 -10 20 4 12 10 38 21 59 24 39 6 39 6 27 36 -12 29 -13 29 -24 9z"/>
<path d="M1535 850 c-4 -28 -5 -53 -2 -56 2 -3 7 19 11 47 4 28 5 53 3 56 -3
2 -8 -19 -12 -47z"/>
<path d="M1587 870 c-4 -14 -6 -43 -6 -65 l1 -40 9 45 c11 54 8 101 -4 60z"/>
<path d="M722 810 c-10 -11 -24 -38 -31 -60 -6 -21 -16 -42 -21 -45 -6 -4 -3
-17 7 -33 21 -32 45 -52 55 -46 5 3 8 1 8 -4 0 -5 27 -23 60 -40 33 -18 60
-29 60 -25 0 4 15 -8 34 -26 27 -26 43 -33 79 -35 27 -1 51 -9 62 -19 9 -10
25 -15 34 -12 9 3 36 -4 59 -15 24 -12 47 -18 52 -15 6 3 10 2 10 -4 0 -5 18
-10 39 -9 22 0 45 -3 52 -8 7 -4 27 -8 43 -9 17 -1 42 -5 56 -9 20 -5 32 0 57
24 28 26 31 34 26 66 -8 51 19 41 32 -12 18 -72 52 -99 86 -68 15 14 21 14 34
4 11 -9 22 -9 45 -1 17 5 37 8 45 4 9 -3 21 0 28 5 7 6 19 7 26 3 18 -12 52
-2 79 22 19 18 22 28 17 71 -3 27 -14 63 -23 79 -18 30 -25 31 -127 11 -16 -3
-65 -8 -108 -10 -58 -3 -86 -9 -107 -24 l-28 -20 -26 27 c-25 25 -29 25 -67
14 -34 -10 -44 -10 -63 3 -13 8 -37 14 -54 14 -17 -1 -38 4 -46 11 -8 7 -25 9
-40 5 -19 -4 -31 -1 -44 12 -9 11 -28 20 -42 22 -27 3 -93 33 -98 44 -2 4 -10
4 -18 1 -8 -3 -22 1 -32 9 -19 17 -53 32 -64 30 -5 -1 -8 2 -8 7 0 8 -102 81
-114 81 -3 0 -14 -9 -24 -20z m53 -32 c38 -25 48 -54 16 -43 -16 5 -25 -3 -43
-34 -13 -23 -28 -41 -35 -41 -25 0 -23 22 7 65 23 34 27 45 15 45 -16 0 -20
12 -8 23 9 10 9 10 48 -15z m70 -48 c4 -6 1 -18 -6 -26 -10 -12 -8 -17 7 -29
17 -13 20 -12 28 10 11 27 14 29 34 16 11 -6 7 -20 -18 -65 -18 -31 -36 -56
-40 -56 -17 0 -21 20 -9 41 9 17 8 23 -2 30 -21 13 -27 11 -36 -16 -7 -22 -11
-24 -25 -13 -15 12 -14 17 14 66 30 52 41 61 53 42z m178 -92 c24 -28 21 -55
-8 -83 -55 -56 -133 -4 -105 69 18 48 77 55 113 14z m73 -16 c6 -4 14 -25 18
-46 l8 -40 24 31 c17 23 30 30 45 26 14 -4 18 -11 13 -22 -3 -9 -11 -34 -16
-56 -11 -47 -19 -57 -36 -46 -10 6 -9 16 3 47 l16 39 -36 -40 -35 -40 -1 30
c0 17 -4 39 -9 50 -7 16 -9 13 -15 -22 -8 -44 -12 -48 -31 -35 -8 5 -5 26 9
70 20 63 23 67 43 54z m714 -46 c0 -8 -10 -16 -22 -19 -24 -4 -22 -5 27 -22
18 -7 18 -8 -7 -17 -17 -6 -25 -14 -21 -23 4 -11 10 -12 23 -5 13 7 19 6 24
-5 6 -17 1 -20 -39 -29 -31 -7 -31 -6 -44 55 -12 52 -12 62 0 70 22 14 59 11
59 -5z m-517 -10 c13 -14 33 -124 23 -133 -2 -3 -14 5 -25 16 -22 22 -61 29
-61 11 0 -5 -9 -10 -20 -10 -11 0 -20 2 -20 4 0 13 72 126 80 126 5 0 15 -6
23 -14z m125 -12 c12 -8 22 -19 22 -25 0 -14 -38 -11 -43 4 -2 6 -8 8 -13 4
-5 -5 4 -19 20 -32 23 -18 27 -28 22 -49 -5 -20 -13 -26 -35 -26 -29 0 -60 25
-47 37 4 4 16 2 26 -5 25 -15 30 -15 30 2 0 8 -9 18 -20 21 -31 10 -42 38 -24
63 18 26 32 27 62 6z m222 -9 c0 -18 5 -25 20 -25 15 0 20 7 20 25 0 15 6 25
15 25 15 0 19 -13 29 -87 6 -38 4 -43 -14 -43 -15 0 -20 7 -20 25 0 19 -5 25
-21 25 -19 0 -21 -4 -15 -30 4 -25 2 -30 -13 -30 -13 0 -20 10 -25 38 -10 65
-7 102 9 102 9 0 15 -9 15 -25z m-40 0 c0 -8 -9 -15 -20 -15 -20 0 -20 -6 -5
-82 2 -13 -3 -18 -21 -18 -22 0 -24 4 -24 51 0 41 -3 50 -15 45 -10 -4 -15 1
-15 14 0 17 7 20 50 20 38 0 50 -4 50 -15z"/>
<path d="M946 624 c-9 -8 -16 -19 -16 -24 0 -8 28 -40 35 -40 20 0 35 17 35
40 0 16 -7 30 -16 34 -21 8 -20 8 -38 -10z"/>
<path d="M1260 521 c-13 -26 -13 -31 5 -31 9 0 15 9 15 25 0 30 -6 32 -20 6z"/>
<path d="M1517 746 c-5 -21 -6 -40 -3 -43 9 -10 18 24 14 54 -3 26 -4 25 -11
-11z"/>
<path d="M1565 722 c-4 -24 -5 -46 -2 -49 8 -7 20 63 14 79 -2 7 -7 -6 -12
-30z"/>
<path d="M1321 738 c0 -7 4 -22 9 -33 8 -19 9 -19 9 3 1 14 7 22 19 23 14 0
14 2 -3 9 -28 12 -35 12 -34 -2z"/>
<path d="M1120 730 c0 -5 13 -10 30 -10 16 0 33 -6 37 -14 13 -22 68 -45 119
-49 48 -4 48 -4 19 9 -16 7 -40 13 -52 14 -25 0 -31 15 -10 23 6 3 1 6 -13 7
-14 0 -34 7 -44 15 -22 17 -86 20 -86 5z"/>
</g>
</svg>
